<?xml version="1.0" standalone="no"?>
<!DOCTYPE svg PUBLIC "-//W3C//DTD SVG 1.1//EN" "http://www.w3.org/Graphics/SVG/1.1/DTD/svg11.dtd" >
<svg>
<metadata>
Created by FontForge 20120731 at Sun Aug 30 12:19:08 2015
 By roman,,,
Copyright(c) 2014 M+ FONTS PROJECT
</metadata>
<defs>
<font id="mplus-2m-medium" horiz-adv-x="1000" vert-adv-y="1000" >
  <font-face 
    font-family="M+ 2m medium"
    font-weight="500"
    font-stretch="normal"
    units-per-em="1000"
    panose-1="2 11 6 9 2 2 3 2 2 7"
    ascent="860"
    descent="-140"
    x-height="520"
    cap-height="730"
    bbox="0 -320 1000 1075"
    underline-thickness="50"
    underline-position="-100"
    unicode-range="U+0020-27FB7"
  />
<missing-glyph horiz-adv-x="364" 
d="M33 0v666h265v-666h-265zM66 33h199v600h-199v-600z" />
    <glyph glyph-name="uni6F23" unicode="&#x6f23;" unicode="&#xe0102;" 
d="M576 473h78v63h-78v-63zM576 338h78v66h-78v-66zM576 262h-98v350h171v54h-208v84h208v61h103v-61h196v-84h-196v-54h174v-350h-174v-56h196v-81h-196v-79h-103v79h-193v81h193v56h-73zM828 473v63h-78v-63h78zM828 404h-78v-66h78v66zM53 729l62 64q90 -72 152 -134
l-63 -63q-69 67 -151 133zM185 363q-66 65 -159 140l63 67q77 -60 155 -134h178v-304q18 -45 44.5 -66.5t79 -31.5t150.5 -10h257l-2 -88h-277q-130 0 -197.5 20.5t-101.5 71.5q-38 -52 -100 -109l-59 76q62 55 105 113v240h-78v77zM255 241q-45 -170 -121 -312l-84 51
q69 128 117 296zM446 588l-81 -49q-61 111 -112 189l80 48q61 -94 113 -188z" />
    <glyph glyph-name="uni6F23" unicode="&#x6f23;" unicode="&#xe0101;" 
d="M576 473h78v63h-78v-63zM576 338h78v66h-78v-66zM576 262h-98v350h171v54h-208v84h208v61h103v-61h196v-84h-196v-54h174v-350h-174v-56h196v-81h-196v-79h-103v79h-193v81h193v56h-73zM828 473v63h-78v-63h78zM828 404h-78v-66h78v66zM53 729l62 64q90 -72 152 -134
l-63 -63q-69 67 -151 133zM185 363q-66 65 -159 140l63 67q77 -60 155 -134h178v-304q18 -45 44.5 -66.5t79 -31.5t150.5 -10h257l-2 -88h-277q-130 0 -197.5 20.5t-101.5 71.5q-38 -52 -100 -109l-59 76q62 55 105 113v240h-78v77zM255 241q-45 -170 -121 -312l-84 51
q69 128 117 296zM446 588l-81 -49q-61 111 -112 189l80 48q61 -94 113 -188z" />
    <glyph glyph-name="uni7259" unicode="&#x7259;" unicode="&#xe0102;" 
d="M653 356q-237 -222 -550 -359l-52 83q266 112 478 282h-476v91h166v316h686v-88h-147v-228h186v-91h-186v-279q0 -101 -23 -124t-124 -23q-35 0 -172 5l-4 88q127 -5 157 -5q44 0 52.5 7.5t8.5 49.5v275zM653 681h-329v-228h329v228z" />
    <glyph glyph-name="uni7259" unicode="&#x7259;" unicode="&#xe0100;" 
d="M653 356q-237 -222 -550 -359l-52 83q266 112 478 282h-476v91h166v316h686v-88h-147v-228h186v-91h-186v-279q0 -101 -23 -124t-124 -23q-35 0 -172 5l-4 88q127 -5 157 -5q44 0 52.5 7.5t8.5 49.5v275zM653 681h-329v-228h329v228z" />
    <glyph glyph-name="uni82A6" unicode="&#x82a6;" unicode="&#xe0102;" 
d="M283 218h460v130h-459v-74q0 -38 -1 -56zM743 735h193v-88h-193v-52h-103v52h-280v-52h-103v52h-193v88h193v76h103v-76h280v76h103v-76zM84 490v81h832v-81h-832zM177 316v113h671v-346h-105v49h-471q-27 -134 -125 -223l-88 61q66 63 92 137t26 209z" />
    <glyph glyph-name="uni82A6" unicode="&#x82a6;" unicode="&#xe0100;" 
d="M283 218h460v130h-459v-74q0 -38 -1 -56zM743 735h193v-88h-193v-52h-103v52h-280v-52h-103v52h-193v88h193v76h103v-76h280v76h103v-76zM84 490v81h832v-81h-832zM177 316v113h671v-346h-105v49h-471q-27 -134 -125 -223l-88 61q66 63 92 137t26 209z" />
    <glyph glyph-name="uni304B_uni309A.liga" unicode="&#x304b;&#x309a;" 
d="M827 528q95 -210 148 -366l-95 -33q-58 165 -145 359zM465 600q47 0 75 -2t52 -11t35.5 -22.5t20 -41t10.5 -60.5t2 -88q0 -196 -60.5 -303t-144.5 -107q-69 0 -171 74l47 87q84 -61 121 -61q19 0 37.5 20t34 59t25 104t9.5 147q0 78 -16 96.5t-80 18.5q-32 0 -86 -3
q-63 -276 -199 -547l-91 37q127 256 186 502q-88 -7 -166 -16l-7 89q81 9 193 19q21 104 33 214l100 -8q-12 -101 -30 -199q54 2 70 2zM950 700q0 -58 -41 -99t-99 -41t-99 41t-41 99t41 99t99 41t99 -41t41 -99zM875 700q0 27 -19 46t-46 19t-46 -19t-19 -46t19 -46t46 -19
t46 19t19 46z" />
    <glyph glyph-name="uni304D_uni309A.liga" unicode="&#x304d;&#x309a;" 
d="M764 213l-106 -52q-129 67 -233 67q-145 0 -145 -90q0 -116 230 -116q88 0 214 20l12 -87q-125 -20 -226 -20q-166 0 -250.5 52t-84.5 148q0 75 59 126t191 51q99 0 187 -45l1 2q-39 63 -69 127q-248 -26 -469 -26v85q205 0 433 23q-17 43 -34 96q-166 -16 -329 -16v84
q147 0 306 15q-16 68 -23 130l102 4q8 -66 22 -123q86 10 155 21q-2 14 -2 21q0 58 41 99t99 41t99 -41t41 -99t-41 -99t-99 -41q-55 0 -97 40q-96 -16 -173 -25q13 -43 35 -96q136 16 247 36l9 -85q-109 -19 -219 -32q52 -105 117 -195zM910 710q0 27 -19 46t-46 19
t-46 -19t-19 -46t19 -46t46 -19t46 19t19 46z" />
    <glyph glyph-name="uni304F_uni309A.liga" unicode="&#x304f;&#x309a;" 
d="M574 804l75 -74q-269 -238 -359 -297q-36 -24 -44 -32t-8 -21q0 -12 7 -19.5t41 -30.5q106 -74 400 -340l-77 -73q-295 274 -401 344q-61 41 -75.5 60t-14.5 59q0 41 15.5 60.5t81.5 64.5q101 69 359 299zM890 470q0 -62 -44 -106t-106 -44t-106 44t-44 106t44 106
t106 44t106 -44t44 -106zM810 470q0 29 -20.5 49.5t-49.5 20.5t-49.5 -20.5t-20.5 -49.5t20.5 -49.5t49.5 -20.5t49.5 20.5t20.5 49.5z" />
    <glyph glyph-name="uni3051_uni309A.liga" unicode="&#x3051;&#x309a;" 
d="M165 746l105 -12q-50 -181 -50 -384t50 -384l-105 -12q-50 191 -50 396t50 396zM750 477q3 -55 3 -107q0 -138 -23.5 -215.5t-80.5 -127t-172 -92.5l-46 87q97 36 141 73t61 97t17 178q0 50 -3 99q-141 -9 -292 -9v90q147 0 288 9q-8 136 -8 206h95q41 43 100 43
q58 0 99 -41t41 -99q0 -68 -54 -111l5 -62q-93 -11 -171 -18zM895 668q0 27 -19 45.5t-46 18.5t-46 -18.5t-19 -45.5t19 -46.5t46 -19.5t46 19.5t19 46.5z" />
    <glyph glyph-name="uni3053_uni309A.liga" unicode="&#x3053;&#x309a;" 
d="M520 692q9 0 117 3l4 -95q-40 -2 -121 -2q-176 0 -331 22l7 95q169 -23 324 -23zM282 419l71 -68q-138 -121 -138 -181q0 -52 72 -82t213 -30q128 0 299 44l17 -97q-175 -45 -316 -45q-197 0 -296 55t-99 150q0 106 177 254zM978 688q0 -62 -44 -106t-106 -44t-106 44
t-44 106t44 106t106 44t106 -44t44 -106zM898 688q0 29 -20.5 49.5t-49.5 20.5t-49.5 -20.5t-20.5 -49.5t20.5 -49.5t49.5 -20.5t49.5 20.5t20.5 49.5z" />
    <glyph glyph-name="uni30AB_uni309A.liga" unicode="&#x30ab;&#x309a;" 
d="M488 108q104 -26 157 -26q32 0 46.5 23.5t24 114t11.5 282.5v23h-262q-13 -143 -48.5 -244.5t-93 -174.5t-152.5 -145l-64 70q124 94 182 202t76 292h-245v90h251q4 67 4 165h100q0 -97 -4 -165h264q-35 40 -35 93q0 58 41 99t99 41t99 -41t41 -99t-41 -99t-99 -41h-5
v-13q-2 -193 -10.5 -306.5t-30.5 -172t-48 -75t-74 -16.5q-79 0 -204 30zM905 708q0 27 -19 45.5t-46 18.5t-46 -18.5t-19 -45.5t19 -46.5t46 -19.5t46 19.5t19 46.5z" />
    <glyph glyph-name="uni30AD_uni309A.liga" unicode="&#x30ad;&#x309a;" 
d="M548 287l343 25l7 -93l-343 -24l21 -257l-105 -6l-21 255l-361 -26l-7 92l361 26l-18 218l-291 -20l-7 92l291 20l-14 173l105 6l14 -172l228 15q-41 41 -41 99t41 99t99 41t99 -41t41 -99t-41 -99t-99 -41l3 -44l-322 -22zM915 710q0 27 -19 46t-46 19t-46 -19t-19 -46
t19 -46t46 -19t46 19t19 46z" />
    <glyph glyph-name="uni30AF_uni309A.liga" unicode="&#x30af;&#x309a;" 
d="M295 766l100 -7q-6 -59 -19 -109h337q-13 26 -13 60q0 58 41 99t99 41t99 -41t41 -99t-41 -99t-99 -41q-26 0 -50 9v-19q-29 -273 -180.5 -416t-453.5 -179l-19 92q260 28 392 150t155 353h-339q-60 -146 -194 -274l-69 63q180 180 213 417zM905 710q0 27 -19 46t-46 19
t-46 -19t-19 -46t19 -46t46 -19t46 19t19 46z" />
    <glyph glyph-name="uni30B1_uni309A.liga" unicode="&#x30b1;&#x309a;" 
d="M235 773l98 -6q-9 -88 -29 -155h446q-40 42 -40 98q0 58 41 99t99 41t99 -41t41 -99q0 -42 -22.5 -76.5t-59.5 -51.5v-62h-258q-1 -234 -92.5 -364.5t-295.5 -192.5l-34 87q175 58 245.5 162t71.5 308h-273q-46 -108 -138 -218l-78 54q78 95 120.5 193t58.5 224zM915 710
q0 27 -19 46t-46 19t-46 -19t-19 -46t19 -46t46 -19t46 19t19 46z" />
    <glyph glyph-name="uni30B3_uni309A.liga" unicode="&#x30b3;&#x309a;" 
d="M990 710q0 -58 -41 -99t-99 -41q-26 0 -50 9v-594h-105v60h-575v93h575v440h-575v92h596q-6 20 -6 40q0 58 41 99t99 41t99 -41t41 -99zM915 710q0 27 -19 46t-46 19t-46 -19t-19 -46t19 -46t46 -19t46 19t19 46z" />
    <glyph glyph-name="uni30BB_uni309A.liga" unicode="&#x30bb;&#x309a;" 
d="M510 -20q-141 0 -185.5 44t-44.5 186v228l-224 -35l-14 92l238 38v232h105v-215l368 59q-43 40 -43 101q0 58 41 99t99 41t99 -41t41 -99q0 -47 -27.5 -83t-70.5 -50l6 -39q-31 -93 -96 -178t-150 -142l-65 75q135 97 202 227l-404 -65v-250q0 -85 23 -109t104 -24
q185 0 357 35l9 -92q-181 -35 -368 -35zM915 710q0 27 -19 46t-46 19t-46 -19t-19 -46t19 -46t46 -19t46 19t19 46z" />
    <glyph glyph-name="uni30C4_uni309A.liga" unicode="&#x30c4;&#x309a;" 
d="M452 724q47 -161 85 -315l-95 -25q-32 133 -84 315zM196 672q42 -133 84 -303l-93 -24q-40 155 -84 301zM772 589q-32 18 -51 50.5t-19 70.5q0 58 41 99t99 41t99 -41t41 -99q0 -50 -31.5 -88.5t-79.5 -48.5q-46 -274 -184 -410.5t-418 -192.5l-23 90q244 51 364 170.5
t162 358.5zM908 710q0 27 -19.5 46t-46.5 19t-45.5 -19t-18.5 -46t18.5 -46t45.5 -19t46.5 19t19.5 46z" />
    <glyph glyph-name="uni30C8_uni309A.liga" unicode="&#x30c8;&#x309a;" 
d="M362 760v-279q236 -64 453 -161l-37 -90q-203 92 -416 151v-421h-107v800h107zM855 630q0 -58 -41 -99t-99 -41t-99 41t-41 99t41 99t99 41t99 -41t41 -99zM780 630q0 27 -19 46t-46 19t-46 -19t-19 -46t19 -46t46 -19t46 19t19 46z" />
    <glyph glyph-name="uni31F7_uni309A.liga" unicode="&#x31f7;&#x309a;" 
d="M651 477h-478v87h477q-2 16 -2 24q0 58 41 99t99 41t99 -41t41 -99t-41 -99t-99 -41q-24 0 -39 5q-28 -203 -148 -317t-346 -151l-23 87q194 35 297 134.5t122 270.5zM852 588q0 27 -18.5 45.5t-45.5 18.5t-46.5 -18.5t-19.5 -45.5t19.5 -46.5t46.5 -19.5t45.5 19.5
t18.5 46.5z" />
    <glyph glyph-name="glyph7523" unicode="&#x5efb;" unicode="&#xe0100;" 
d="M471 93h-101v679h546v-679h-445zM471 179h345v507h-345v-507zM615 257h-88v353h233v-353h-145zM615 338h57v191h-57v-191zM696 24h243l-5 -88h-243q-182 0 -294.5 26.5t-178.5 85.5q-51 -77 -119 -128l-58 76q67 56 114 132q-15 26 -30 68q-12 -38 -37 -81l-49 98
q35 59 54 130h71q16 -71 37 -119q24 67 35 160h-160v86q81 101 139 204h-149v88h250v-88q-60 -120 -122 -204h139v-86q-18 -143 -70 -255q57 -57 158.5 -81t274.5 -24z" />
    <glyph glyph-name="glyph7523" unicode="&#x5efb;" unicode="&#xe0100;" 
d="M471 93h-101v679h546v-679h-445zM471 179h345v507h-345v-507zM615 257h-88v353h233v-353h-145zM615 338h57v191h-57v-191zM696 24h243l-5 -88h-243q-182 0 -294.5 26.5t-178.5 85.5q-51 -77 -119 -128l-58 76q67 56 114 132q-15 26 -30 68q-12 -38 -37 -81l-49 98
q35 59 54 130h71q16 -71 37 -119q24 67 35 160h-160v86q81 101 139 204h-149v88h250v-88q-60 -120 -122 -204h139v-86q-18 -143 -70 -255q57 -57 158.5 -81t274.5 -24z" />
    <glyph glyph-name="glyph7524" unicode="&#x91dc;" unicode="&#xe0100;" 
d="M280 164q41 -59 83 -137h83v137h-166zM719 164h-165v-137h86q48 74 79 137zM506 481q-106 -48 -231 -77h455q-121 30 -224 77zM547 735l58 68q190 -64 338 -149l-58 -78q-153 92 -338 159zM956 448l-27 -83q-74 11 -133 24v-66h-242v-76h345v-83h-159l74 -32
q-27 -54 -59 -105h174v-86h-858v86h178q-33 56 -65 103l75 34h-158v83h345v76h-242v65q-69 -13 -133 -23l-27 81q234 34 366 87q-37 23 -74 52q-48 -51 -98 -85l-59 66q56 36 111 84q-82 -41 -175 -70l-58 74q183 57 311 149l78 -51q-65 -55 -144 -96h88q57 -43 118 -76
q54 30 122 81l81 -54q-58 -46 -105 -74q126 -51 350 -85z" />
    <glyph glyph-name="glyph7524" unicode="&#x91dc;" unicode="&#xe0100;" 
d="M280 164q41 -59 83 -137h83v137h-166zM719 164h-165v-137h86q48 74 79 137zM506 481q-106 -48 -231 -77h455q-121 30 -224 77zM547 735l58 68q190 -64 338 -149l-58 -78q-153 92 -338 159zM956 448l-27 -83q-74 11 -133 24v-66h-242v-76h345v-83h-159l74 -32
q-27 -54 -59 -105h174v-86h-858v86h178q-33 56 -65 103l75 34h-158v83h345v76h-242v65q-69 -13 -133 -23l-27 81q234 34 366 87q-37 23 -74 52q-48 -51 -98 -85l-59 66q56 36 111 84q-82 -41 -175 -70l-58 74q183 57 311 149l78 -51q-65 -55 -144 -96h88q57 -43 118 -76
q54 30 122 81l81 -54q-58 -46 -105 -74q126 -51 350 -85z" />
    <glyph glyph-name="uni53A9.jp04" unicode="&#x53a9;" unicode="&#xe0107;" 
d="M456 429h-135v-59h135v59zM456 500v58h-135v-58h135zM758 372q31 93 34 191h-94v-191h60zM828 228v-189q0 -16 3 -19t17 -3q15 0 17.5 18.5t4.5 126.5l78 -8q-2 -48 -2.5 -73t-4 -54t-5.5 -40.5t-10 -26t-13.5 -17.5t-20.5 -7.5t-27 -4.5h-37q-67 0 -82.5 10t-15.5 51
v129q-96 -126 -250 -209l-63 73q37 19 72 42h-161v-103h-102v708h102q11 25 22 56h-159v-286q0 -163 -19.5 -273t-65.5 -210l-79 86q36 81 51 184t15 281v306h846v-88h-486q-14 -41 -21 -56h112v-341h-88h-128v-51h231v-81h-231v-51h231v-30q104 87 163 206h-156v88h42v272
h321v-81h-42q-4 -97 -31 -191h83v-88h-114q-16 -38 -26 -56h29z" />
    <glyph glyph-name="uni53A9.jp04" unicode="&#x53a9;" unicode="&#xe0105;" 
d="M456 429h-135v-59h135v59zM456 500v58h-135v-58h135zM758 372q31 93 34 191h-94v-191h60zM828 228v-189q0 -16 3 -19t17 -3q15 0 17.5 18.5t4.5 126.5l78 -8q-2 -48 -2.5 -73t-4 -54t-5.5 -40.5t-10 -26t-13.5 -17.5t-20.5 -7.5t-27 -4.5h-37q-67 0 -82.5 10t-15.5 51
v129q-96 -126 -250 -209l-63 73q37 19 72 42h-161v-103h-102v708h102q11 25 22 56h-159v-286q0 -163 -19.5 -273t-65.5 -210l-79 86q36 81 51 184t15 281v306h846v-88h-486q-14 -41 -21 -56h112v-341h-88h-128v-51h231v-81h-231v-51h231v-30q104 87 163 206h-156v88h42v272
h321v-81h-42q-4 -97 -31 -191h83v-88h-114q-16 -38 -26 -56h29z" />
    <glyph glyph-name="uni53A9.jp04" unicode="&#x53a9;" unicode="&#xe0107;" 
d="M456 429h-135v-59h135v59zM456 500v58h-135v-58h135zM758 372q31 93 34 191h-94v-191h60zM828 228v-189q0 -16 3 -19t17 -3q15 0 17.5 18.5t4.5 126.5l78 -8q-2 -48 -2.5 -73t-4 -54t-5.5 -40.5t-10 -26t-13.5 -17.5t-20.5 -7.5t-27 -4.5h-37q-67 0 -82.5 10t-15.5 51
v129q-96 -126 -250 -209l-63 73q37 19 72 42h-161v-103h-102v708h102q11 25 22 56h-159v-286q0 -163 -19.5 -273t-65.5 -210l-79 86q36 81 51 184t15 281v306h846v-88h-486q-14 -41 -21 -56h112v-341h-88h-128v-51h231v-81h-231v-51h231v-30q104 87 163 206h-156v88h42v272
h321v-81h-42q-4 -97 -31 -191h83v-88h-114q-16 -38 -26 -56h29z" />
    <glyph glyph-name="uni53A9.jp04" unicode="&#x53a9;" unicode="&#xe0105;" 
d="M456 429h-135v-59h135v59zM456 500v58h-135v-58h135zM758 372q31 93 34 191h-94v-191h60zM828 228v-189q0 -16 3 -19t17 -3q15 0 17.5 18.5t4.5 126.5l78 -8q-2 -48 -2.5 -73t-4 -54t-5.5 -40.5t-10 -26t-13.5 -17.5t-20.5 -7.5t-27 -4.5h-37q-67 0 -82.5 10t-15.5 51
v129q-96 -126 -250 -209l-63 73q37 19 72 42h-161v-103h-102v708h102q11 25 22 56h-159v-286q0 -163 -19.5 -273t-65.5 -210l-79 86q36 81 51 184t15 281v306h846v-88h-486q-14 -41 -21 -56h112v-341h-88h-128v-51h231v-81h-231v-51h231v-30q104 87 163 206h-156v88h42v272
h321v-81h-42q-4 -97 -31 -191h83v-88h-114q-16 -38 -26 -56h29z" />
    <glyph glyph-name="uni5642.jp04" unicode="&#x5642;" unicode="&#xe0103;" 
d="M821 639v-29h-64v-37h157q-50 31 -93 66zM771 683q-14 13 -36 37h-200q-15 -20 -31 -37h267zM453 436q56 26 71 71h-71v-71zM453 267h373v34h-373v-34zM498 610h-45v26q-40 -35 -85 -63h130v37zM593 610v-37h69v37h-69zM826 456v51h-79v-22q0 -22 6 -25.5t39 -3.5h34z
M221 105v556h-64v-556h64zM613 507q-14 -91 -113 -135l-47 47v-54h373v27h-96q-49 0 -63.5 11.5t-14.5 49.5v54h-39zM534 -66q-71 63 -149 112l41 42h-93v78h427v35h-307h-98v365l-44 70v-619h-154v-59h-96v794h250v-105q96 58 165 137l58 -54v73h250q71 -85 189 -156
l-47 -81v-365h-61v-35h93v-78h-93v-51q0 -77 -17.5 -95t-90.5 -18q-30 0 -142 5l-2 81q88 -5 110 -5q28 0 32.5 5t4.5 36v42h-277q61 -40 115 -88z" />
    <glyph glyph-name="uni5642.jp04" unicode="&#x5642;" unicode="&#xe0101;" 
d="M821 639v-29h-64v-37h157q-50 31 -93 66zM771 683q-14 13 -36 37h-200q-15 -20 -31 -37h267zM453 436q56 26 71 71h-71v-71zM453 267h373v34h-373v-34zM498 610h-45v26q-40 -35 -85 -63h130v37zM593 610v-37h69v37h-69zM826 456v51h-79v-22q0 -22 6 -25.5t39 -3.5h34z
M221 105v556h-64v-556h64zM613 507q-14 -91 -113 -135l-47 47v-54h373v27h-96q-49 0 -63.5 11.5t-14.5 49.5v54h-39zM534 -66q-71 63 -149 112l41 42h-93v78h427v35h-307h-98v365l-44 70v-619h-154v-59h-96v794h250v-105q96 58 165 137l58 -54v73h250q71 -85 189 -156
l-47 -81v-365h-61v-35h93v-78h-93v-51q0 -77 -17.5 -95t-90.5 -18q-30 0 -142 5l-2 81q88 -5 110 -5q28 0 32.5 5t4.5 36v42h-277q61 -40 115 -88z" />
    <glyph glyph-name="uni5642.jp04" unicode="&#x5642;" unicode="&#xe0103;" 
d="M821 639v-29h-64v-37h157q-50 31 -93 66zM771 683q-14 13 -36 37h-200q-15 -20 -31 -37h267zM453 436q56 26 71 71h-71v-71zM453 267h373v34h-373v-34zM498 610h-45v26q-40 -35 -85 -63h130v37zM593 610v-37h69v37h-69zM826 456v51h-79v-22q0 -22 6 -25.5t39 -3.5h34z
M221 105v556h-64v-556h64zM613 507q-14 -91 -113 -135l-47 47v-54h373v27h-96q-49 0 -63.5 11.5t-14.5 49.5v54h-39zM534 -66q-71 63 -149 112l41 42h-93v78h427v35h-307h-98v365l-44 70v-619h-154v-59h-96v794h250v-105q96 58 165 137l58 -54v73h250q71 -85 189 -156
l-47 -81v-365h-61v-35h93v-78h-93v-51q0 -77 -17.5 -95t-90.5 -18q-30 0 -142 5l-2 81q88 -5 110 -5q28 0 32.5 5t4.5 36v42h-277q61 -40 115 -88z" />
    <glyph glyph-name="uni5642.jp04" unicode="&#x5642;" unicode="&#xe0101;" 
d="M821 639v-29h-64v-37h157q-50 31 -93 66zM771 683q-14 13 -36 37h-200q-15 -20 -31 -37h267zM453 436q56 26 71 71h-71v-71zM453 267h373v34h-373v-34zM498 610h-45v26q-40 -35 -85 -63h130v37zM593 610v-37h69v37h-69zM826 456v51h-79v-22q0 -22 6 -25.5t39 -3.5h34z
M221 105v556h-64v-556h64zM613 507q-14 -91 -113 -135l-47 47v-54h373v27h-96q-49 0 -63.5 11.5t-14.5 49.5v54h-39zM534 -66q-71 63 -149 112l41 42h-93v78h427v35h-307h-98v365l-44 70v-619h-154v-59h-96v794h250v-105q96 58 165 137l58 -54v73h250q71 -85 189 -156
l-47 -81v-365h-61v-35h93v-78h-93v-51q0 -77 -17.5 -95t-90.5 -18q-30 0 -142 5l-2 81q88 -5 110 -5q28 0 32.5 5t4.5 36v42h-277q61 -40 115 -88z" />
    <glyph glyph-name="uni5FBD.jp04" unicode="&#x5fbd;" unicode="&#xe0103;" 
d="M802 280q39 118 52 305h-103q-19 -50 -24 -61l33 5q15 -155 42 -249zM240 -25q47 71 76 154l79 -23q-28 -92 -76 -165zM517 110l78 30q27 -53 45 -98q67 54 110 124q-44 105 -68 267q-3 -6 -10 -18t-10 -18l-63 54h-122l35 -35q-49 -53 -110 -108q18 -20 26 -30
q68 59 150 146l59 -57q-63 -68 -143 -136q16 1 49 2.5t50 2.5q-4 9 -11.5 25t-10.5 23l71 29q44 -93 71 -164l-71 -31q-5 12 -15 38l-120 -6v-224h-95v219l-142 -8l-5 83l95 5q-45 53 -105 115l61 62q4 -5 14.5 -15t15.5 -16q36 33 82 80h-112v51q-40 -68 -90 -125v-458
h-103v368q-29 -33 -69 -64l-32 103q136 99 231 252l76 -44h303q7 14 13 29h-346v167q-93 -118 -228 -198l-37 88q126 81 211 193l86 -41q-2 -3 -6.5 -9t-6.5 -9h67v-107h44v156h93v-156h44v107h83v-181q44 101 76 243l89 -13q-11 -57 -32 -127h193v-91h-30
q-22 -267 -97 -422q45 -84 130 -153l-44 -79q-86 65 -138 146q-60 -83 -147 -146l-33 59l-40 -15q-28 74 -59 135z" />
    <glyph glyph-name="uni5FBD.jp04" unicode="&#x5fbd;" unicode="&#xe0101;" 
d="M802 280q39 118 52 305h-103q-19 -50 -24 -61l33 5q15 -155 42 -249zM240 -25q47 71 76 154l79 -23q-28 -92 -76 -165zM517 110l78 30q27 -53 45 -98q67 54 110 124q-44 105 -68 267q-3 -6 -10 -18t-10 -18l-63 54h-122l35 -35q-49 -53 -110 -108q18 -20 26 -30
q68 59 150 146l59 -57q-63 -68 -143 -136q16 1 49 2.5t50 2.5q-4 9 -11.5 25t-10.5 23l71 29q44 -93 71 -164l-71 -31q-5 12 -15 38l-120 -6v-224h-95v219l-142 -8l-5 83l95 5q-45 53 -105 115l61 62q4 -5 14.5 -15t15.5 -16q36 33 82 80h-112v51q-40 -68 -90 -125v-458
h-103v368q-29 -33 -69 -64l-32 103q136 99 231 252l76 -44h303q7 14 13 29h-346v167q-93 -118 -228 -198l-37 88q126 81 211 193l86 -41q-2 -3 -6.5 -9t-6.5 -9h67v-107h44v156h93v-156h44v107h83v-181q44 101 76 243l89 -13q-11 -57 -32 -127h193v-91h-30
q-22 -267 -97 -422q45 -84 130 -153l-44 -79q-86 65 -138 146q-60 -83 -147 -146l-33 59l-40 -15q-28 74 -59 135z" />
    <glyph glyph-name="uni5FBD.jp04" unicode="&#x5fbd;" unicode="&#xe0103;" 
d="M802 280q39 118 52 305h-103q-19 -50 -24 -61l33 5q15 -155 42 -249zM240 -25q47 71 76 154l79 -23q-28 -92 -76 -165zM517 110l78 30q27 -53 45 -98q67 54 110 124q-44 105 -68 267q-3 -6 -10 -18t-10 -18l-63 54h-122l35 -35q-49 -53 -110 -108q18 -20 26 -30
q68 59 150 146l59 -57q-63 -68 -143 -136q16 1 49 2.5t50 2.5q-4 9 -11.5 25t-10.5 23l71 29q44 -93 71 -164l-71 -31q-5 12 -15 38l-120 -6v-224h-95v219l-142 -8l-5 83l95 5q-45 53 -105 115l61 62q4 -5 14.5 -15t15.5 -16q36 33 82 80h-112v51q-40 -68 -90 -125v-458
h-103v368q-29 -33 -69 -64l-32 103q136 99 231 252l76 -44h303q7 14 13 29h-346v167q-93 -118 -228 -198l-37 88q126 81 211 193l86 -41q-2 -3 -6.5 -9t-6.5 -9h67v-107h44v156h93v-156h44v107h83v-181q44 101 76 243l89 -13q-11 -57 -32 -127h193v-91h-30
q-22 -267 -97 -422q45 -84 130 -153l-44 -79q-86 65 -138 146q-60 -83 -147 -146l-33 59l-40 -15q-28 74 -59 135z" />
    <glyph glyph-name="uni5FBD.jp04" unicode="&#x5fbd;" unicode="&#xe0101;" 
d="M802 280q39 118 52 305h-103q-19 -50 -24 -61l33 5q15 -155 42 -249zM240 -25q47 71 76 154l79 -23q-28 -92 -76 -165zM517 110l78 30q27 -53 45 -98q67 54 110 124q-44 105 -68 267q-3 -6 -10 -18t-10 -18l-63 54h-122l35 -35q-49 -53 -110 -108q18 -20 26 -30
q68 59 150 146l59 -57q-63 -68 -143 -136q16 1 49 2.5t50 2.5q-4 9 -11.5 25t-10.5 23l71 29q44 -93 71 -164l-71 -31q-5 12 -15 38l-120 -6v-224h-95v219l-142 -8l-5 83l95 5q-45 53 -105 115l61 62q4 -5 14.5 -15t15.5 -16q36 33 82 80h-112v51q-40 -68 -90 -125v-458
h-103v368q-29 -33 -69 -64l-32 103q136 99 231 252l76 -44h303q7 14 13 29h-346v167q-93 -118 -228 -198l-37 88q126 81 211 193l86 -41q-2 -3 -6.5 -9t-6.5 -9h67v-107h44v156h93v-156h44v107h83v-181q44 101 76 243l89 -13q-11 -57 -32 -127h193v-91h-30
q-22 -267 -97 -422q45 -84 130 -153l-44 -79q-86 65 -138 146q-60 -83 -147 -146l-33 59l-40 -15q-28 74 -59 135z" />
    <glyph glyph-name="uni6062.jp04" unicode="&#x6062;" unicode="&#xe0104;" 
d="M341 394l-47 -14q-22 83 -37 132v-249q52 60 84 131zM98 253l-78 15q34 171 49 340l78 -8q-16 -187 -49 -347zM314 656v89h95q1 31 3 66h100q-2 -35 -3 -66h434v-89h-440q-16 -167 -59.5 -276.5t-122.5 -198.5l-64 62v-324h-100v882h100v-197l45 13q30 -82 56 -179
q31 88 44 218h-88zM647 443v177h100v-177q0 -66 13 -134q57 109 83 249l93 -22q-27 -157 -88 -272l-86 38q40 -186 199 -292l-59 -86q-68 42 -122.5 118t-86.5 174q-46 -96 -124 -173t-174 -119l-57 86q309 148 309 433zM532 247l-88 37q55 118 76 265l90 -22
q-20 -158 -78 -280z" />
    <glyph glyph-name="uni6062.jp04" unicode="&#x6062;" unicode="&#xe0102;" 
d="M341 394l-47 -14q-22 83 -37 132v-249q52 60 84 131zM98 253l-78 15q34 171 49 340l78 -8q-16 -187 -49 -347zM314 656v89h95q1 31 3 66h100q-2 -35 -3 -66h434v-89h-440q-16 -167 -59.5 -276.5t-122.5 -198.5l-64 62v-324h-100v882h100v-197l45 13q30 -82 56 -179
q31 88 44 218h-88zM647 443v177h100v-177q0 -66 13 -134q57 109 83 249l93 -22q-27 -157 -88 -272l-86 38q40 -186 199 -292l-59 -86q-68 42 -122.5 118t-86.5 174q-46 -96 -124 -173t-174 -119l-57 86q309 148 309 433zM532 247l-88 37q55 118 76 265l90 -22
q-20 -158 -78 -280z" />
    <glyph glyph-name="uni6062.jp04" unicode="&#x6062;" unicode="&#xe0104;" 
d="M341 394l-47 -14q-22 83 -37 132v-249q52 60 84 131zM98 253l-78 15q34 171 49 340l78 -8q-16 -187 -49 -347zM314 656v89h95q1 31 3 66h100q-2 -35 -3 -66h434v-89h-440q-16 -167 -59.5 -276.5t-122.5 -198.5l-64 62v-324h-100v882h100v-197l45 13q30 -82 56 -179
q31 88 44 218h-88zM647 443v177h100v-177q0 -66 13 -134q57 109 83 249l93 -22q-27 -157 -88 -272l-86 38q40 -186 199 -292l-59 -86q-68 42 -122.5 118t-86.5 174q-46 -96 -124 -173t-174 -119l-57 86q309 148 309 433zM532 247l-88 37q55 118 76 265l90 -22
q-20 -158 -78 -280z" />
    <glyph glyph-name="uni6062.jp04" unicode="&#x6062;" unicode="&#xe0102;" 
d="M341 394l-47 -14q-22 83 -37 132v-249q52 60 84 131zM98 253l-78 15q34 171 49 340l78 -8q-16 -187 -49 -347zM314 656v89h95q1 31 3 66h100q-2 -35 -3 -66h434v-89h-440q-16 -167 -59.5 -276.5t-122.5 -198.5l-64 62v-324h-100v882h100v-197l45 13q30 -82 56 -179
q31 88 44 218h-88zM647 443v177h100v-177q0 -66 13 -134q57 109 83 249l93 -22q-27 -157 -88 -272l-86 38q40 -186 199 -292l-59 -86q-68 42 -122.5 118t-86.5 174q-46 -96 -124 -173t-174 -119l-57 86q309 148 309 433zM532 247l-88 37q55 118 76 265l90 -22
q-20 -158 -78 -280z" />
    <glyph glyph-name="uni6666.jp04" unicode="&#x6666;" unicode="&#xe0103;" 
d="M162 355v-265h64v265h-64zM162 438h64v238h-64v-238zM689 350q-71 55 -134 93l46 59h-92q-11 -106 -17 -152h197zM714 350h85q10 97 14 152h-188q73 -45 136 -95zM655 113q-71 55 -134 93l46 58h-87q-1 -7 -24 -151h199zM680 113h94q12 94 17 151h-200q69 -42 135 -95z
M336 264v86h55q13 105 17 144q-22 -30 -49 -62l-40 47v-472h-157v-59h-96v814h253v-222q94 119 145 282l97 -20q-9 -33 -21 -62h401v-86h-437q-16 -33 -37 -69h452q-9 -135 -19 -235h61v-86h-70q-9 -95 -16 -151h56v-84h-67q0 -5 -2 -16t-2 -16q-7 -51 -30 -69.5t-80 -18.5
q-38 0 -103 3l-5 83q50 -3 83 -3q24 0 29.5 5t9.5 32h-322q-2 -12 -6.5 -34.5l-6.5 -32.5l-100 7q27 127 51 295h-44z" />
    <glyph glyph-name="uni6666.jp04" unicode="&#x6666;" unicode="&#xe0101;" 
d="M162 355v-265h64v265h-64zM162 438h64v238h-64v-238zM689 350q-71 55 -134 93l46 59h-92q-11 -106 -17 -152h197zM714 350h85q10 97 14 152h-188q73 -45 136 -95zM655 113q-71 55 -134 93l46 58h-87q-1 -7 -24 -151h199zM680 113h94q12 94 17 151h-200q69 -42 135 -95z
M336 264v86h55q13 105 17 144q-22 -30 -49 -62l-40 47v-472h-157v-59h-96v814h253v-222q94 119 145 282l97 -20q-9 -33 -21 -62h401v-86h-437q-16 -33 -37 -69h452q-9 -135 -19 -235h61v-86h-70q-9 -95 -16 -151h56v-84h-67q0 -5 -2 -16t-2 -16q-7 -51 -30 -69.5t-80 -18.5
q-38 0 -103 3l-5 83q50 -3 83 -3q24 0 29.5 5t9.5 32h-322q-2 -12 -6.5 -34.5l-6.5 -32.5l-100 7q27 127 51 295h-44z" />
    <glyph glyph-name="uni6666.jp04" unicode="&#x6666;" unicode="&#xe0103;" 
d="M162 355v-265h64v265h-64zM162 438h64v238h-64v-238zM689 350q-71 55 -134 93l46 59h-92q-11 -106 -17 -152h197zM714 350h85q10 97 14 152h-188q73 -45 136 -95zM655 113q-71 55 -134 93l46 58h-87q-1 -7 -24 -151h199zM680 113h94q12 94 17 151h-200q69 -42 135 -95z
M336 264v86h55q13 105 17 144q-22 -30 -49 -62l-40 47v-472h-157v-59h-96v814h253v-222q94 119 145 282l97 -20q-9 -33 -21 -62h401v-86h-437q-16 -33 -37 -69h452q-9 -135 -19 -235h61v-86h-70q-9 -95 -16 -151h56v-84h-67q0 -5 -2 -16t-2 -16q-7 -51 -30 -69.5t-80 -18.5
q-38 0 -103 3l-5 83q50 -3 83 -3q24 0 29.5 5t9.5 32h-322q-2 -12 -6.5 -34.5l-6.5 -32.5l-100 7q27 127 51 295h-44z" />
    <glyph glyph-name="uni6666.jp04" unicode="&#x6666;" unicode="&#xe0101;" 
d="M162 355v-265h64v265h-64zM162 438h64v238h-64v-238zM689 350q-71 55 -134 93l46 59h-92q-11 -106 -17 -152h197zM714 350h85q10 97 14 152h-188q73 -45 136 -95zM655 113q-71 55 -134 93l46 58h-87q-1 -7 -24 -151h199zM680 113h94q12 94 17 151h-200q69 -42 135 -95z
M336 264v86h55q13 105 17 144q-22 -30 -49 -62l-40 47v-472h-157v-59h-96v814h253v-222q94 119 145 282l97 -20q-9 -33 -21 -62h401v-86h-437q-16 -33 -37 -69h452q-9 -135 -19 -235h61v-86h-70q-9 -95 -16 -151h56v-84h-67q0 -5 -2 -16t-2 -16q-7 -51 -30 -69.5t-80 -18.5
q-38 0 -103 3l-5 83q50 -3 83 -3q24 0 29.5 5t9.5 32h-322q-2 -12 -6.5 -34.5l-6.5 -32.5l-100 7q27 127 51 295h-44z" />
    <glyph glyph-name="uni6DEB.jp04" unicode="&#x6deb;" unicode="&#xe0103;" 
d="M79 721l60 72q92 -67 162 -133l-61 -73q-71 67 -161 134zM213 356q-82 77 -178 150l59 71q106 -77 180 -147zM301 260q-57 -186 -155 -332l-84 55q91 137 149 305zM466 666q-30 -128 -91 -240l-95 39q71 128 102 287q295 3 539 44l18 -86q-217 -38 -473 -44zM696 463
l-91 -29q-37 114 -78 193l91 29q38 -73 78 -193zM951 140h-265v-106h238v-86h-600v86h254v106h-276v88h276v86q-130 -10 -242 -13l-8 86q321 9 535 50q-48 133 -93 212l90 32q49 -88 96 -221l-50 -16l19 -84q-97 -21 -239 -36v-96h265v-88z" />
    <glyph glyph-name="uni6DEB.jp04" unicode="&#x6deb;" unicode="&#xe0101;" 
d="M79 721l60 72q92 -67 162 -133l-61 -73q-71 67 -161 134zM213 356q-82 77 -178 150l59 71q106 -77 180 -147zM301 260q-57 -186 -155 -332l-84 55q91 137 149 305zM466 666q-30 -128 -91 -240l-95 39q71 128 102 287q295 3 539 44l18 -86q-217 -38 -473 -44zM696 463
l-91 -29q-37 114 -78 193l91 29q38 -73 78 -193zM951 140h-265v-106h238v-86h-600v86h254v106h-276v88h276v86q-130 -10 -242 -13l-8 86q321 9 535 50q-48 133 -93 212l90 32q49 -88 96 -221l-50 -16l19 -84q-97 -21 -239 -36v-96h265v-88z" />
    <glyph glyph-name="uni6DEB.jp04" unicode="&#x6deb;" unicode="&#xe0103;" 
d="M79 721l60 72q92 -67 162 -133l-61 -73q-71 67 -161 134zM213 356q-82 77 -178 150l59 71q106 -77 180 -147zM301 260q-57 -186 -155 -332l-84 55q91 137 149 305zM466 666q-30 -128 -91 -240l-95 39q71 128 102 287q295 3 539 44l18 -86q-217 -38 -473 -44zM696 463
l-91 -29q-37 114 -78 193l91 29q38 -73 78 -193zM951 140h-265v-106h238v-86h-600v86h254v106h-276v88h276v86q-130 -10 -242 -13l-8 86q321 9 535 50q-48 133 -93 212l90 32q49 -88 96 -221l-50 -16l19 -84q-97 -21 -239 -36v-96h265v-88z" />
    <glyph glyph-name="uni6DEB.jp04" unicode="&#x6deb;" unicode="&#xe0101;" 
d="M79 721l60 72q92 -67 162 -133l-61 -73q-71 67 -161 134zM213 356q-82 77 -178 150l59 71q106 -77 180 -147zM301 260q-57 -186 -155 -332l-84 55q91 137 149 305zM466 666q-30 -128 -91 -240l-95 39q71 128 102 287q295 3 539 44l18 -86q-217 -38 -473 -44zM696 463
l-91 -29q-37 114 -78 193l91 29q38 -73 78 -193zM951 140h-265v-106h238v-86h-600v86h254v106h-276v88h276v86q-130 -10 -242 -13l-8 86q321 9 535 50q-48 133 -93 212l90 32q49 -88 96 -221l-50 -16l19 -84q-97 -21 -239 -36v-96h265v-88z" />
    <glyph glyph-name="uni6EA2.jp04" unicode="&#x6ea2;" unicode="&#xe0104;" 
d="M811 595q-51 44 -100 103h-210q-50 -62 -96 -103h406zM787 277q-40 37 -76 81h-210q-29 -37 -73 -81h359zM495 27v171h-59v-171h59zM640 27v171h-59v-171h59zM725 27h59v171h-59v-171zM81 721l60 72q87 -63 152 -123l-60 -73q-62 57 -152 124zM210 356q-82 77 -178 150
l60 71q101 -74 179 -147zM262 225q-43 -165 -122 -296l-86 54q73 125 118 277zM765 786q81 -106 203 -186l-56 -81q-56 38 -89 66v-71h-426v74q-37 -32 -88 -69l-56 81q109 70 183 167l64 -59v78h265zM882 27h71v-88h-700v88h85v173q-5 -3 -14.5 -10t-14.5 -11l-56 76
q110 71 183 166l64 -54v74h265q81 -106 203 -186l-56 -76q-5 3 -15 9.5t-15 10.5v-172z" />
    <glyph glyph-name="uni6EA2.jp04" unicode="&#x6ea2;" unicode="&#xe0101;" 
d="M811 595q-51 44 -100 103h-210q-50 -62 -96 -103h406zM787 277q-40 37 -76 81h-210q-29 -37 -73 -81h359zM495 27v171h-59v-171h59zM640 27v171h-59v-171h59zM725 27h59v171h-59v-171zM81 721l60 72q87 -63 152 -123l-60 -73q-62 57 -152 124zM210 356q-82 77 -178 150
l60 71q101 -74 179 -147zM262 225q-43 -165 -122 -296l-86 54q73 125 118 277zM765 786q81 -106 203 -186l-56 -81q-56 38 -89 66v-71h-426v74q-37 -32 -88 -69l-56 81q109 70 183 167l64 -59v78h265zM882 27h71v-88h-700v88h85v173q-5 -3 -14.5 -10t-14.5 -11l-56 76
q110 71 183 166l64 -54v74h265q81 -106 203 -186l-56 -76q-5 3 -15 9.5t-15 10.5v-172z" />
    <glyph glyph-name="uni6EA2.jp04" unicode="&#x6ea2;" unicode="&#xe0104;" 
d="M811 595q-51 44 -100 103h-210q-50 -62 -96 -103h406zM787 277q-40 37 -76 81h-210q-29 -37 -73 -81h359zM495 27v171h-59v-171h59zM640 27v171h-59v-171h59zM725 27h59v171h-59v-171zM81 721l60 72q87 -63 152 -123l-60 -73q-62 57 -152 124zM210 356q-82 77 -178 150
l60 71q101 -74 179 -147zM262 225q-43 -165 -122 -296l-86 54q73 125 118 277zM765 786q81 -106 203 -186l-56 -81q-56 38 -89 66v-71h-426v74q-37 -32 -88 -69l-56 81q109 70 183 167l64 -59v78h265zM882 27h71v-88h-700v88h85v173q-5 -3 -14.5 -10t-14.5 -11l-56 76
q110 71 183 166l64 -54v74h265q81 -106 203 -186l-56 -76q-5 3 -15 9.5t-15 10.5v-172z" />
    <glyph glyph-name="uni6EA2.jp04" unicode="&#x6ea2;" unicode="&#xe0101;" 
d="M811 595q-51 44 -100 103h-210q-50 -62 -96 -103h406zM787 277q-40 37 -76 81h-210q-29 -37 -73 -81h359zM495 27v171h-59v-171h59zM640 27v171h-59v-171h59zM725 27h59v171h-59v-171zM81 721l60 72q87 -63 152 -123l-60 -73q-62 57 -152 124zM210 356q-82 77 -178 150
l60 71q101 -74 179 -147zM262 225q-43 -165 -122 -296l-86 54q73 125 118 277zM765 786q81 -106 203 -186l-56 -81q-56 38 -89 66v-71h-426v74q-37 -32 -88 -69l-56 81q109 70 183 167l64 -59v78h265zM882 27h71v-88h-700v88h85v173q-5 -3 -14.5 -10t-14.5 -11l-56 76
q110 71 183 166l64 -54v74h265q81 -106 203 -186l-56 -76q-5 3 -15 9.5t-15 10.5v-172z" />
    <glyph glyph-name="uni7259.jp04" unicode="&#x7259;" unicode="&#xe0103;" 
d="M103 304q68 154 101 330l102 -12q-14 -84 -38 -169h386v228h-541v88h794v-88h-147v-228h186v-91h-186v-279q0 -101 -23 -124t-124 -23q-35 0 -172 5l-4 88q127 -5 156 -5q44 0 52.5 7.5t8.5 49.5v275q-237 -222 -550 -359l-52 83q268 112 479 282h-292q-13 -37 -35 -88z
" />
    <glyph glyph-name="uni7259.jp04" unicode="&#x7259;" unicode="&#xe0101;" 
d="M103 304q68 154 101 330l102 -12q-14 -84 -38 -169h386v228h-541v88h794v-88h-147v-228h186v-91h-186v-279q0 -101 -23 -124t-124 -23q-35 0 -172 5l-4 88q127 -5 156 -5q44 0 52.5 7.5t8.5 49.5v275q-237 -222 -550 -359l-52 83q268 112 479 282h-292q-13 -37 -35 -88z
" />
    <glyph glyph-name="uni7259.jp04" unicode="&#x7259;" unicode="&#xe0103;" 
d="M103 304q68 154 101 330l102 -12q-14 -84 -38 -169h386v228h-541v88h794v-88h-147v-228h186v-91h-186v-279q0 -101 -23 -124t-124 -23q-35 0 -172 5l-4 88q127 -5 156 -5q44 0 52.5 7.5t8.5 49.5v275q-237 -222 -550 -359l-52 83q268 112 479 282h-292q-13 -37 -35 -88z
" />
    <glyph glyph-name="uni7259.jp04" unicode="&#x7259;" unicode="&#xe0101;" 
d="M103 304q68 154 101 330l102 -12q-14 -84 -38 -169h386v228h-541v88h794v-88h-147v-228h186v-91h-186v-279q0 -101 -23 -124t-124 -23q-35 0 -172 5l-4 88q127 -5 156 -5q44 0 52.5 7.5t8.5 49.5v275q-237 -222 -550 -359l-52 83q268 112 479 282h-292q-13 -37 -35 -88z
" />
    <glyph glyph-name="uni7947.jp04" unicode="&#x7947;" unicode="&#xe0103;" 
d="M704 458q-3 67 -5 215q-52 -7 -111 -12v-203h116zM79 688v88h333v-88h-333zM216 492h-164v91h387v-91h-128v-573h-95v573zM140 -15l-88 17q39 185 39 422h88q0 -255 -39 -439zM863 59q14 0 31 159l81 -27q-10 -146 -38.5 -204t-76.5 -58q-121 0 -151 438h-121v-295
q56 19 125 48l10 -88q-166 -71 -328 -101l-7 79h-37v414h85v-394q8 2 24.5 6t24.5 6v700q230 14 429 59l20 -88q-77 -17 -140 -27q0 -94 6 -228h143v-91h-138q7 -100 18 -173t21 -104t19 -31z" />
    <glyph glyph-name="uni7947.jp04" unicode="&#x7947;" unicode="&#xe0101;" 
d="M704 458q-3 67 -5 215q-52 -7 -111 -12v-203h116zM79 688v88h333v-88h-333zM216 492h-164v91h387v-91h-128v-573h-95v573zM140 -15l-88 17q39 185 39 422h88q0 -255 -39 -439zM863 59q14 0 31 159l81 -27q-10 -146 -38.5 -204t-76.5 -58q-121 0 -151 438h-121v-295
q56 19 125 48l10 -88q-166 -71 -328 -101l-7 79h-37v414h85v-394q8 2 24.5 6t24.5 6v700q230 14 429 59l20 -88q-77 -17 -140 -27q0 -94 6 -228h143v-91h-138q7 -100 18 -173t21 -104t19 -31z" />
    <glyph glyph-name="uni7947.jp04" unicode="&#x7947;" unicode="&#xe0103;" 
d="M704 458q-3 67 -5 215q-52 -7 -111 -12v-203h116zM79 688v88h333v-88h-333zM216 492h-164v91h387v-91h-128v-573h-95v573zM140 -15l-88 17q39 185 39 422h88q0 -255 -39 -439zM863 59q14 0 31 159l81 -27q-10 -146 -38.5 -204t-76.5 -58q-121 0 -151 438h-121v-295
q56 19 125 48l10 -88q-166 -71 -328 -101l-7 79h-37v414h85v-394q8 2 24.5 6t24.5 6v700q230 14 429 59l20 -88q-77 -17 -140 -27q0 -94 6 -228h143v-91h-138q7 -100 18 -173t21 -104t19 -31z" />
    <glyph glyph-name="uni7947.jp04" unicode="&#x7947;" unicode="&#xe0101;" 
d="M704 458q-3 67 -5 215q-52 -7 -111 -12v-203h116zM79 688v88h333v-88h-333zM216 492h-164v91h387v-91h-128v-573h-95v573zM140 -15l-88 17q39 185 39 422h88q0 -255 -39 -439zM863 59q14 0 31 159l81 -27q-10 -146 -38.5 -204t-76.5 -58q-121 0 -151 438h-121v-295
q56 19 125 48l10 -88q-166 -71 -328 -101l-7 79h-37v414h85v-394q8 2 24.5 6t24.5 6v700q230 14 429 59l20 -88q-77 -17 -140 -27q0 -94 6 -228h143v-91h-138q7 -100 18 -173t21 -104t19 -31z" />
    <glyph glyph-name="uni7FEB.jp04" unicode="&#x7feb;" unicode="&#xe0103;" 
d="M174 115v-71h221v71h-221zM174 191h221v69h-221v-69zM559 681v91h370v-91h-370zM872 240l91 -7q-4 -219 -19.5 -258t-93.5 -39q-76 0 -95.5 18t-19.5 90v380h-48q-1 -199 -34 -312t-104 -188l-57 39h-318v-39h-100v419h145q2 8 5.5 23t5.5 21h-53v86q-49 -47 -116 -91
l-34 76q83 52 150 122v50q-45 -44 -116 -91l-34 76q60 37 111 83h-94v83h226v-353l58 -7l-26 59q65 43 122 102v48q-47 -46 -115 -91l-34 76q57 35 110 83h-93v83h225v-394h-93v89q-38 -36 -83 -68q-8 -38 -16 -65h168v-341q50 61 72.5 154.5t23.5 267.5h-52v90h411v-90
h-112v-360q0 -30 1.5 -35t10.5 -5q16 0 19.5 25t4.5 165v26z" />
    <glyph glyph-name="uni7FEB.jp04" unicode="&#x7feb;" unicode="&#xe0101;" 
d="M174 115v-71h221v71h-221zM174 191h221v69h-221v-69zM559 681v91h370v-91h-370zM872 240l91 -7q-4 -219 -19.5 -258t-93.5 -39q-76 0 -95.5 18t-19.5 90v380h-48q-1 -199 -34 -312t-104 -188l-57 39h-318v-39h-100v419h145q2 8 5.5 23t5.5 21h-53v86q-49 -47 -116 -91
l-34 76q83 52 150 122v50q-45 -44 -116 -91l-34 76q60 37 111 83h-94v83h226v-353l58 -7l-26 59q65 43 122 102v48q-47 -46 -115 -91l-34 76q57 35 110 83h-93v83h225v-394h-93v89q-38 -36 -83 -68q-8 -38 -16 -65h168v-341q50 61 72.5 154.5t23.5 267.5h-52v90h411v-90
h-112v-360q0 -30 1.5 -35t10.5 -5q16 0 19.5 25t4.5 165v26z" />
    <glyph glyph-name="uni7FEB.jp04" unicode="&#x7feb;" unicode="&#xe0103;" 
d="M174 115v-71h221v71h-221zM174 191h221v69h-221v-69zM559 681v91h370v-91h-370zM872 240l91 -7q-4 -219 -19.5 -258t-93.5 -39q-76 0 -95.5 18t-19.5 90v380h-48q-1 -199 -34 -312t-104 -188l-57 39h-318v-39h-100v419h145q2 8 5.5 23t5.5 21h-53v86q-49 -47 -116 -91
l-34 76q83 52 150 122v50q-45 -44 -116 -91l-34 76q60 37 111 83h-94v83h226v-353l58 -7l-26 59q65 43 122 102v48q-47 -46 -115 -91l-34 76q57 35 110 83h-93v83h225v-394h-93v89q-38 -36 -83 -68q-8 -38 -16 -65h168v-341q50 61 72.5 154.5t23.5 267.5h-52v90h411v-90
h-112v-360q0 -30 1.5 -35t10.5 -5q16 0 19.5 25t4.5 165v26z" />
    <glyph glyph-name="uni7FEB.jp04" unicode="&#x7feb;" unicode="&#xe0101;" 
d="M174 115v-71h221v71h-221zM174 191h221v69h-221v-69zM559 681v91h370v-91h-370zM872 240l91 -7q-4 -219 -19.5 -258t-93.5 -39q-76 0 -95.5 18t-19.5 90v380h-48q-1 -199 -34 -312t-104 -188l-57 39h-318v-39h-100v419h145q2 8 5.5 23t5.5 21h-53v86q-49 -47 -116 -91
l-34 76q83 52 150 122v50q-45 -44 -116 -91l-34 76q60 37 111 83h-94v83h226v-353l58 -7l-26 59q65 43 122 102v48q-47 -46 -115 -91l-34 76q57 35 110 83h-93v83h225v-394h-93v89q-38 -36 -83 -68q-8 -38 -16 -65h168v-341q50 61 72.5 154.5t23.5 267.5h-52v90h411v-90
h-112v-360q0 -30 1.5 -35t10.5 -5q16 0 19.5 25t4.5 165v26z" />
    <glyph glyph-name="uni7FF0.jp04" unicode="&#x7ff0;" unicode="&#xe0103;" 
d="M159 272h145v73h-145v-73zM159 196h-95v367h118v69h-140v83h140v91h95v-91h125v-83h-125v-69h115v-367h-115v-69h132v-83h-132v-130h-95v130h-140v83h140v69h-23zM841 492v5h-143v81h139q-82 68 -151 146q-72 -81 -150 -146h143v-211q92 53 162 125zM841 267v112
q-60 -53 -125 -93l-37 64v-209q90 52 162 126zM304 419v68h-145v-68h145zM458 61l-44 76q97 57 169 130v112q-60 -53 -125 -93l-44 76q97 57 169 130v5h-112v30q-22 -17 -49 -34l-25 94q136 94 245 214h88q109 -120 245 -214l-24 -94q-3 1 -8 4.5t-7 5.5v-466q0 -72 -14 -89
t-74 -17q-25 0 -103 5l-2 86q58 -5 78 -5q14 0 17 4t3 28v104q-56 -50 -125 -92l-37 63v-87q0 -72 -14 -89t-74 -17q-25 0 -103 5l-3 86q58 -5 79 -5q14 0 16.5 4t2.5 28v104q-56 -50 -125 -92z" />
    <glyph glyph-name="uni7FF0.jp04" unicode="&#x7ff0;" unicode="&#xe0101;" 
d="M159 272h145v73h-145v-73zM159 196h-95v367h118v69h-140v83h140v91h95v-91h125v-83h-125v-69h115v-367h-115v-69h132v-83h-132v-130h-95v130h-140v83h140v69h-23zM841 492v5h-143v81h139q-82 68 -151 146q-72 -81 -150 -146h143v-211q92 53 162 125zM841 267v112
q-60 -53 -125 -93l-37 64v-209q90 52 162 126zM304 419v68h-145v-68h145zM458 61l-44 76q97 57 169 130v112q-60 -53 -125 -93l-44 76q97 57 169 130v5h-112v30q-22 -17 -49 -34l-25 94q136 94 245 214h88q109 -120 245 -214l-24 -94q-3 1 -8 4.5t-7 5.5v-466q0 -72 -14 -89
t-74 -17q-25 0 -103 5l-2 86q58 -5 78 -5q14 0 17 4t3 28v104q-56 -50 -125 -92l-37 63v-87q0 -72 -14 -89t-74 -17q-25 0 -103 5l-3 86q58 -5 79 -5q14 0 16.5 4t2.5 28v104q-56 -50 -125 -92z" />
    <glyph glyph-name="uni7FF0.jp04" unicode="&#x7ff0;" unicode="&#xe0103;" 
d="M159 272h145v73h-145v-73zM159 196h-95v367h118v69h-140v83h140v91h95v-91h125v-83h-125v-69h115v-367h-115v-69h132v-83h-132v-130h-95v130h-140v83h140v69h-23zM841 492v5h-143v81h139q-82 68 -151 146q-72 -81 -150 -146h143v-211q92 53 162 125zM841 267v112
q-60 -53 -125 -93l-37 64v-209q90 52 162 126zM304 419v68h-145v-68h145zM458 61l-44 76q97 57 169 130v112q-60 -53 -125 -93l-44 76q97 57 169 130v5h-112v30q-22 -17 -49 -34l-25 94q136 94 245 214h88q109 -120 245 -214l-24 -94q-3 1 -8 4.5t-7 5.5v-466q0 -72 -14 -89
t-74 -17q-25 0 -103 5l-2 86q58 -5 78 -5q14 0 17 4t3 28v104q-56 -50 -125 -92l-37 63v-87q0 -72 -14 -89t-74 -17q-25 0 -103 5l-3 86q58 -5 79 -5q14 0 16.5 4t2.5 28v104q-56 -50 -125 -92z" />
    <glyph glyph-name="uni7FF0.jp04" unicode="&#x7ff0;" unicode="&#xe0101;" 
d="M159 272h145v73h-145v-73zM159 196h-95v367h118v69h-140v83h140v91h95v-91h125v-83h-125v-69h115v-367h-115v-69h132v-83h-132v-130h-95v130h-140v83h140v69h-23zM841 492v5h-143v81h139q-82 68 -151 146q-72 -81 -150 -146h143v-211q92 53 162 125zM841 267v112
q-60 -53 -125 -93l-37 64v-209q90 52 162 126zM304 419v68h-145v-68h145zM458 61l-44 76q97 57 169 130v112q-60 -53 -125 -93l-44 76q97 57 169 130v5h-112v30q-22 -17 -49 -34l-25 94q136 94 245 214h88q109 -120 245 -214l-24 -94q-3 1 -8 4.5t-7 5.5v-466q0 -72 -14 -89
t-74 -17q-25 0 -103 5l-2 86q58 -5 78 -5q14 0 17 4t3 28v104q-56 -50 -125 -92l-37 63v-87q0 -72 -14 -89t-74 -17q-25 0 -103 5l-3 86q58 -5 79 -5q14 0 16.5 4t2.5 28v104q-56 -50 -125 -92z" />
    <glyph glyph-name="uni82A6.jp04" unicode="&#x82a6;" unicode="&#xe0103;" 
d="M263 211h499v129h-497v-66q0 -23 -2 -63zM743 735h193v-88h-193v-42h-103v42h-280v-52h-103v52h-193v88h193v76h103v-76h280v76h103v-76zM265 482v-61h603v-345h-106v49h-509q-24 -130 -106 -216l-88 61q55 63 76.5 136.5t21.5 209.5v247q433 0 725 40l27 -81
q-277 -40 -644 -40z" />
    <glyph glyph-name="uni82A6.jp04" unicode="&#x82a6;" unicode="&#xe0101;" 
d="M263 211h499v129h-497v-66q0 -23 -2 -63zM743 735h193v-88h-193v-42h-103v42h-280v-52h-103v52h-193v88h193v76h103v-76h280v76h103v-76zM265 482v-61h603v-345h-106v49h-509q-24 -130 -106 -216l-88 61q55 63 76.5 136.5t21.5 209.5v247q433 0 725 40l27 -81
q-277 -40 -644 -40z" />
    <glyph glyph-name="uni82A6.jp04" unicode="&#x82a6;" unicode="&#xe0103;" 
d="M263 211h499v129h-497v-66q0 -23 -2 -63zM743 735h193v-88h-193v-42h-103v42h-280v-52h-103v52h-193v88h193v76h103v-76h280v76h103v-76zM265 482v-61h603v-345h-106v49h-509q-24 -130 -106 -216l-88 61q55 63 76.5 136.5t21.5 209.5v247q433 0 725 40l27 -81
q-277 -40 -644 -40z" />
    <glyph glyph-name="uni82A6.jp04" unicode="&#x82a6;" unicode="&#xe0101;" 
d="M263 211h499v129h-497v-66q0 -23 -2 -63zM743 735h193v-88h-193v-42h-103v42h-280v-52h-103v52h-193v88h193v76h103v-76h280v76h103v-76zM265 482v-61h603v-345h-106v49h-509q-24 -130 -106 -216l-88 61q55 63 76.5 136.5t21.5 209.5v247q433 0 725 40l27 -81
q-277 -40 -644 -40z" />
    <glyph glyph-name="uni8328.jp04" unicode="&#x8328;" unicode="&#xe0103;" 
d="M821 426h-325q-56 -108 -128 -181l-88 59q120 122 173 291l103 -15q-7 -29 -23 -71h398v-83q-47 -116 -137 -206l-86 57q72 69 113 149zM64 728h191v88h103v-88h284v88h103v-88h191v-89h-191v-78h-103v78h-284v-78h-103v78h-191v89zM64 421v88h260v-88h-260zM39 68
q138 87 228 184l74 -68q-95 -105 -240 -199zM240 10q139 39 221.5 119.5t82.5 174.5v83h108v-83q0 -94 81.5 -173t227.5 -119l-45 -93q-104 31 -186.5 90.5t-129.5 134.5q-48 -75 -131.5 -135.5t-184.5 -89.5z" />
    <glyph glyph-name="uni8328.jp04" unicode="&#x8328;" unicode="&#xe0101;" 
d="M821 426h-325q-56 -108 -128 -181l-88 59q120 122 173 291l103 -15q-7 -29 -23 -71h398v-83q-47 -116 -137 -206l-86 57q72 69 113 149zM64 728h191v88h103v-88h284v88h103v-88h191v-89h-191v-78h-103v78h-284v-78h-103v78h-191v89zM64 421v88h260v-88h-260zM39 68
q138 87 228 184l74 -68q-95 -105 -240 -199zM240 10q139 39 221.5 119.5t82.5 174.5v83h108v-83q0 -94 81.5 -173t227.5 -119l-45 -93q-104 31 -186.5 90.5t-129.5 134.5q-48 -75 -131.5 -135.5t-184.5 -89.5z" />
    <glyph glyph-name="uni8328.jp04" unicode="&#x8328;" unicode="&#xe0103;" 
d="M821 426h-325q-56 -108 -128 -181l-88 59q120 122 173 291l103 -15q-7 -29 -23 -71h398v-83q-47 -116 -137 -206l-86 57q72 69 113 149zM64 728h191v88h103v-88h284v88h103v-88h191v-89h-191v-78h-103v78h-284v-78h-103v78h-191v89zM64 421v88h260v-88h-260zM39 68
q138 87 228 184l74 -68q-95 -105 -240 -199zM240 10q139 39 221.5 119.5t82.5 174.5v83h108v-83q0 -94 81.5 -173t227.5 -119l-45 -93q-104 31 -186.5 90.5t-129.5 134.5q-48 -75 -131.5 -135.5t-184.5 -89.5z" />
    <glyph glyph-name="uni8328.jp04" unicode="&#x8328;" unicode="&#xe0101;" 
d="M821 426h-325q-56 -108 -128 -181l-88 59q120 122 173 291l103 -15q-7 -29 -23 -71h398v-83q-47 -116 -137 -206l-86 57q72 69 113 149zM64 728h191v88h103v-88h284v88h103v-88h191v-89h-191v-78h-103v78h-284v-78h-103v78h-191v89zM64 421v88h260v-88h-260zM39 68
q138 87 228 184l74 -68q-95 -105 -240 -199zM240 10q139 39 221.5 119.5t82.5 174.5v83h108v-83q0 -94 81.5 -173t227.5 -119l-45 -93q-104 31 -186.5 90.5t-129.5 134.5q-48 -75 -131.5 -135.5t-184.5 -89.5z" />
    <glyph glyph-name="uni845B.jp04" unicode="&#x845b;" unicode="&#xe0103;" 
d="M257 465v-44h486v44h-486zM257 527h486v44h-486v-44zM599 -8h-344v-41h-103v193q-50 -31 -86 -49l-44 89q133 63 240 166h-5h-105v289h123v35h-211v83h211v64h103v-64h244v64h103v-64h211v-83h-211v-35h123v-289h-459q-11 -15 -36 -41h576q0 -164 -17.5 -249t-51 -114
t-98.5 -29q-74 0 -159 4zM309 71l-42 59q108 44 164 103h-159q-46 -39 -55 -45h38v-117h54zM461 148q-54 -45 -130 -77h304q-81 45 -174 77zM378 639h244v35h-244v-35zM725 2q34 0 52 16.5t29.5 66.5t14.5 148h-285q-3 -7 -15 -23q97 -35 185 -85l-40 -54h52v-69h7z" />
    <glyph glyph-name="uni845B.jp04" unicode="&#x845b;" unicode="&#xe0101;" 
d="M257 465v-44h486v44h-486zM257 527h486v44h-486v-44zM599 -8h-344v-41h-103v193q-50 -31 -86 -49l-44 89q133 63 240 166h-5h-105v289h123v35h-211v83h211v64h103v-64h244v64h103v-64h211v-83h-211v-35h123v-289h-459q-11 -15 -36 -41h576q0 -164 -17.5 -249t-51 -114
t-98.5 -29q-74 0 -159 4zM309 71l-42 59q108 44 164 103h-159q-46 -39 -55 -45h38v-117h54zM461 148q-54 -45 -130 -77h304q-81 45 -174 77zM378 639h244v35h-244v-35zM725 2q34 0 52 16.5t29.5 66.5t14.5 148h-285q-3 -7 -15 -23q97 -35 185 -85l-40 -54h52v-69h7z" />
    <glyph glyph-name="uni845B.jp04" unicode="&#x845b;" unicode="&#xe0103;" 
d="M257 465v-44h486v44h-486zM257 527h486v44h-486v-44zM599 -8h-344v-41h-103v193q-50 -31 -86 -49l-44 89q133 63 240 166h-5h-105v289h123v35h-211v83h211v64h103v-64h244v64h103v-64h211v-83h-211v-35h123v-289h-459q-11 -15 -36 -41h576q0 -164 -17.5 -249t-51 -114
t-98.5 -29q-74 0 -159 4zM309 71l-42 59q108 44 164 103h-159q-46 -39 -55 -45h38v-117h54zM461 148q-54 -45 -130 -77h304q-81 45 -174 77zM378 639h244v35h-244v-35zM725 2q34 0 52 16.5t29.5 66.5t14.5 148h-285q-3 -7 -15 -23q97 -35 185 -85l-40 -54h52v-69h7z" />
    <glyph glyph-name="uni845B.jp04" unicode="&#x845b;" unicode="&#xe0101;" 
d="M257 465v-44h486v44h-486zM257 527h486v44h-486v-44zM599 -8h-344v-41h-103v193q-50 -31 -86 -49l-44 89q133 63 240 166h-5h-105v289h123v35h-211v83h211v64h103v-64h244v64h103v-64h211v-83h-211v-35h123v-289h-459q-11 -15 -36 -41h576q0 -164 -17.5 -249t-51 -114
t-98.5 -29q-74 0 -159 4zM309 71l-42 59q108 44 164 103h-159q-46 -39 -55 -45h38v-117h54zM461 148q-54 -45 -130 -77h304q-81 45 -174 77zM378 639h244v35h-244v-35zM725 2q34 0 52 16.5t29.5 66.5t14.5 148h-285q-3 -7 -15 -23q97 -35 185 -85l-40 -54h52v-69h7z" />
    <glyph glyph-name="uni8956.jp04" unicode="&#x8956;" unicode="&#xe0103;" 
d="M533 456q-28 40 -55 68l54 31q-5 -1 -15 -1h-15l-7 73q162 9 294 34h-318v-386q62 50 104 107h-87v74h45zM563 456h50v106q-11 -1 -33.5 -3t-33.5 -3q31 -34 59 -76zM746 456l-43 24q33 47 56 102q-8 -1 -29.5 -4.5t-33.5 -5.5v-116h50zM931 230h-93v32l-46 -51
q-52 69 -98 123v-65h-79v54q-43 -63 -103 -112l-41 50v-31h-93v141q-21 -36 -58 -88q28 -35 47 -59l-53 -80q-33 45 -71 91v-316h-101v321q-42 -48 -89 -85l-29 109q145 117 219 297h-201v93h100v147h101v-147h103v-93q-38 -103 -100 -191q16 -18 22 -26q36 50 64 107
l46 -23v317h183q19 46 32 85l105 -12q-16 -45 -28 -73h261v-515zM600 247h108v-51h245v-81h-215q65 -84 220 -113l-27 -88q-88 18 -160.5 61t-115.5 99q-49 -56 -132 -99t-185 -61l-27 88q181 30 255 113h-211v81h245v51zM821 456v-74h-83q48 -45 100 -109v388h-36l14 -68
q-5 -1 -16.5 -3.5t-17.5 -3.5l49 -25q-21 -53 -56 -105h46z" />
    <glyph glyph-name="uni8956.jp04" unicode="&#x8956;" unicode="&#xe0101;" 
d="M533 456q-28 40 -55 68l54 31q-5 -1 -15 -1h-15l-7 73q162 9 294 34h-318v-386q62 50 104 107h-87v74h45zM563 456h50v106q-11 -1 -33.5 -3t-33.5 -3q31 -34 59 -76zM746 456l-43 24q33 47 56 102q-8 -1 -29.5 -4.5t-33.5 -5.5v-116h50zM931 230h-93v32l-46 -51
q-52 69 -98 123v-65h-79v54q-43 -63 -103 -112l-41 50v-31h-93v141q-21 -36 -58 -88q28 -35 47 -59l-53 -80q-33 45 -71 91v-316h-101v321q-42 -48 -89 -85l-29 109q145 117 219 297h-201v93h100v147h101v-147h103v-93q-38 -103 -100 -191q16 -18 22 -26q36 50 64 107
l46 -23v317h183q19 46 32 85l105 -12q-16 -45 -28 -73h261v-515zM600 247h108v-51h245v-81h-215q65 -84 220 -113l-27 -88q-88 18 -160.5 61t-115.5 99q-49 -56 -132 -99t-185 -61l-27 88q181 30 255 113h-211v81h245v51zM821 456v-74h-83q48 -45 100 -109v388h-36l14 -68
q-5 -1 -16.5 -3.5t-17.5 -3.5l49 -25q-21 -53 -56 -105h46z" />
    <glyph glyph-name="uni8956.jp04" unicode="&#x8956;" unicode="&#xe0103;" 
d="M533 456q-28 40 -55 68l54 31q-5 -1 -15 -1h-15l-7 73q162 9 294 34h-318v-386q62 50 104 107h-87v74h45zM563 456h50v106q-11 -1 -33.5 -3t-33.5 -3q31 -34 59 -76zM746 456l-43 24q33 47 56 102q-8 -1 -29.5 -4.5t-33.5 -5.5v-116h50zM931 230h-93v32l-46 -51
q-52 69 -98 123v-65h-79v54q-43 -63 -103 -112l-41 50v-31h-93v141q-21 -36 -58 -88q28 -35 47 -59l-53 -80q-33 45 -71 91v-316h-101v321q-42 -48 -89 -85l-29 109q145 117 219 297h-201v93h100v147h101v-147h103v-93q-38 -103 -100 -191q16 -18 22 -26q36 50 64 107
l46 -23v317h183q19 46 32 85l105 -12q-16 -45 -28 -73h261v-515zM600 247h108v-51h245v-81h-215q65 -84 220 -113l-27 -88q-88 18 -160.5 61t-115.5 99q-49 -56 -132 -99t-185 -61l-27 88q181 30 255 113h-211v81h245v51zM821 456v-74h-83q48 -45 100 -109v388h-36l14 -68
q-5 -1 -16.5 -3.5t-17.5 -3.5l49 -25q-21 -53 -56 -105h46z" />
    <glyph glyph-name="uni8956.jp04" unicode="&#x8956;" unicode="&#xe0101;" 
d="M533 456q-28 40 -55 68l54 31q-5 -1 -15 -1h-15l-7 73q162 9 294 34h-318v-386q62 50 104 107h-87v74h45zM563 456h50v106q-11 -1 -33.5 -3t-33.5 -3q31 -34 59 -76zM746 456l-43 24q33 47 56 102q-8 -1 -29.5 -4.5t-33.5 -5.5v-116h50zM931 230h-93v32l-46 -51
q-52 69 -98 123v-65h-79v54q-43 -63 -103 -112l-41 50v-31h-93v141q-21 -36 -58 -88q28 -35 47 -59l-53 -80q-33 45 -71 91v-316h-101v321q-42 -48 -89 -85l-29 109q145 117 219 297h-201v93h100v147h101v-147h103v-93q-38 -103 -100 -191q16 -18 22 -26q36 50 64 107
l46 -23v317h183q19 46 32 85l105 -12q-16 -45 -28 -73h261v-515zM600 247h108v-51h245v-81h-215q65 -84 220 -113l-27 -88q-88 18 -160.5 61t-115.5 99q-49 -56 -132 -99t-185 -61l-27 88q181 30 255 113h-211v81h245v51zM821 456v-74h-83q48 -45 100 -109v388h-36l14 -68
q-5 -1 -16.5 -3.5t-17.5 -3.5l49 -25q-21 -53 -56 -105h46z" />
    <glyph glyph-name="uni8FC2.jp04" unicode="&#x8fc2;" unicode="&#xe0103;" 
d="M936 519v-90h-208v-222q0 -77 -18 -95.5t-95 -18.5q-44 0 -149 5l-5 88q97 -5 122 -5q28 0 32.5 6t4.5 41v201h-292v90h292v169h-282v88h574v-88h-184v-169h208zM309 659l-66 -66q-83 71 -177 142l69 64q99 -75 174 -140zM309 448l-66 -66q-83 71 -177 142l69 64
q99 -75 174 -140zM59 331h221v-200q25 -44 60.5 -65.5t109.5 -31.5t212 -10h277l-5 -88h-277q-185 0 -279 22.5t-140 78.5q-58 -58 -144 -117l-48 86q78 52 133 104v132h-120v89z" />
    <glyph glyph-name="uni8FC2.jp04" unicode="&#x8fc2;" unicode="&#xe0101;" 
d="M936 519v-90h-208v-222q0 -77 -18 -95.5t-95 -18.5q-44 0 -149 5l-5 88q97 -5 122 -5q28 0 32.5 6t4.5 41v201h-292v90h292v169h-282v88h574v-88h-184v-169h208zM309 659l-66 -66q-83 71 -177 142l69 64q99 -75 174 -140zM309 448l-66 -66q-83 71 -177 142l69 64
q99 -75 174 -140zM59 331h221v-200q25 -44 60.5 -65.5t109.5 -31.5t212 -10h277l-5 -88h-277q-185 0 -279 22.5t-140 78.5q-58 -58 -144 -117l-48 86q78 52 133 104v132h-120v89z" />
    <glyph glyph-name="uni8FC2.jp04" unicode="&#x8fc2;" unicode="&#xe0103;" 
d="M936 519v-90h-208v-222q0 -77 -18 -95.5t-95 -18.5q-44 0 -149 5l-5 88q97 -5 122 -5q28 0 32.5 6t4.5 41v201h-292v90h292v169h-282v88h574v-88h-184v-169h208zM309 659l-66 -66q-83 71 -177 142l69 64q99 -75 174 -140zM309 448l-66 -66q-83 71 -177 142l69 64
q99 -75 174 -140zM59 331h221v-200q25 -44 60.5 -65.5t109.5 -31.5t212 -10h277l-5 -88h-277q-185 0 -279 22.5t-140 78.5q-58 -58 -144 -117l-48 86q78 52 133 104v132h-120v89z" />
    <glyph glyph-name="uni8FC2.jp04" unicode="&#x8fc2;" unicode="&#xe0101;" 
d="M936 519v-90h-208v-222q0 -77 -18 -95.5t-95 -18.5q-44 0 -149 5l-5 88q97 -5 122 -5q28 0 32.5 6t4.5 41v201h-292v90h292v169h-282v88h574v-88h-184v-169h208zM309 659l-66 -66q-83 71 -177 142l69 64q99 -75 174 -140zM309 448l-66 -66q-83 71 -177 142l69 64
q99 -75 174 -140zM59 331h221v-200q25 -44 60.5 -65.5t109.5 -31.5t212 -10h277l-5 -88h-277q-185 0 -279 22.5t-140 78.5q-58 -58 -144 -117l-48 86q78 52 133 104v132h-120v89z" />
    <glyph glyph-name="uni8FE6.jp04" unicode="&#x8fe6;" unicode="&#xe0103;" 
d="M752 100h-93v652h275v-652h-182zM752 188h86v476h-86v-476zM524 563v42h-68q-7 -210 -32 -320t-81 -197l-71 78q43 76 62.5 169t25.5 270h-73v56l-59 -63q-89 75 -169 134l66 67q83 -61 162 -129v23h75q0 17 0.5 54.5t0.5 58.5h95v-113h162v-78q0 -185 -4 -287.5
t-16 -156t-27.5 -66t-45.5 -12.5q-46 0 -115 10l-5 88q45 -10 71 -10q17 0 26 23.5t14.5 108t5.5 250.5zM299 448l-64 -68q-89 77 -176 142l66 66q99 -75 174 -140zM52 331h210v-200q25 -44 61 -65.5t110 -31.5t212 -10h298l-4 -88h-299q-180 0 -274 21.5t-141 74.5
q-56 -55 -139 -112l-47 86q69 46 123 95v141h-110v89z" />
    <glyph glyph-name="uni8FE6.jp04" unicode="&#x8fe6;" unicode="&#xe0101;" 
d="M752 100h-93v652h275v-652h-182zM752 188h86v476h-86v-476zM524 563v42h-68q-7 -210 -32 -320t-81 -197l-71 78q43 76 62.5 169t25.5 270h-73v56l-59 -63q-89 75 -169 134l66 67q83 -61 162 -129v23h75q0 17 0.5 54.5t0.5 58.5h95v-113h162v-78q0 -185 -4 -287.5
t-16 -156t-27.5 -66t-45.5 -12.5q-46 0 -115 10l-5 88q45 -10 71 -10q17 0 26 23.5t14.5 108t5.5 250.5zM299 448l-64 -68q-89 77 -176 142l66 66q99 -75 174 -140zM52 331h210v-200q25 -44 61 -65.5t110 -31.5t212 -10h298l-4 -88h-299q-180 0 -274 21.5t-141 74.5
q-56 -55 -139 -112l-47 86q69 46 123 95v141h-110v89z" />
    <glyph glyph-name="uni8FE6.jp04" unicode="&#x8fe6;" unicode="&#xe0103;" 
d="M752 100h-93v652h275v-652h-182zM752 188h86v476h-86v-476zM524 563v42h-68q-7 -210 -32 -320t-81 -197l-71 78q43 76 62.5 169t25.5 270h-73v56l-59 -63q-89 75 -169 134l66 67q83 -61 162 -129v23h75q0 17 0.5 54.5t0.5 58.5h95v-113h162v-78q0 -185 -4 -287.5
t-16 -156t-27.5 -66t-45.5 -12.5q-46 0 -115 10l-5 88q45 -10 71 -10q17 0 26 23.5t14.5 108t5.5 250.5zM299 448l-64 -68q-89 77 -176 142l66 66q99 -75 174 -140zM52 331h210v-200q25 -44 61 -65.5t110 -31.5t212 -10h298l-4 -88h-299q-180 0 -274 21.5t-141 74.5
q-56 -55 -139 -112l-47 86q69 46 123 95v141h-110v89z" />
    <glyph glyph-name="uni8FE6.jp04" unicode="&#x8fe6;" unicode="&#xe0101;" 
d="M752 100h-93v652h275v-652h-182zM752 188h86v476h-86v-476zM524 563v42h-68q-7 -210 -32 -320t-81 -197l-71 78q43 76 62.5 169t25.5 270h-73v56l-59 -63q-89 75 -169 134l66 67q83 -61 162 -129v23h75q0 17 0.5 54.5t0.5 58.5h95v-113h162v-78q0 -185 -4 -287.5
t-16 -156t-27.5 -66t-45.5 -12.5q-46 0 -115 10l-5 88q45 -10 71 -10q17 0 26 23.5t14.5 108t5.5 250.5zM299 448l-64 -68q-89 77 -176 142l66 66q99 -75 174 -140zM52 331h210v-200q25 -44 61 -65.5t110 -31.5t212 -10h298l-4 -88h-299q-180 0 -274 21.5t-141 74.5
q-56 -55 -139 -112l-47 86q69 46 123 95v141h-110v89z" />
    <glyph glyph-name="uni9022.jp04" unicode="&#x9022;" unicode="&#xe0104;" 
d="M639 608q82 39 136 80h-259q55 -44 123 -80zM737 565q98 -37 221 -63l-24 -78q-174 38 -296 93q-136 -58 -324 -93l-9 20l-62 -62q-83 71 -177 142l69 64q84 -63 165 -132l-20 46q145 26 260 66q-50 31 -96 68q-54 -40 -96 -63l-54 71l-51 -51q-83 71 -177 142l69 64
q85 -64 173 -139q117 69 197 161l100 -20q-23 -31 -25 -34h322v-79q-71 -71 -165 -123zM59 331h221v-202q33 -58 91.5 -80t206.5 -26v70h-264v81h264v46h-218v71h218v45h-242v78h242v64h108v-64h230v-78h-230v-45h206v-71h-206v-46h248v-81h-248v-71h253l-5 -86h-277
q-185 0 -279 22.5t-140 78.5q-58 -58 -144 -117l-48 86q78 52 133 104v132h-120v89z" />
    <glyph glyph-name="uni9022.jp04" unicode="&#x9022;" unicode="&#xe0101;" 
d="M639 608q82 39 136 80h-259q55 -44 123 -80zM737 565q98 -37 221 -63l-24 -78q-174 38 -296 93q-136 -58 -324 -93l-9 20l-62 -62q-83 71 -177 142l69 64q84 -63 165 -132l-20 46q145 26 260 66q-50 31 -96 68q-54 -40 -96 -63l-54 71l-51 -51q-83 71 -177 142l69 64
q85 -64 173 -139q117 69 197 161l100 -20q-23 -31 -25 -34h322v-79q-71 -71 -165 -123zM59 331h221v-202q33 -58 91.5 -80t206.5 -26v70h-264v81h264v46h-218v71h218v45h-242v78h242v64h108v-64h230v-78h-230v-45h206v-71h-206v-46h248v-81h-248v-71h253l-5 -86h-277
q-185 0 -279 22.5t-140 78.5q-58 -58 -144 -117l-48 86q78 52 133 104v132h-120v89z" />
    <glyph glyph-name="uni9022.jp04" unicode="&#x9022;" unicode="&#xe0104;" 
d="M639 608q82 39 136 80h-259q55 -44 123 -80zM737 565q98 -37 221 -63l-24 -78q-174 38 -296 93q-136 -58 -324 -93l-9 20l-62 -62q-83 71 -177 142l69 64q84 -63 165 -132l-20 46q145 26 260 66q-50 31 -96 68q-54 -40 -96 -63l-54 71l-51 -51q-83 71 -177 142l69 64
q85 -64 173 -139q117 69 197 161l100 -20q-23 -31 -25 -34h322v-79q-71 -71 -165 -123zM59 331h221v-202q33 -58 91.5 -80t206.5 -26v70h-264v81h264v46h-218v71h218v45h-242v78h242v64h108v-64h230v-78h-230v-45h206v-71h-206v-46h248v-81h-248v-71h253l-5 -86h-277
q-185 0 -279 22.5t-140 78.5q-58 -58 -144 -117l-48 86q78 52 133 104v132h-120v89z" />
    <glyph glyph-name="uni9022.jp04" unicode="&#x9022;" unicode="&#xe0101;" 
d="M639 608q82 39 136 80h-259q55 -44 123 -80zM737 565q98 -37 221 -63l-24 -78q-174 38 -296 93q-136 -58 -324 -93l-9 20l-62 -62q-83 71 -177 142l69 64q84 -63 165 -132l-20 46q145 26 260 66q-50 31 -96 68q-54 -40 -96 -63l-54 71l-51 -51q-83 71 -177 142l69 64
q85 -64 173 -139q117 69 197 161l100 -20q-23 -31 -25 -34h322v-79q-71 -71 -165 -123zM59 331h221v-202q33 -58 91.5 -80t206.5 -26v70h-264v81h264v46h-218v71h218v45h-242v78h242v64h108v-64h230v-78h-230v-45h206v-71h-206v-46h248v-81h-248v-71h253l-5 -86h-277
q-185 0 -279 22.5t-140 78.5q-58 -58 -144 -117l-48 86q78 52 133 104v132h-120v89z" />
    <glyph glyph-name="uni9784.jp04" unicode="&#x9784;" unicode="&#xe0103;" 
d="M365 269v103h-61v-103h61zM159 269h62v103h-62v-103zM201 639v-59h123v59h-123zM608 566h186v-289h10q11 0 17 20t12.5 101.5t11.5 243.5h-220q-18 -52 -28 -76h11zM608 480v-140h88v140h-88zM414 505h-100v-52h137v-265h-86h-51v-63h159v-83h-159v-123h-103v123h-169v83
h169v63h-52h-88v265h140v52h-103v134h-64v84h64v73h93v-73h123v73h90v-73h64v-84h-64v-134zM439 475q41 59 78 156t57 202l98 -12q-10 -49 -21 -91h295q-6 -276 -18 -389.5t-36 -140.5l81 -21q-4 -51 -7 -81t-10 -60.5t-13.5 -46t-22 -30.5t-30 -20.5t-44 -10.5t-57 -5.5
t-75.5 -0.5q-56 0 -84.5 1t-56 7.5t-38 15t-19.5 30t-10 45t-1 67.5v330zM608 252v-162v-32.5t5 -20.5t8.5 -13.5t21 -5.5t30.5 -3h49h45.5t33.5 3t26 5.5t16.5 13.5t12.5 20t6.5 31.5t5.5 42t3 57.5q-10 -2 -16 -2q-56 0 -123 5l-2 61h-122z" />
    <glyph glyph-name="uni9784.jp04" unicode="&#x9784;" unicode="&#xe0101;" 
d="M365 269v103h-61v-103h61zM159 269h62v103h-62v-103zM201 639v-59h123v59h-123zM608 566h186v-289h10q11 0 17 20t12.5 101.5t11.5 243.5h-220q-18 -52 -28 -76h11zM608 480v-140h88v140h-88zM414 505h-100v-52h137v-265h-86h-51v-63h159v-83h-159v-123h-103v123h-169v83
h169v63h-52h-88v265h140v52h-103v134h-64v84h64v73h93v-73h123v73h90v-73h64v-84h-64v-134zM439 475q41 59 78 156t57 202l98 -12q-10 -49 -21 -91h295q-6 -276 -18 -389.5t-36 -140.5l81 -21q-4 -51 -7 -81t-10 -60.5t-13.5 -46t-22 -30.5t-30 -20.5t-44 -10.5t-57 -5.5
t-75.5 -0.5q-56 0 -84.5 1t-56 7.5t-38 15t-19.5 30t-10 45t-1 67.5v330zM608 252v-162v-32.5t5 -20.5t8.5 -13.5t21 -5.5t30.5 -3h49h45.5t33.5 3t26 5.5t16.5 13.5t12.5 20t6.5 31.5t5.5 42t3 57.5q-10 -2 -16 -2q-56 0 -123 5l-2 61h-122z" />
    <glyph glyph-name="uni9784.jp04" unicode="&#x9784;" unicode="&#xe0103;" 
d="M365 269v103h-61v-103h61zM159 269h62v103h-62v-103zM201 639v-59h123v59h-123zM608 566h186v-289h10q11 0 17 20t12.5 101.5t11.5 243.5h-220q-18 -52 -28 -76h11zM608 480v-140h88v140h-88zM414 505h-100v-52h137v-265h-86h-51v-63h159v-83h-159v-123h-103v123h-169v83
h169v63h-52h-88v265h140v52h-103v134h-64v84h64v73h93v-73h123v73h90v-73h64v-84h-64v-134zM439 475q41 59 78 156t57 202l98 -12q-10 -49 -21 -91h295q-6 -276 -18 -389.5t-36 -140.5l81 -21q-4 -51 -7 -81t-10 -60.5t-13.5 -46t-22 -30.5t-30 -20.5t-44 -10.5t-57 -5.5
t-75.5 -0.5q-56 0 -84.5 1t-56 7.5t-38 15t-19.5 30t-10 45t-1 67.5v330zM608 252v-162v-32.5t5 -20.5t8.5 -13.5t21 -5.5t30.5 -3h49h45.5t33.5 3t26 5.5t16.5 13.5t12.5 20t6.5 31.5t5.5 42t3 57.5q-10 -2 -16 -2q-56 0 -123 5l-2 61h-122z" />
    <glyph glyph-name="uni9784.jp04" unicode="&#x9784;" unicode="&#xe0101;" 
d="M365 269v103h-61v-103h61zM159 269h62v103h-62v-103zM201 639v-59h123v59h-123zM608 566h186v-289h10q11 0 17 20t12.5 101.5t11.5 243.5h-220q-18 -52 -28 -76h11zM608 480v-140h88v140h-88zM414 505h-100v-52h137v-265h-86h-51v-63h159v-83h-159v-123h-103v123h-169v83
h169v63h-52h-88v265h140v52h-103v134h-64v84h64v73h93v-73h123v73h90v-73h64v-84h-64v-134zM439 475q41 59 78 156t57 202l98 -12q-10 -49 -21 -91h295q-6 -276 -18 -389.5t-36 -140.5l81 -21q-4 -51 -7 -81t-10 -60.5t-13.5 -46t-22 -30.5t-30 -20.5t-44 -10.5t-57 -5.5
t-75.5 -0.5q-56 0 -84.5 1t-56 7.5t-38 15t-19.5 30t-10 45t-1 67.5v330zM608 252v-162v-32.5t5 -20.5t8.5 -13.5t21 -5.5t30.5 -3h49h45.5t33.5 3t26 5.5t16.5 13.5t12.5 20t6.5 31.5t5.5 42t3 57.5q-10 -2 -16 -2q-56 0 -123 5l-2 61h-122z" />
    <glyph glyph-name="uni98F4.jp04" unicode="&#x98f4;" unicode="&#xe0103;" 
d="M605 -32v-49h-98v424h417v-424h-101v49h-218zM393 656q-48 39 -91 82q-39 -45 -77 -82h168zM186 436h167v46h-167v-46zM186 321h167v49h-167v-49zM186 250v-47h280v-76h-280v-49h280v-78h-280v-81h-102v620q-11 -8 -25 -17l-27 99q116 79 211 182h117q75 -66 177 -128
l-36 -99q-43 29 -79 58v-46h-231v37q-45 -40 -87 -71h347v-304h-265zM755 669l90 41q73 -148 128 -304l-90 -40q-13 38 -30 78q-197 -33 -367 -40l-6 91q7 1 23 1t23 1q50 136 104 320l95 -20q-42 -149 -96 -291q108 10 190 22q-34 81 -64 141zM823 54v201h-218v-201h218z
" />
    <glyph glyph-name="uni98F4.jp04" unicode="&#x98f4;" unicode="&#xe0101;" 
d="M605 -32v-49h-98v424h417v-424h-101v49h-218zM393 656q-48 39 -91 82q-39 -45 -77 -82h168zM186 436h167v46h-167v-46zM186 321h167v49h-167v-49zM186 250v-47h280v-76h-280v-49h280v-78h-280v-81h-102v620q-11 -8 -25 -17l-27 99q116 79 211 182h117q75 -66 177 -128
l-36 -99q-43 29 -79 58v-46h-231v37q-45 -40 -87 -71h347v-304h-265zM755 669l90 41q73 -148 128 -304l-90 -40q-13 38 -30 78q-197 -33 -367 -40l-6 91q7 1 23 1t23 1q50 136 104 320l95 -20q-42 -149 -96 -291q108 10 190 22q-34 81 -64 141zM823 54v201h-218v-201h218z
" />
    <glyph glyph-name="uni98F4.jp04" unicode="&#x98f4;" unicode="&#xe0103;" 
d="M605 -32v-49h-98v424h417v-424h-101v49h-218zM393 656q-48 39 -91 82q-39 -45 -77 -82h168zM186 436h167v46h-167v-46zM186 321h167v49h-167v-49zM186 250v-47h280v-76h-280v-49h280v-78h-280v-81h-102v620q-11 -8 -25 -17l-27 99q116 79 211 182h117q75 -66 177 -128
l-36 -99q-43 29 -79 58v-46h-231v37q-45 -40 -87 -71h347v-304h-265zM755 669l90 41q73 -148 128 -304l-90 -40q-13 38 -30 78q-197 -33 -367 -40l-6 91q7 1 23 1t23 1q50 136 104 320l95 -20q-42 -149 -96 -291q108 10 190 22q-34 81 -64 141zM823 54v201h-218v-201h218z
" />
    <glyph glyph-name="uni98F4.jp04" unicode="&#x98f4;" unicode="&#xe0101;" 
d="M605 -32v-49h-98v424h417v-424h-101v49h-218zM393 656q-48 39 -91 82q-39 -45 -77 -82h168zM186 436h167v46h-167v-46zM186 321h167v49h-167v-49zM186 250v-47h280v-76h-280v-49h280v-78h-280v-81h-102v620q-11 -8 -25 -17l-27 99q116 79 211 182h117q75 -66 177 -128
l-36 -99q-43 29 -79 58v-46h-231v37q-45 -40 -87 -71h347v-304h-265zM755 669l90 41q73 -148 128 -304l-90 -40q-13 38 -30 78q-197 -33 -367 -40l-6 91q7 1 23 1t23 1q50 136 104 320l95 -20q-42 -149 -96 -291q108 10 190 22q-34 81 -64 141zM823 54v201h-218v-201h218z
" />
    <glyph glyph-name="uni990C.jp04" unicode="&#x990c;" unicode="&#xe0105;" 
d="M391 656q-43 36 -89 82q-39 -45 -77 -82h166zM191 436h184v46h-184v-46zM191 321h184v49h-184v-49zM640 358h176v127h-176v-127zM816 165v114h-176v-141q90 12 176 27zM816 683h-176v-120h176v120zM501 32l-9 88q16 2 50 6v557h-23l-35 -98q-22 15 -62 47v-44h-231v37
q-45 -40 -87 -71h372v-304h-285v-47h285v-76h-285v-49h285v-78h-285v-81h-103v623q-26 -18 -29 -20l-27 99q116 79 211 182h117q66 -60 130 -100v69h476v-89h-47v-500q7 1 22 4t23 4l3 -88l-48 -9v-177h-103v159q-168 -28 -315 -44z" />
    <glyph glyph-name="uni990C.jp04" unicode="&#x990c;" unicode="&#xe0103;" 
d="M391 656q-43 36 -89 82q-39 -45 -77 -82h166zM191 436h184v46h-184v-46zM191 321h184v49h-184v-49zM640 358h176v127h-176v-127zM816 165v114h-176v-141q90 12 176 27zM816 683h-176v-120h176v120zM501 32l-9 88q16 2 50 6v557h-23l-35 -98q-22 15 -62 47v-44h-231v37
q-45 -40 -87 -71h372v-304h-285v-47h285v-76h-285v-49h285v-78h-285v-81h-103v623q-26 -18 -29 -20l-27 99q116 79 211 182h117q66 -60 130 -100v69h476v-89h-47v-500q7 1 22 4t23 4l3 -88l-48 -9v-177h-103v159q-168 -28 -315 -44z" />
    <glyph glyph-name="uni990C.jp04" unicode="&#x990c;" unicode="&#xe0105;" 
d="M391 656q-43 36 -89 82q-39 -45 -77 -82h166zM191 436h184v46h-184v-46zM191 321h184v49h-184v-49zM640 358h176v127h-176v-127zM816 165v114h-176v-141q90 12 176 27zM816 683h-176v-120h176v120zM501 32l-9 88q16 2 50 6v557h-23l-35 -98q-22 15 -62 47v-44h-231v37
q-45 -40 -87 -71h372v-304h-285v-47h285v-76h-285v-49h285v-78h-285v-81h-103v623q-26 -18 -29 -20l-27 99q116 79 211 182h117q66 -60 130 -100v69h476v-89h-47v-500q7 1 22 4t23 4l3 -88l-48 -9v-177h-103v159q-168 -28 -315 -44z" />
    <glyph glyph-name="uni990C.jp04" unicode="&#x990c;" unicode="&#xe0103;" 
d="M391 656q-43 36 -89 82q-39 -45 -77 -82h166zM191 436h184v46h-184v-46zM191 321h184v49h-184v-49zM640 358h176v127h-176v-127zM816 165v114h-176v-141q90 12 176 27zM816 683h-176v-120h176v120zM501 32l-9 88q16 2 50 6v557h-23l-35 -98q-22 15 -62 47v-44h-231v37
q-45 -40 -87 -71h372v-304h-285v-47h285v-76h-285v-49h285v-78h-285v-81h-103v623q-26 -18 -29 -20l-27 99q116 79 211 182h117q66 -60 130 -100v69h476v-89h-47v-500q7 1 22 4t23 4l3 -88l-48 -9v-177h-103v159q-168 -28 -315 -44z" />
    <glyph glyph-name="uni9C2F.jp04" unicode="&#x9c2f;" unicode="&#xe0103;" 
d="M203 605q32 62 39 78h-55q-9 -26 -29 -78h45zM255 436h34v86h-34v-86zM255 360v-91h34v91h-34zM182 522h-35v-86h35v86zM147 269h35v91h-35v-91zM147 188h-83v311l-39 28q73 141 115 308l86 -12q-3 -14 -14 -56h119v-84q-16 -39 -35 -78h72v-417h-221zM27 -69
q34 113 47 233l68 -12q-11 -126 -44 -240zM162 -74q-4 129 -12 223l63 10q12 -115 15 -225zM253 -47q-4 68 -23 201l62 10q15 -98 22 -203zM338 -20q-14 102 -32 182l59 9q22 -94 32 -183zM647 772v-258h-149q-4 -29 -14 -85h170q-4 -123 -7.5 -202t-9.5 -137.5t-11 -88
t-15.5 -46.5t-20 -20.5t-27.5 -3.5q-46 0 -122 8l-2 88q46 -8 73 -8q8 0 12.5 5t9 27.5t8.5 67.5q-61 -49 -128 -82l-19 83q82 39 153 98q0 9 1.5 34.5t2.5 41.5q-72 -62 -152 -103l-20 83q68 33 122 74h-34h-51h-42q23 120 37 245h135v90h-157v89h257zM941 772v-258h-152
q-4 -29 -14 -85h173q-6 -185 -11.5 -279.5t-17.5 -146.5t-24.5 -62t-39.5 -10q-40 0 -130 8l-2 88q58 -8 81 -8q8 0 12.5 5.5t8.5 27t8 65.5q-78 -62 -161 -102l-20 83q105 49 187 117q0 8 1.5 33.5t2.5 41.5q-75 -62 -167 -106l-19 83q70 32 140 81h-37h-54h-44
q21 108 36 245h143v90h-165v89h265z" />
    <glyph glyph-name="uni9C2F.jp04" unicode="&#x9c2f;" unicode="&#xe0101;" 
d="M203 605q32 62 39 78h-55q-9 -26 -29 -78h45zM255 436h34v86h-34v-86zM255 360v-91h34v91h-34zM182 522h-35v-86h35v86zM147 269h35v91h-35v-91zM147 188h-83v311l-39 28q73 141 115 308l86 -12q-3 -14 -14 -56h119v-84q-16 -39 -35 -78h72v-417h-221zM27 -69
q34 113 47 233l68 -12q-11 -126 -44 -240zM162 -74q-4 129 -12 223l63 10q12 -115 15 -225zM253 -47q-4 68 -23 201l62 10q15 -98 22 -203zM338 -20q-14 102 -32 182l59 9q22 -94 32 -183zM647 772v-258h-149q-4 -29 -14 -85h170q-4 -123 -7.5 -202t-9.5 -137.5t-11 -88
t-15.5 -46.5t-20 -20.5t-27.5 -3.5q-46 0 -122 8l-2 88q46 -8 73 -8q8 0 12.5 5t9 27.5t8.5 67.5q-61 -49 -128 -82l-19 83q82 39 153 98q0 9 1.5 34.5t2.5 41.5q-72 -62 -152 -103l-20 83q68 33 122 74h-34h-51h-42q23 120 37 245h135v90h-157v89h257zM941 772v-258h-152
q-4 -29 -14 -85h173q-6 -185 -11.5 -279.5t-17.5 -146.5t-24.5 -62t-39.5 -10q-40 0 -130 8l-2 88q58 -8 81 -8q8 0 12.5 5.5t8.5 27t8 65.5q-78 -62 -161 -102l-20 83q105 49 187 117q0 8 1.5 33.5t2.5 41.5q-75 -62 -167 -106l-19 83q70 32 140 81h-37h-54h-44
q21 108 36 245h143v90h-165v89h265z" />
    <glyph glyph-name="uni9C2F.jp04" unicode="&#x9c2f;" unicode="&#xe0103;" 
d="M203 605q32 62 39 78h-55q-9 -26 -29 -78h45zM255 436h34v86h-34v-86zM255 360v-91h34v91h-34zM182 522h-35v-86h35v86zM147 269h35v91h-35v-91zM147 188h-83v311l-39 28q73 141 115 308l86 -12q-3 -14 -14 -56h119v-84q-16 -39 -35 -78h72v-417h-221zM27 -69
q34 113 47 233l68 -12q-11 -126 -44 -240zM162 -74q-4 129 -12 223l63 10q12 -115 15 -225zM253 -47q-4 68 -23 201l62 10q15 -98 22 -203zM338 -20q-14 102 -32 182l59 9q22 -94 32 -183zM647 772v-258h-149q-4 -29 -14 -85h170q-4 -123 -7.5 -202t-9.5 -137.5t-11 -88
t-15.5 -46.5t-20 -20.5t-27.5 -3.5q-46 0 -122 8l-2 88q46 -8 73 -8q8 0 12.5 5t9 27.5t8.5 67.5q-61 -49 -128 -82l-19 83q82 39 153 98q0 9 1.5 34.5t2.5 41.5q-72 -62 -152 -103l-20 83q68 33 122 74h-34h-51h-42q23 120 37 245h135v90h-157v89h257zM941 772v-258h-152
q-4 -29 -14 -85h173q-6 -185 -11.5 -279.5t-17.5 -146.5t-24.5 -62t-39.5 -10q-40 0 -130 8l-2 88q58 -8 81 -8q8 0 12.5 5.5t8.5 27t8 65.5q-78 -62 -161 -102l-20 83q105 49 187 117q0 8 1.5 33.5t2.5 41.5q-75 -62 -167 -106l-19 83q70 32 140 81h-37h-54h-44
q21 108 36 245h143v90h-165v89h265z" />
    <glyph glyph-name="uni9C2F.jp04" unicode="&#x9c2f;" unicode="&#xe0101;" 
d="M203 605q32 62 39 78h-55q-9 -26 -29 -78h45zM255 436h34v86h-34v-86zM255 360v-91h34v91h-34zM182 522h-35v-86h35v86zM147 269h35v91h-35v-91zM147 188h-83v311l-39 28q73 141 115 308l86 -12q-3 -14 -14 -56h119v-84q-16 -39 -35 -78h72v-417h-221zM27 -69
q34 113 47 233l68 -12q-11 -126 -44 -240zM162 -74q-4 129 -12 223l63 10q12 -115 15 -225zM253 -47q-4 68 -23 201l62 10q15 -98 22 -203zM338 -20q-14 102 -32 182l59 9q22 -94 32 -183zM647 772v-258h-149q-4 -29 -14 -85h170q-4 -123 -7.5 -202t-9.5 -137.5t-11 -88
t-15.5 -46.5t-20 -20.5t-27.5 -3.5q-46 0 -122 8l-2 88q46 -8 73 -8q8 0 12.5 5t9 27.5t8.5 67.5q-61 -49 -128 -82l-19 83q82 39 153 98q0 9 1.5 34.5t2.5 41.5q-72 -62 -152 -103l-20 83q68 33 122 74h-34h-51h-42q23 120 37 245h135v90h-157v89h257zM941 772v-258h-152
q-4 -29 -14 -85h173q-6 -185 -11.5 -279.5t-17.5 -146.5t-24.5 -62t-39.5 -10q-40 0 -130 8l-2 88q58 -8 81 -8q8 0 12.5 5.5t8.5 27t8 65.5q-78 -62 -161 -102l-20 83q105 49 187 117q0 8 1.5 33.5t2.5 41.5q-75 -62 -167 -106l-19 83q70 32 140 81h-37h-54h-44
q21 108 36 245h143v90h-165v89h265z" />
    <glyph glyph-name="glyph7548" unicode="&#x53c9;" unicode="&#xe0100;" 
d="M545 408q-85 97 -178 181l70 66q93 -83 179 -179zM98 674v93h765v-93q-91 -285 -281 -465q148 -111 371 -185l-39 -93q-246 84 -409 212q-164 -128 -403 -209l-35 93q211 73 360 186q-114 113 -187 266q-28 -85 -76 -158l-78 56q78 114 105 240h93q78 -207 219 -341
q168 156 250 398h-655z" />
    <glyph glyph-name="glyph7548" unicode="&#x53c9;" unicode="&#xe0100;" 
d="M545 408q-85 97 -178 181l70 66q93 -83 179 -179zM98 674v93h765v-93q-91 -285 -281 -465q148 -111 371 -185l-39 -93q-246 84 -409 212q-164 -128 -403 -209l-35 93q211 73 360 186q-114 113 -187 266q-28 -85 -76 -158l-78 56q78 114 105 240h93q78 -207 219 -341
q168 156 250 398h-655z" />
    <glyph glyph-name="glyph7549" unicode="&#x6897;" unicode="&#xe0100;" 
d="M686 478h137v68h-137v-68zM453 478h133v68h-133v-68zM453 331h128q2 25 4 73h-132v-73zM439 252q41 -61 92 -103q25 39 39 103h-117h-14zM324 772h627v-84h-265v-63h235v-432h-98v59h-152q-16 -95 -56 -157q127 -64 341 -73l-13 -91q-232 9 -389 96q-77 -62 -243 -96
l-29 88q128 30 185 67q-42 33 -82 78q-25 -24 -64 -51l-41 88q49 28 78 53v50l-66 -51q-20 54 -42 111v-445h-98v352q-29 -88 -68 -155l-61 97q90 156 129 338h-108v88h108v162h98v-162h83v-88h-74q9 -20 99 -232v306h228v63h-262v84zM823 331v73h-138q-2 -48 -4 -73h142z
" />
    <glyph glyph-name="glyph7549" unicode="&#x6897;" unicode="&#xe0100;" 
d="M686 478h137v68h-137v-68zM453 478h133v68h-133v-68zM453 331h128q2 25 4 73h-132v-73zM439 252q41 -61 92 -103q25 39 39 103h-117h-14zM324 772h627v-84h-265v-63h235v-432h-98v59h-152q-16 -95 -56 -157q127 -64 341 -73l-13 -91q-232 9 -389 96q-77 -62 -243 -96
l-29 88q128 30 185 67q-42 33 -82 78q-25 -24 -64 -51l-41 88q49 28 78 53v50l-66 -51q-20 54 -42 111v-445h-98v352q-29 -88 -68 -155l-61 97q90 156 129 338h-108v88h108v162h98v-162h83v-88h-74q9 -20 99 -232v306h228v63h-262v84zM823 331v73h-138q-2 -48 -4 -73h142z
" />
    <glyph glyph-name="glyph7550" unicode="&#x9375;" unicode="&#xe0100;" 
d="M843 612v59h-59v-59h59zM843 529h-59v-64h59v64zM145 607h156q-43 49 -83 116q-38 -70 -73 -116zM414 132q-15 35 -27 76q-4 -40 -9 -61l-33 19q-1 -6 -3.5 -16t-3.5 -15l-68 17q16 80 29 161l53 -11q2 7 4.5 21t3.5 20h69q6 -41 19 -96q12 57 17 137h-107v86
q55 98 95 201h-90q4 -4 12 -11t12 -11l-41 -69v-56h-81v-95h81v-86h-81v-269q32 9 98 31l4 -66q26 40 47 93zM469 40q-31 -69 -69 -119l-81 52q9 11 30 40q-146 -52 -292 -77l-13 88q46 8 123 25v294h-113v86h113v95h-64v33q-25 -28 -46 -48l-25 103q81 78 140 182h88
q41 -61 93 -113v81h189v-91q-31 -103 -82 -201h89v-83v-3q-12 -146 -48 -260q57 -80 183 -95v69h-147v83h147v64h-125v81h125v61h-115v78h115v64h-155v83h155v59h-120v81h120v54h100v-54h152v-140h34v-83h-34v-142h-152v-61h157v-81h-157v-64h167v-83h-167v-74h172l-3 -88
h-186q-109 0 -180 24t-118 80zM125 304q19 -88 34 -187l-71 -19q-20 122 -34 186z" />
    <glyph glyph-name="glyph7550" unicode="&#x9375;" unicode="&#xe0100;" 
d="M843 612v59h-59v-59h59zM843 529h-59v-64h59v64zM145 607h156q-43 49 -83 116q-38 -70 -73 -116zM414 132q-15 35 -27 76q-4 -40 -9 -61l-33 19q-1 -6 -3.5 -16t-3.5 -15l-68 17q16 80 29 161l53 -11q2 7 4.5 21t3.5 20h69q6 -41 19 -96q12 57 17 137h-107v86
q55 98 95 201h-90q4 -4 12 -11t12 -11l-41 -69v-56h-81v-95h81v-86h-81v-269q32 9 98 31l4 -66q26 40 47 93zM469 40q-31 -69 -69 -119l-81 52q9 11 30 40q-146 -52 -292 -77l-13 88q46 8 123 25v294h-113v86h113v95h-64v33q-25 -28 -46 -48l-25 103q81 78 140 182h88
q41 -61 93 -113v81h189v-91q-31 -103 -82 -201h89v-83v-3q-12 -146 -48 -260q57 -80 183 -95v69h-147v83h147v64h-125v81h125v61h-115v78h115v64h-155v83h155v59h-120v81h120v54h100v-54h152v-140h34v-83h-34v-142h-152v-61h157v-81h-157v-64h167v-83h-167v-74h172l-3 -88
h-186q-109 0 -180 24t-118 80zM125 304q19 -88 34 -187l-71 -19q-20 122 -34 186z" />
    <glyph glyph-name="glyph7551" unicode="&#x9bab;" unicode="&#xe0100;" 
d="M230 605q24 40 43 78h-65q-10 -26 -32 -78h54zM289 436h52v86h-52v-86zM289 360v-91h52v91h-52zM211 522h-52v-86h52v86zM159 269h52v91h-52v-91zM27 -69q38 116 52 233l76 -12q-9 -122 -47 -240zM179 -74q-3 98 -17 223l71 10q15 -106 20 -223zM287 -47q-9 93 -30 201
l69 10q19 -96 29 -201zM634 821h105v-111h214v-88h-531v88h212v111zM649 568q-65 -138 -196 -250l-31 48v-178h-263h-88v305l-46 29q87 142 130 313l93 -12q-4 -18 -14 -56h134v-84q-20 -45 -39 -78h93v-185q84 82 144 195zM717 556l72 59q99 -100 177 -213l-67 -74
q-6 9 -31 44q-46 -141 -106 -224q65 -72 206 -136l-34 -88q-148 61 -232 154q-95 -92 -256 -154l-29 59l-27 -5q-13 89 -39 181l63 12q21 -72 33 -144q124 54 196 130q-32 52 -55 112q-27 -58 -68 -107l-69 61q76 86 108 176h81q28 -104 62 -166q42 67 75 174l86 -27
q-69 93 -146 176z" />
    <glyph glyph-name="glyph7551" unicode="&#x9bab;" unicode="&#xe0100;" 
d="M230 605q24 40 43 78h-65q-10 -26 -32 -78h54zM289 436h52v86h-52v-86zM289 360v-91h52v91h-52zM211 522h-52v-86h52v86zM159 269h52v91h-52v-91zM27 -69q38 116 52 233l76 -12q-9 -122 -47 -240zM179 -74q-3 98 -17 223l71 10q15 -106 20 -223zM287 -47q-9 93 -30 201
l69 10q19 -96 29 -201zM634 821h105v-111h214v-88h-531v88h212v111zM649 568q-65 -138 -196 -250l-31 48v-178h-263h-88v305l-46 29q87 142 130 313l93 -12q-4 -18 -14 -56h134v-84q-20 -45 -39 -78h93v-185q84 82 144 195zM717 556l72 59q99 -100 177 -213l-67 -74
q-6 9 -31 44q-46 -141 -106 -224q65 -72 206 -136l-34 -88q-148 61 -232 154q-95 -92 -256 -154l-29 59l-27 -5q-13 89 -39 181l63 12q21 -72 33 -144q124 54 196 130q-32 52 -55 112q-27 -58 -68 -107l-69 61q76 86 108 176h81q28 -104 62 -166q42 67 75 174l86 -27
q-69 93 -146 176z" />
    <glyph glyph-name="uni5026.jp04" unicode="&#x5026;" unicode="&#xe0103;" 
d="M560 475h129q-20 48 -31 86h-60q-16 -41 -38 -86zM772 318q-26 38 -43 71h-218q-29 -45 -50 -71h311zM265 389v86h188q24 42 41 86h-112v45q-38 -41 -80 -74l-46 45q-2 -5 -21 -58v-276q92 54 162 146h-132zM811 125l103 -5q-2 -43 -3.5 -64.5t-8.5 -47.5t-11.5 -36
t-22 -23t-32 -16t-49.5 -7.5t-65 -4.5h-87q-73 0 -115.5 1t-77.5 5.5t-50 9.5t-25.5 18.5t-12 27t-1.5 39.5v183q-37 -31 -81 -58l-37 82v-310h-100v445q-31 -52 -65 -95l-52 96q137 180 188 440l100 -15q-12 -76 -36 -164q86 76 139 175l86 -37q-27 -53 -77 -117h106
q23 81 32 166l103 -5q-9 -81 -32 -161h182q-50 62 -101 112l81 47q93 -98 174 -221l-71 -53q-28 43 -54 77v-48h-79q11 -36 33 -86h169v-86h-123q56 -87 135 -147l-52 -80q-57 40 -104 96q-7 -82 -19 -120t-31 -49t-59 -11q-44 0 -164 8l-5 83q80 -7 128 -7q25 0 32.5 12.5
t13.5 63.5h-260v-199q0 -25 24.5 -29.5t169.5 -4.5h52.5t38.5 2.5t29.5 3.5t18 9.5t13 13.5t6 22t5 29t1.5 40z" />
    <glyph glyph-name="uni5026.jp04" unicode="&#x5026;" unicode="&#xe0101;" 
d="M560 475h129q-20 48 -31 86h-60q-16 -41 -38 -86zM772 318q-26 38 -43 71h-218q-29 -45 -50 -71h311zM265 389v86h188q24 42 41 86h-112v45q-38 -41 -80 -74l-46 45q-2 -5 -21 -58v-276q92 54 162 146h-132zM811 125l103 -5q-2 -43 -3.5 -64.5t-8.5 -47.5t-11.5 -36
t-22 -23t-32 -16t-49.5 -7.5t-65 -4.5h-87q-73 0 -115.5 1t-77.5 5.5t-50 9.5t-25.5 18.5t-12 27t-1.5 39.5v183q-37 -31 -81 -58l-37 82v-310h-100v445q-31 -52 -65 -95l-52 96q137 180 188 440l100 -15q-12 -76 -36 -164q86 76 139 175l86 -37q-27 -53 -77 -117h106
q23 81 32 166l103 -5q-9 -81 -32 -161h182q-50 62 -101 112l81 47q93 -98 174 -221l-71 -53q-28 43 -54 77v-48h-79q11 -36 33 -86h169v-86h-123q56 -87 135 -147l-52 -80q-57 40 -104 96q-7 -82 -19 -120t-31 -49t-59 -11q-44 0 -164 8l-5 83q80 -7 128 -7q25 0 32.5 12.5
t13.5 63.5h-260v-199q0 -25 24.5 -29.5t169.5 -4.5h52.5t38.5 2.5t29.5 3.5t18 9.5t13 13.5t6 22t5 29t1.5 40z" />
    <glyph glyph-name="uni5026.jp04" unicode="&#x5026;" unicode="&#xe0103;" 
d="M560 475h129q-20 48 -31 86h-60q-16 -41 -38 -86zM772 318q-26 38 -43 71h-218q-29 -45 -50 -71h311zM265 389v86h188q24 42 41 86h-112v45q-38 -41 -80 -74l-46 45q-2 -5 -21 -58v-276q92 54 162 146h-132zM811 125l103 -5q-2 -43 -3.5 -64.5t-8.5 -47.5t-11.5 -36
t-22 -23t-32 -16t-49.5 -7.5t-65 -4.5h-87q-73 0 -115.5 1t-77.5 5.5t-50 9.5t-25.5 18.5t-12 27t-1.5 39.5v183q-37 -31 -81 -58l-37 82v-310h-100v445q-31 -52 -65 -95l-52 96q137 180 188 440l100 -15q-12 -76 -36 -164q86 76 139 175l86 -37q-27 -53 -77 -117h106
q23 81 32 166l103 -5q-9 -81 -32 -161h182q-50 62 -101 112l81 47q93 -98 174 -221l-71 -53q-28 43 -54 77v-48h-79q11 -36 33 -86h169v-86h-123q56 -87 135 -147l-52 -80q-57 40 -104 96q-7 -82 -19 -120t-31 -49t-59 -11q-44 0 -164 8l-5 83q80 -7 128 -7q25 0 32.5 12.5
t13.5 63.5h-260v-199q0 -25 24.5 -29.5t169.5 -4.5h52.5t38.5 2.5t29.5 3.5t18 9.5t13 13.5t6 22t5 29t1.5 40z" />
    <glyph glyph-name="uni5026.jp04" unicode="&#x5026;" unicode="&#xe0101;" 
d="M560 475h129q-20 48 -31 86h-60q-16 -41 -38 -86zM772 318q-26 38 -43 71h-218q-29 -45 -50 -71h311zM265 389v86h188q24 42 41 86h-112v45q-38 -41 -80 -74l-46 45q-2 -5 -21 -58v-276q92 54 162 146h-132zM811 125l103 -5q-2 -43 -3.5 -64.5t-8.5 -47.5t-11.5 -36
t-22 -23t-32 -16t-49.5 -7.5t-65 -4.5h-87q-73 0 -115.5 1t-77.5 5.5t-50 9.5t-25.5 18.5t-12 27t-1.5 39.5v183q-37 -31 -81 -58l-37 82v-310h-100v445q-31 -52 -65 -95l-52 96q137 180 188 440l100 -15q-12 -76 -36 -164q86 76 139 175l86 -37q-27 -53 -77 -117h106
q23 81 32 166l103 -5q-9 -81 -32 -161h182q-50 62 -101 112l81 47q93 -98 174 -221l-71 -53q-28 43 -54 77v-48h-79q11 -36 33 -86h169v-86h-123q56 -87 135 -147l-52 -80q-57 40 -104 96q-7 -82 -19 -120t-31 -49t-59 -11q-44 0 -164 8l-5 83q80 -7 128 -7q25 0 32.5 12.5
t13.5 63.5h-260v-199q0 -25 24.5 -29.5t169.5 -4.5h52.5t38.5 2.5t29.5 3.5t18 9.5t13 13.5t6 22t5 29t1.5 40z" />
    <glyph glyph-name="uni50C5.jp04" unicode="&#x50c5;" unicode="&#xe0103;" 
d="M228 538v-619h-100v429q-35 -59 -68 -98l-42 118q132 184 181 437l97 -18q-22 -136 -68 -249zM407 375h157v66h-157v-66zM493 664v-47h254v47h-254zM828 375v66h-156v-66h156zM672 34h286v-86h-678v86h284v42h-248v73h248v39h-267v79h267v37h-157h-98v208h255v34h-172
v118h-95v83h95v61h101v-61h254v61h101v-61h103v-83h-103v-118h-176v-34h254v-208h-98h-156v-37h259v-79h-259v-39h240v-73h-240v-42z" />
    <glyph glyph-name="uni50C5.jp04" unicode="&#x50c5;" unicode="&#xe0101;" 
d="M228 538v-619h-100v429q-35 -59 -68 -98l-42 118q132 184 181 437l97 -18q-22 -136 -68 -249zM407 375h157v66h-157v-66zM493 664v-47h254v47h-254zM828 375v66h-156v-66h156zM672 34h286v-86h-678v86h284v42h-248v73h248v39h-267v79h267v37h-157h-98v208h255v34h-172
v118h-95v83h95v61h101v-61h254v61h101v-61h103v-83h-103v-118h-176v-34h254v-208h-98h-156v-37h259v-79h-259v-39h240v-73h-240v-42z" />
    <glyph glyph-name="uni50C5.jp04" unicode="&#x50c5;" unicode="&#xe0103;" 
d="M228 538v-619h-100v429q-35 -59 -68 -98l-42 118q132 184 181 437l97 -18q-22 -136 -68 -249zM407 375h157v66h-157v-66zM493 664v-47h254v47h-254zM828 375v66h-156v-66h156zM672 34h286v-86h-678v86h284v42h-248v73h248v39h-267v79h267v37h-157h-98v208h255v34h-172
v118h-95v83h95v61h101v-61h254v61h101v-61h103v-83h-103v-118h-176v-34h254v-208h-98h-156v-37h259v-79h-259v-39h240v-73h-240v-42z" />
    <glyph glyph-name="uni50C5.jp04" unicode="&#x50c5;" unicode="&#xe0101;" 
d="M228 538v-619h-100v429q-35 -59 -68 -98l-42 118q132 184 181 437l97 -18q-22 -136 -68 -249zM407 375h157v66h-157v-66zM493 664v-47h254v47h-254zM828 375v66h-156v-66h156zM672 34h286v-86h-678v86h284v42h-248v73h248v39h-267v79h267v37h-157h-98v208h255v34h-172
v118h-95v83h95v61h101v-61h254v61h101v-61h103v-83h-103v-118h-176v-34h254v-208h-98h-156v-37h259v-79h-259v-39h240v-73h-240v-42z" />
    <glyph glyph-name="uni537F.jp04" unicode="&#x537f;" unicode="&#xe0104;" 
d="M463 583h96v88h-96v-88zM463 414h96v93h-96v-93zM463 336v-72h191v-85h-191v-76h191v-86h-191v-98h-98v833h83q18 46 28 81l100 -12q-14 -48 -22 -69h98v-416h-189zM233 404v235h95v-247q0 -148 -24 -240t-74.5 -147.5t-141.5 -97.5l-58 83q76 32 117 70t61 100
q-82 -40 -164 -70l-24 91l51 18v529q130 24 253 73l29 -86q-95 -37 -189 -59v-419q31 13 64 29q5 49 5 138zM870 42q-42 0 -59 2l-15 93q14 -2 42 -2q16 0 19 6.5t3 44.5v497h-76v-764h-93v853h262v-608q0 -83 -14 -102.5t-69 -19.5z" />
    <glyph glyph-name="uni537F.jp04" unicode="&#x537f;" unicode="&#xe0102;" 
d="M463 583h96v88h-96v-88zM463 414h96v93h-96v-93zM463 336v-72h191v-85h-191v-76h191v-86h-191v-98h-98v833h83q18 46 28 81l100 -12q-14 -48 -22 -69h98v-416h-189zM233 404v235h95v-247q0 -148 -24 -240t-74.5 -147.5t-141.5 -97.5l-58 83q76 32 117 70t61 100
q-82 -40 -164 -70l-24 91l51 18v529q130 24 253 73l29 -86q-95 -37 -189 -59v-419q31 13 64 29q5 49 5 138zM870 42q-42 0 -59 2l-15 93q14 -2 42 -2q16 0 19 6.5t3 44.5v497h-76v-764h-93v853h262v-608q0 -83 -14 -102.5t-69 -19.5z" />
    <glyph glyph-name="uni537F.jp04" unicode="&#x537f;" unicode="&#xe0104;" 
d="M463 583h96v88h-96v-88zM463 414h96v93h-96v-93zM463 336v-72h191v-85h-191v-76h191v-86h-191v-98h-98v833h83q18 46 28 81l100 -12q-14 -48 -22 -69h98v-416h-189zM233 404v235h95v-247q0 -148 -24 -240t-74.5 -147.5t-141.5 -97.5l-58 83q76 32 117 70t61 100
q-82 -40 -164 -70l-24 91l51 18v529q130 24 253 73l29 -86q-95 -37 -189 -59v-419q31 13 64 29q5 49 5 138zM870 42q-42 0 -59 2l-15 93q14 -2 42 -2q16 0 19 6.5t3 44.5v497h-76v-764h-93v853h262v-608q0 -83 -14 -102.5t-69 -19.5z" />
    <glyph glyph-name="uni537F.jp04" unicode="&#x537f;" unicode="&#xe0102;" 
d="M463 583h96v88h-96v-88zM463 414h96v93h-96v-93zM463 336v-72h191v-85h-191v-76h191v-86h-191v-98h-98v833h83q18 46 28 81l100 -12q-14 -48 -22 -69h98v-416h-189zM233 404v235h95v-247q0 -148 -24 -240t-74.5 -147.5t-141.5 -97.5l-58 83q76 32 117 70t61 100
q-82 -40 -164 -70l-24 91l51 18v529q130 24 253 73l29 -86q-95 -37 -189 -59v-419q31 13 64 29q5 49 5 138zM870 42q-42 0 -59 2l-15 93q14 -2 42 -2q16 0 19 6.5t3 44.5v497h-76v-764h-93v853h262v-608q0 -83 -14 -102.5t-69 -19.5z" />
    <glyph glyph-name="uni55B0.jp04" unicode="&#x55b0;" unicode="&#xe0103;" 
d="M167 135h83v526h-83v-526zM772 641v-34h-250v34q-49 -35 -102 -68h455q-59 36 -103 68zM726 676q-36 30 -79 69q-43 -39 -79 -69h158zM510 362v-71h279v71h-279zM510 434h279v66h-279v-66zM763 131q52 42 91 84h-160q26 -43 69 -84zM831 76q59 -40 137 -69l-39 -81
q-107 33 -194.5 109.5t-137.5 179.5h-87v-173q90 17 162 34l12 -84q-181 -45 -356 -63l-9 86q58 6 88 10v541q-27 -16 -61 -34v-486h-179v-58h-101v764h280v-119q138 78 250 178h102q114 -103 275 -191l-20 -91q-6 4 -27 15t-32 17v-323l57 -45q-55 -65 -120 -117z" />
    <glyph glyph-name="uni55B0.jp04" unicode="&#x55b0;" unicode="&#xe0101;" 
d="M167 135h83v526h-83v-526zM772 641v-34h-250v34q-49 -35 -102 -68h455q-59 36 -103 68zM726 676q-36 30 -79 69q-43 -39 -79 -69h158zM510 362v-71h279v71h-279zM510 434h279v66h-279v-66zM763 131q52 42 91 84h-160q26 -43 69 -84zM831 76q59 -40 137 -69l-39 -81
q-107 33 -194.5 109.5t-137.5 179.5h-87v-173q90 17 162 34l12 -84q-181 -45 -356 -63l-9 86q58 6 88 10v541q-27 -16 -61 -34v-486h-179v-58h-101v764h280v-119q138 78 250 178h102q114 -103 275 -191l-20 -91q-6 4 -27 15t-32 17v-323l57 -45q-55 -65 -120 -117z" />
    <glyph glyph-name="uni55B0.jp04" unicode="&#x55b0;" unicode="&#xe0103;" 
d="M167 135h83v526h-83v-526zM772 641v-34h-250v34q-49 -35 -102 -68h455q-59 36 -103 68zM726 676q-36 30 -79 69q-43 -39 -79 -69h158zM510 362v-71h279v71h-279zM510 434h279v66h-279v-66zM763 131q52 42 91 84h-160q26 -43 69 -84zM831 76q59 -40 137 -69l-39 -81
q-107 33 -194.5 109.5t-137.5 179.5h-87v-173q90 17 162 34l12 -84q-181 -45 -356 -63l-9 86q58 6 88 10v541q-27 -16 -61 -34v-486h-179v-58h-101v764h280v-119q138 78 250 178h102q114 -103 275 -191l-20 -91q-6 4 -27 15t-32 17v-323l57 -45q-55 -65 -120 -117z" />
    <glyph glyph-name="uni55B0.jp04" unicode="&#x55b0;" unicode="&#xe0101;" 
d="M167 135h83v526h-83v-526zM772 641v-34h-250v34q-49 -35 -102 -68h455q-59 36 -103 68zM726 676q-36 30 -79 69q-43 -39 -79 -69h158zM510 362v-71h279v71h-279zM510 434h279v66h-279v-66zM763 131q52 42 91 84h-160q26 -43 69 -84zM831 76q59 -40 137 -69l-39 -81
q-107 33 -194.5 109.5t-137.5 179.5h-87v-173q90 17 162 34l12 -84q-181 -45 -356 -63l-9 86q58 6 88 10v541q-27 -16 -61 -34v-486h-179v-58h-101v764h280v-119q138 78 250 178h102q114 -103 275 -191l-20 -91q-6 4 -27 15t-32 17v-323l57 -45q-55 -65 -120 -117z" />
    <glyph glyph-name="uni5C51.jp04" unicode="&#x5c51;" unicode="&#xe0103;" 
d="M223 647h581v54h-581v-54zM365 196v-56h427v56h-427zM365 267h427v51h-427v-51zM343 397h179v176h-299v-157q97 62 162 150l71 -54q-48 -64 -113 -115zM909 781v-208h-284v-176h209q-71 60 -140 103l61 66q108 -71 206 -167l-67 -56v-311q0 -74 -18 -90t-104 -16
q-44 0 -132 5l-3 81q113 -5 125 -5q22 0 26 5t4 32v24h-427v-144h-103v419l-39 46q-5 -275 -108 -460l-78 83q83 177 83 463v306h789z" />
    <glyph glyph-name="uni5C51.jp04" unicode="&#x5c51;" unicode="&#xe0101;" 
d="M223 647h581v54h-581v-54zM365 196v-56h427v56h-427zM365 267h427v51h-427v-51zM343 397h179v176h-299v-157q97 62 162 150l71 -54q-48 -64 -113 -115zM909 781v-208h-284v-176h209q-71 60 -140 103l61 66q108 -71 206 -167l-67 -56v-311q0 -74 -18 -90t-104 -16
q-44 0 -132 5l-3 81q113 -5 125 -5q22 0 26 5t4 32v24h-427v-144h-103v419l-39 46q-5 -275 -108 -460l-78 83q83 177 83 463v306h789z" />
    <glyph glyph-name="uni5C51.jp04" unicode="&#x5c51;" unicode="&#xe0103;" 
d="M223 647h581v54h-581v-54zM365 196v-56h427v56h-427zM365 267h427v51h-427v-51zM343 397h179v176h-299v-157q97 62 162 150l71 -54q-48 -64 -113 -115zM909 781v-208h-284v-176h209q-71 60 -140 103l61 66q108 -71 206 -167l-67 -56v-311q0 -74 -18 -90t-104 -16
q-44 0 -132 5l-3 81q113 -5 125 -5q22 0 26 5t4 32v24h-427v-144h-103v419l-39 46q-5 -275 -108 -460l-78 83q83 177 83 463v306h789z" />
    <glyph glyph-name="uni5C51.jp04" unicode="&#x5c51;" unicode="&#xe0101;" 
d="M223 647h581v54h-581v-54zM365 196v-56h427v56h-427zM365 267h427v51h-427v-51zM343 397h179v176h-299v-157q97 62 162 150l71 -54q-48 -64 -113 -115zM909 781v-208h-284v-176h209q-71 60 -140 103l61 66q108 -71 206 -167l-67 -56v-311q0 -74 -18 -90t-104 -16
q-44 0 -132 5l-3 81q113 -5 125 -5q22 0 26 5t4 32v24h-427v-144h-103v419l-39 46q-5 -275 -108 -460l-78 83q83 177 83 463v306h789z" />
    <glyph glyph-name="uni5DF7.jp04" unicode="&#x5df7;" unicode="&#xe0103;" 
d="M675 372q-31 38 -58 79h-232q-17 -27 -57 -79h347zM314 291v-95h323v95h-323zM382 536h236v98h-236v-98zM314 115v-54q0 -35 7.5 -41t51.5 -7q78 -3 147 -3q65 0 161 3q27 1 37 1t24 5.5t17 10t9 22t8 32.5t6 51l103 -6q-5 -51 -9 -78.5t-14.5 -53t-20.5 -35.5
t-35.5 -18.5t-50.5 -10t-74 -3.5q-118 -4 -176 -4q-47 0 -155 4q-53 2 -77.5 5t-40.5 14.5t-18.5 27.5t-2.5 52v218q-63 -57 -118 -94l-56 86q134 81 235 212h-203v85h208v98h-174v81h174v91h105v-91h236v91h105v-91h174v-81h-174v-98h208v-85h-200q104 -129 232 -207
l-56 -86q-95 66 -167 141v-184h-426z" />
    <glyph glyph-name="uni5DF7.jp04" unicode="&#x5df7;" unicode="&#xe0101;" 
d="M675 372q-31 38 -58 79h-232q-17 -27 -57 -79h347zM314 291v-95h323v95h-323zM382 536h236v98h-236v-98zM314 115v-54q0 -35 7.5 -41t51.5 -7q78 -3 147 -3q65 0 161 3q27 1 37 1t24 5.5t17 10t9 22t8 32.5t6 51l103 -6q-5 -51 -9 -78.5t-14.5 -53t-20.5 -35.5
t-35.5 -18.5t-50.5 -10t-74 -3.5q-118 -4 -176 -4q-47 0 -155 4q-53 2 -77.5 5t-40.5 14.5t-18.5 27.5t-2.5 52v218q-63 -57 -118 -94l-56 86q134 81 235 212h-203v85h208v98h-174v81h174v91h105v-91h236v91h105v-91h174v-81h-174v-98h208v-85h-200q104 -129 232 -207
l-56 -86q-95 66 -167 141v-184h-426z" />
    <glyph glyph-name="uni5DF7.jp04" unicode="&#x5df7;" unicode="&#xe0103;" 
d="M675 372q-31 38 -58 79h-232q-17 -27 -57 -79h347zM314 291v-95h323v95h-323zM382 536h236v98h-236v-98zM314 115v-54q0 -35 7.5 -41t51.5 -7q78 -3 147 -3q65 0 161 3q27 1 37 1t24 5.5t17 10t9 22t8 32.5t6 51l103 -6q-5 -51 -9 -78.5t-14.5 -53t-20.5 -35.5
t-35.5 -18.5t-50.5 -10t-74 -3.5q-118 -4 -176 -4q-47 0 -155 4q-53 2 -77.5 5t-40.5 14.5t-18.5 27.5t-2.5 52v218q-63 -57 -118 -94l-56 86q134 81 235 212h-203v85h208v98h-174v81h174v91h105v-91h236v91h105v-91h174v-81h-174v-98h208v-85h-200q104 -129 232 -207
l-56 -86q-95 66 -167 141v-184h-426z" />
    <glyph glyph-name="uni5DF7.jp04" unicode="&#x5df7;" unicode="&#xe0101;" 
d="M675 372q-31 38 -58 79h-232q-17 -27 -57 -79h347zM314 291v-95h323v95h-323zM382 536h236v98h-236v-98zM314 115v-54q0 -35 7.5 -41t51.5 -7q78 -3 147 -3q65 0 161 3q27 1 37 1t24 5.5t17 10t9 22t8 32.5t6 51l103 -6q-5 -51 -9 -78.5t-14.5 -53t-20.5 -35.5
t-35.5 -18.5t-50.5 -10t-74 -3.5q-118 -4 -176 -4q-47 0 -155 4q-53 2 -77.5 5t-40.5 14.5t-18.5 27.5t-2.5 52v218q-63 -57 -118 -94l-56 86q134 81 235 212h-203v85h208v98h-174v81h174v91h105v-91h236v91h105v-91h174v-81h-174v-98h208v-85h-200q104 -129 232 -207
l-56 -86q-95 66 -167 141v-184h-426z" />
    <glyph glyph-name="uni6372.jp04" unicode="&#x6372;" unicode="&#xe0103;" 
d="M574 475h121q-12 30 -29 86h-55q-13 -34 -37 -86zM776 318q-21 31 -42 71h-206q-24 -40 -48 -71h296zM233 372q31 12 51 22v81h184q20 39 39 86h-103v47q-41 -46 -78 -76l-37 51v-49h-56v-162zM818 125l103 -5q-2 -35 -3 -53t-5 -41.5t-7 -34t-12.5 -24.5t-16.5 -19
t-26 -12t-33.5 -8.5t-45 -4t-56.5 -2.5h-71q-71 0 -112 1t-75.5 5.5t-49 9.5t-25 18.5t-12 27t-1.5 39.5v178q-35 -31 -71 -53l-42 93q90 54 158 149h-120l11 -83q-28 -15 -73 -33v-207q0 -97 -16.5 -119.5t-86.5 -22.5q-18 0 -81 5l-4 86q60 -5 70 -5q13 0 15 6.5t2 44.5
v178q-45 -12 -85 -21l-10 93q36 8 95 25v198h-93v88h93v179h101v-179h56q88 80 135 179l86 -37q-27 -57 -73 -117h98q23 84 31 166l103 -5q-8 -77 -31 -161h175q-47 62 -95 112l81 47q89 -99 164 -221l-71 -53q-26 42 -54 81v-52h-72q13 -43 32 -86h163v-86h-118
q56 -90 130 -147l-52 -80q-54 40 -99 94q-6 -80 -18.5 -118t-30 -49t-53.5 -11q-44 0 -164 8l-5 83q80 -7 128 -7q19 0 26 12.5t13 63.5h-247v-199q0 -26 23.5 -30t162.5 -4h66.5t42 5.5t29 9t13 22t8 32.5t2.5 51z" />
    <glyph glyph-name="uni6372.jp04" unicode="&#x6372;" unicode="&#xe0101;" 
d="M574 475h121q-12 30 -29 86h-55q-13 -34 -37 -86zM776 318q-21 31 -42 71h-206q-24 -40 -48 -71h296zM233 372q31 12 51 22v81h184q20 39 39 86h-103v47q-41 -46 -78 -76l-37 51v-49h-56v-162zM818 125l103 -5q-2 -35 -3 -53t-5 -41.5t-7 -34t-12.5 -24.5t-16.5 -19
t-26 -12t-33.5 -8.5t-45 -4t-56.5 -2.5h-71q-71 0 -112 1t-75.5 5.5t-49 9.5t-25 18.5t-12 27t-1.5 39.5v178q-35 -31 -71 -53l-42 93q90 54 158 149h-120l11 -83q-28 -15 -73 -33v-207q0 -97 -16.5 -119.5t-86.5 -22.5q-18 0 -81 5l-4 86q60 -5 70 -5q13 0 15 6.5t2 44.5
v178q-45 -12 -85 -21l-10 93q36 8 95 25v198h-93v88h93v179h101v-179h56q88 80 135 179l86 -37q-27 -57 -73 -117h98q23 84 31 166l103 -5q-8 -77 -31 -161h175q-47 62 -95 112l81 47q89 -99 164 -221l-71 -53q-26 42 -54 81v-52h-72q13 -43 32 -86h163v-86h-118
q56 -90 130 -147l-52 -80q-54 40 -99 94q-6 -80 -18.5 -118t-30 -49t-53.5 -11q-44 0 -164 8l-5 83q80 -7 128 -7q19 0 26 12.5t13 63.5h-247v-199q0 -26 23.5 -30t162.5 -4h66.5t42 5.5t29 9t13 22t8 32.5t2.5 51z" />
    <glyph glyph-name="uni6372.jp04" unicode="&#x6372;" unicode="&#xe0103;" 
d="M574 475h121q-12 30 -29 86h-55q-13 -34 -37 -86zM776 318q-21 31 -42 71h-206q-24 -40 -48 -71h296zM233 372q31 12 51 22v81h184q20 39 39 86h-103v47q-41 -46 -78 -76l-37 51v-49h-56v-162zM818 125l103 -5q-2 -35 -3 -53t-5 -41.5t-7 -34t-12.5 -24.5t-16.5 -19
t-26 -12t-33.5 -8.5t-45 -4t-56.5 -2.5h-71q-71 0 -112 1t-75.5 5.5t-49 9.5t-25 18.5t-12 27t-1.5 39.5v178q-35 -31 -71 -53l-42 93q90 54 158 149h-120l11 -83q-28 -15 -73 -33v-207q0 -97 -16.5 -119.5t-86.5 -22.5q-18 0 -81 5l-4 86q60 -5 70 -5q13 0 15 6.5t2 44.5
v178q-45 -12 -85 -21l-10 93q36 8 95 25v198h-93v88h93v179h101v-179h56q88 80 135 179l86 -37q-27 -57 -73 -117h98q23 84 31 166l103 -5q-8 -77 -31 -161h175q-47 62 -95 112l81 47q89 -99 164 -221l-71 -53q-26 42 -54 81v-52h-72q13 -43 32 -86h163v-86h-118
q56 -90 130 -147l-52 -80q-54 40 -99 94q-6 -80 -18.5 -118t-30 -49t-53.5 -11q-44 0 -164 8l-5 83q80 -7 128 -7q19 0 26 12.5t13 63.5h-247v-199q0 -26 23.5 -30t162.5 -4h66.5t42 5.5t29 9t13 22t8 32.5t2.5 51z" />
    <glyph glyph-name="uni6372.jp04" unicode="&#x6372;" unicode="&#xe0101;" 
d="M574 475h121q-12 30 -29 86h-55q-13 -34 -37 -86zM776 318q-21 31 -42 71h-206q-24 -40 -48 -71h296zM233 372q31 12 51 22v81h184q20 39 39 86h-103v47q-41 -46 -78 -76l-37 51v-49h-56v-162zM818 125l103 -5q-2 -35 -3 -53t-5 -41.5t-7 -34t-12.5 -24.5t-16.5 -19
t-26 -12t-33.5 -8.5t-45 -4t-56.5 -2.5h-71q-71 0 -112 1t-75.5 5.5t-49 9.5t-25 18.5t-12 27t-1.5 39.5v178q-35 -31 -71 -53l-42 93q90 54 158 149h-120l11 -83q-28 -15 -73 -33v-207q0 -97 -16.5 -119.5t-86.5 -22.5q-18 0 -81 5l-4 86q60 -5 70 -5q13 0 15 6.5t2 44.5
v178q-45 -12 -85 -21l-10 93q36 8 95 25v198h-93v88h93v179h101v-179h56q88 80 135 179l86 -37q-27 -57 -73 -117h98q23 84 31 166l103 -5q-8 -77 -31 -161h175q-47 62 -95 112l81 47q89 -99 164 -221l-71 -53q-26 42 -54 81v-52h-72q13 -43 32 -86h163v-86h-118
q56 -90 130 -147l-52 -80q-54 40 -99 94q-6 -80 -18.5 -118t-30 -49t-53.5 -11q-44 0 -164 8l-5 83q80 -7 128 -7q19 0 26 12.5t13 63.5h-247v-199q0 -26 23.5 -30t162.5 -4h66.5t42 5.5t29 9t13 22t8 32.5t2.5 51z" />
    <glyph glyph-name="uni698A.jp04" unicode="&#x698a;" unicode="&#xe0103;" 
d="M755 465v135h-35v-135h35zM755 380h-35v-142h35v142zM841 465h34v135h-34v-135zM841 380v-142h34v142h-34zM845 688h116v-595h-86v59h-30v-233h-95v233h-30v-59h-85v595h85h30v113h95v-113zM316 688v88h280v-88h-280zM358 -16l-76 17q26 130 33 281l-31 -37
q-27 68 -49 119v-445h-95v349q-24 -91 -61 -159l-54 96q79 150 113 339h-99v88h101v169h95v-169h69v-49h306v-91h-103v-573h-88v573h-120v52h-60q25 -50 79 -167q0 7 0.5 23t0.5 24h76q0 -244 -37 -440zM534 10v414h76v-414h-76z" />
    <glyph glyph-name="uni698A.jp04" unicode="&#x698a;" unicode="&#xe0101;" 
d="M755 465v135h-35v-135h35zM755 380h-35v-142h35v142zM841 465h34v135h-34v-135zM841 380v-142h34v142h-34zM845 688h116v-595h-86v59h-30v-233h-95v233h-30v-59h-85v595h85h30v113h95v-113zM316 688v88h280v-88h-280zM358 -16l-76 17q26 130 33 281l-31 -37
q-27 68 -49 119v-445h-95v349q-24 -91 -61 -159l-54 96q79 150 113 339h-99v88h101v169h95v-169h69v-49h306v-91h-103v-573h-88v573h-120v52h-60q25 -50 79 -167q0 7 0.5 23t0.5 24h76q0 -244 -37 -440zM534 10v414h76v-414h-76z" />
    <glyph glyph-name="uni698A.jp04" unicode="&#x698a;" unicode="&#xe0103;" 
d="M755 465v135h-35v-135h35zM755 380h-35v-142h35v142zM841 465h34v135h-34v-135zM841 380v-142h34v142h-34zM845 688h116v-595h-86v59h-30v-233h-95v233h-30v-59h-85v595h85h30v113h95v-113zM316 688v88h280v-88h-280zM358 -16l-76 17q26 130 33 281l-31 -37
q-27 68 -49 119v-445h-95v349q-24 -91 -61 -159l-54 96q79 150 113 339h-99v88h101v169h95v-169h69v-49h306v-91h-103v-573h-88v573h-120v52h-60q25 -50 79 -167q0 7 0.5 23t0.5 24h76q0 -244 -37 -440zM534 10v414h76v-414h-76z" />
    <glyph glyph-name="uni698A.jp04" unicode="&#x698a;" unicode="&#xe0101;" 
d="M755 465v135h-35v-135h35zM755 380h-35v-142h35v142zM841 465h34v135h-34v-135zM841 380v-142h34v142h-34zM845 688h116v-595h-86v59h-30v-233h-95v233h-30v-59h-85v595h85h30v113h95v-113zM316 688v88h280v-88h-280zM358 -16l-76 17q26 130 33 281l-31 -37
q-27 68 -49 119v-445h-95v349q-24 -91 -61 -159l-54 96q79 150 113 339h-99v88h101v169h95v-169h69v-49h306v-91h-103v-573h-88v573h-120v52h-60q25 -50 79 -167q0 7 0.5 23t0.5 24h76q0 -244 -37 -440zM534 10v414h76v-414h-76z" />
    <glyph glyph-name="uni6C72.jp04" unicode="&#x6c72;" unicode="&#xe0103;" 
d="M526 492h173q35 92 55 189h-218q-1 -86 -10 -189zM698 177q100 99 150 230h-306q53 -136 156 -230zM95 721l60 72q102 -65 187 -133l-61 -73q-86 69 -186 134zM247 356q-83 72 -196 149l60 72q107 -71 196 -147zM311 243q-57 -178 -150 -315l-81 55q89 133 146 303z
M343 681v91h510v-91q-18 -95 -52 -189h142v-85q-58 -170 -173 -288q81 -59 205 -112l-46 -85q-132 56 -231 132q-99 -80 -228 -132l-54 77q118 46 211 116q-81 81 -131 178q-45 -206 -161 -370l-76 63q94 130 136.5 291.5t45.5 403.5h-98z" />
    <glyph glyph-name="uni6C72.jp04" unicode="&#x6c72;" unicode="&#xe0101;" 
d="M526 492h173q35 92 55 189h-218q-1 -86 -10 -189zM698 177q100 99 150 230h-306q53 -136 156 -230zM95 721l60 72q102 -65 187 -133l-61 -73q-86 69 -186 134zM247 356q-83 72 -196 149l60 72q107 -71 196 -147zM311 243q-57 -178 -150 -315l-81 55q89 133 146 303z
M343 681v91h510v-91q-18 -95 -52 -189h142v-85q-58 -170 -173 -288q81 -59 205 -112l-46 -85q-132 56 -231 132q-99 -80 -228 -132l-54 77q118 46 211 116q-81 81 -131 178q-45 -206 -161 -370l-76 63q94 130 136.5 291.5t45.5 403.5h-98z" />
    <glyph glyph-name="uni6C72.jp04" unicode="&#x6c72;" unicode="&#xe0103;" 
d="M526 492h173q35 92 55 189h-218q-1 -86 -10 -189zM698 177q100 99 150 230h-306q53 -136 156 -230zM95 721l60 72q102 -65 187 -133l-61 -73q-86 69 -186 134zM247 356q-83 72 -196 149l60 72q107 -71 196 -147zM311 243q-57 -178 -150 -315l-81 55q89 133 146 303z
M343 681v91h510v-91q-18 -95 -52 -189h142v-85q-58 -170 -173 -288q81 -59 205 -112l-46 -85q-132 56 -231 132q-99 -80 -228 -132l-54 77q118 46 211 116q-81 81 -131 178q-45 -206 -161 -370l-76 63q94 130 136.5 291.5t45.5 403.5h-98z" />
    <glyph glyph-name="uni6C72.jp04" unicode="&#x6c72;" unicode="&#xe0101;" 
d="M526 492h173q35 92 55 189h-218q-1 -86 -10 -189zM698 177q100 99 150 230h-306q53 -136 156 -230zM95 721l60 72q102 -65 187 -133l-61 -73q-86 69 -186 134zM247 356q-83 72 -196 149l60 72q107 -71 196 -147zM311 243q-57 -178 -150 -315l-81 55q89 133 146 303z
M343 681v91h510v-91q-18 -95 -52 -189h142v-85q-58 -170 -173 -288q81 -59 205 -112l-46 -85q-132 56 -231 132q-99 -80 -228 -132l-54 77q118 46 211 116q-81 81 -131 178q-45 -206 -161 -370l-76 63q94 130 136.5 291.5t45.5 403.5h-98z" />
    <glyph glyph-name="uni7078.jp04" unicode="&#x7078;" unicode="&#xe0101;" 
d="M611 514q-194 -109 -529 -169l-24 86q241 41 382 95.5t232 137.5h-316q-100 -92 -221 -154l-66 72q194 99 299 239l104 -20q-24 -36 -38 -54h372v-83q-53 -56 -116 -100q87 -81 260 -155l-27 -86q-196 75 -312 191zM446 426h108v-125q0 -102 91.5 -172t291.5 -110
l-39 -93q-133 25 -236.5 86t-157.5 141q-56 -81 -161 -141.5t-241 -85.5l-39 93q201 40 292 110t91 172v125zM122 165q75 86 109 184l90 -35q-34 -101 -114 -196zM748 110l-84 51q86 83 131 179l89 -39q-49 -107 -136 -191z" />
    <glyph glyph-name="uni7078.jp04" unicode="&#x7078;" unicode="&#xe0101;" 
d="M611 514q-194 -109 -529 -169l-24 86q241 41 382 95.5t232 137.5h-316q-100 -92 -221 -154l-66 72q194 99 299 239l104 -20q-24 -36 -38 -54h372v-83q-53 -56 -116 -100q87 -81 260 -155l-27 -86q-196 75 -312 191zM446 426h108v-125q0 -102 91.5 -172t291.5 -110
l-39 -93q-133 25 -236.5 86t-157.5 141q-56 -81 -161 -141.5t-241 -85.5l-39 93q201 40 292 110t91 172v125zM122 165q75 86 109 184l90 -35q-34 -101 -114 -196zM748 110l-84 51q86 83 131 179l89 -39q-49 -107 -136 -191z" />
    <glyph glyph-name="uni7511.jp04" unicode="&#x7511;" unicode="&#xe0105;" 
d="M767 200l-71 -38q-36 109 -61 174q-11 -111 -34 -279q107 28 166 52v91zM767 235v240h-120q-1 -15 -3.5 -42.5t-3.5 -40.5l56 32q36 -85 71 -189zM372 654q-14 19 -38 61h-121v3q-14 -27 -40 -64h199zM412 536q-18 -68 -50 -127l-56 19v-26h106v134zM412 556v24h-106
v-131q31 61 45 123zM135 554l53 19q28 -54 52 -130v137h-105v-26zM135 402h105v24l-61 -16q-19 65 -44 121v-129zM189 88v-56h162v56h-162zM189 157h162v56h-162v-56zM872 29q16 0 19.5 30.5t5.5 212.5l78 -10q-4 -224 -17 -271q-11 -41 -43 -49q-15 -3 -52 -3
q-58 0 -76 14.5t-20 65.5q-123 -49 -289 -83l-20 88l42 9q43 292 61 641h-76v88h468v-88h-294q-4 -76 -6 -113h210v-495v-9q0 -21 1 -24.5t8 -3.5zM395 796q51 -100 130 -170l-40 -45v-250h-350h-74v248l-42 47q79 69 129 167l65 -38v41h182zM449 286v-367h-98v39h-162v-39
h-101v367h361z" />
    <glyph glyph-name="uni7511.jp04" unicode="&#x7511;" unicode="&#xe0103;" 
d="M767 200l-71 -38q-36 109 -61 174q-11 -111 -34 -279q107 28 166 52v91zM767 235v240h-120q-1 -15 -3.5 -42.5t-3.5 -40.5l56 32q36 -85 71 -189zM372 654q-14 19 -38 61h-121v3q-14 -27 -40 -64h199zM412 536q-18 -68 -50 -127l-56 19v-26h106v134zM412 556v24h-106
v-131q31 61 45 123zM135 554l53 19q28 -54 52 -130v137h-105v-26zM135 402h105v24l-61 -16q-19 65 -44 121v-129zM189 88v-56h162v56h-162zM189 157h162v56h-162v-56zM872 29q16 0 19.5 30.5t5.5 212.5l78 -10q-4 -224 -17 -271q-11 -41 -43 -49q-15 -3 -52 -3
q-58 0 -76 14.5t-20 65.5q-123 -49 -289 -83l-20 88l42 9q43 292 61 641h-76v88h468v-88h-294q-4 -76 -6 -113h210v-495v-9q0 -21 1 -24.5t8 -3.5zM395 796q51 -100 130 -170l-40 -45v-250h-350h-74v248l-42 47q79 69 129 167l65 -38v41h182zM449 286v-367h-98v39h-162v-39
h-101v367h361z" />
    <glyph glyph-name="uni7511.jp04" unicode="&#x7511;" unicode="&#xe0105;" 
d="M767 200l-71 -38q-36 109 -61 174q-11 -111 -34 -279q107 28 166 52v91zM767 235v240h-120q-1 -15 -3.5 -42.5t-3.5 -40.5l56 32q36 -85 71 -189zM372 654q-14 19 -38 61h-121v3q-14 -27 -40 -64h199zM412 536q-18 -68 -50 -127l-56 19v-26h106v134zM412 556v24h-106
v-131q31 61 45 123zM135 554l53 19q28 -54 52 -130v137h-105v-26zM135 402h105v24l-61 -16q-19 65 -44 121v-129zM189 88v-56h162v56h-162zM189 157h162v56h-162v-56zM872 29q16 0 19.5 30.5t5.5 212.5l78 -10q-4 -224 -17 -271q-11 -41 -43 -49q-15 -3 -52 -3
q-58 0 -76 14.5t-20 65.5q-123 -49 -289 -83l-20 88l42 9q43 292 61 641h-76v88h468v-88h-294q-4 -76 -6 -113h210v-495v-9q0 -21 1 -24.5t8 -3.5zM395 796q51 -100 130 -170l-40 -45v-250h-350h-74v248l-42 47q79 69 129 167l65 -38v41h182zM449 286v-367h-98v39h-162v-39
h-101v367h361z" />
    <glyph glyph-name="uni7511.jp04" unicode="&#x7511;" unicode="&#xe0103;" 
d="M767 200l-71 -38q-36 109 -61 174q-11 -111 -34 -279q107 28 166 52v91zM767 235v240h-120q-1 -15 -3.5 -42.5t-3.5 -40.5l56 32q36 -85 71 -189zM372 654q-14 19 -38 61h-121v3q-14 -27 -40 -64h199zM412 536q-18 -68 -50 -127l-56 19v-26h106v134zM412 556v24h-106
v-131q31 61 45 123zM135 554l53 19q28 -54 52 -130v137h-105v-26zM135 402h105v24l-61 -16q-19 65 -44 121v-129zM189 88v-56h162v56h-162zM189 157h162v56h-162v-56zM872 29q16 0 19.5 30.5t5.5 212.5l78 -10q-4 -224 -17 -271q-11 -41 -43 -49q-15 -3 -52 -3
q-58 0 -76 14.5t-20 65.5q-123 -49 -289 -83l-20 88l42 9q43 292 61 641h-76v88h468v-88h-294q-4 -76 -6 -113h210v-495v-9q0 -21 1 -24.5t8 -3.5zM395 796q51 -100 130 -170l-40 -45v-250h-350h-74v248l-42 47q79 69 129 167l65 -38v41h182zM449 286v-367h-98v39h-162v-39
h-101v367h361z" />
    <glyph glyph-name="uni7941.jp04" unicode="&#x7941;" unicode="&#xe0103;" 
d="M837 435q56 -47 87.5 -112t31.5 -135q0 -86 -37.5 -123.5t-117.5 -37.5h-78l-17 90h44q62 0 82.5 15t20.5 59q0 119 -129 239q72 125 120 263h-168v-769h-100v852h372v-83q-44 -135 -111 -258zM86 688v88h416v-88h-416zM250 492h-193v91h475v-91h-181v-573h-101v573z
M57 2q41 183 41 422h93q0 -250 -44 -446zM414 12v412h93v-412h-93z" />
    <glyph glyph-name="uni7941.jp04" unicode="&#x7941;" unicode="&#xe0101;" 
d="M837 435q56 -47 87.5 -112t31.5 -135q0 -86 -37.5 -123.5t-117.5 -37.5h-78l-17 90h44q62 0 82.5 15t20.5 59q0 119 -129 239q72 125 120 263h-168v-769h-100v852h372v-83q-44 -135 -111 -258zM86 688v88h416v-88h-416zM250 492h-193v91h475v-91h-181v-573h-101v573z
M57 2q41 183 41 422h93q0 -250 -44 -446zM414 12v412h93v-412h-93z" />
    <glyph glyph-name="uni7941.jp04" unicode="&#x7941;" unicode="&#xe0103;" 
d="M837 435q56 -47 87.5 -112t31.5 -135q0 -86 -37.5 -123.5t-117.5 -37.5h-78l-17 90h44q62 0 82.5 15t20.5 59q0 119 -129 239q72 125 120 263h-168v-769h-100v852h372v-83q-44 -135 -111 -258zM86 688v88h416v-88h-416zM250 492h-193v91h475v-91h-181v-573h-101v573z
M57 2q41 183 41 422h93q0 -250 -44 -446zM414 12v412h93v-412h-93z" />
    <glyph glyph-name="uni7941.jp04" unicode="&#x7941;" unicode="&#xe0101;" 
d="M837 435q56 -47 87.5 -112t31.5 -135q0 -86 -37.5 -123.5t-117.5 -37.5h-78l-17 90h44q62 0 82.5 15t20.5 59q0 119 -129 239q72 125 120 263h-168v-769h-100v852h372v-83q-44 -135 -111 -258zM86 688v88h416v-88h-416zM250 492h-193v91h475v-91h-181v-573h-101v573z
M57 2q41 183 41 422h93q0 -250 -44 -446zM414 12v412h93v-412h-93z" />
    <glyph glyph-name="uni7B08.jp04" unicode="&#x7b08;" unicode="&#xe0104;" 
d="M339 336h311q22 53 36 110h-335q-3 -57 -12 -110zM616 115q116 58 181 140h-378q70 -81 197 -140zM527 539l-70 58q38 32 56 51h-135q11 -28 31 -82l-94 -27q-18 49 -42 109h-52q-46 -59 -108 -109l-70 58q56 47 102.5 106t70.5 115l92 -18q-15 -40 -29 -64h248v-72
q69 75 103 154l92 -18q-15 -40 -29 -64h248v-88h-149q11 -28 31 -82l-94 -27q-18 49 -42 109h-52q-46 -59 -108 -109zM284 -79l-39 86q150 25 260 63q-118 70 -188 166q-57 -205 -209 -315l-69 74q199 141 215 451h-175v83h713v-83q-14 -56 -35 -110h150v-81
q-62 -109 -181 -184q96 -34 225 -64l-44 -86q-168 40 -291 93q-134 -57 -332 -93z" />
    <glyph glyph-name="uni7B08.jp04" unicode="&#x7b08;" unicode="&#xe0102;" 
d="M339 336h311q22 53 36 110h-335q-3 -57 -12 -110zM616 115q116 58 181 140h-378q70 -81 197 -140zM527 539l-70 58q38 32 56 51h-135q11 -28 31 -82l-94 -27q-18 49 -42 109h-52q-46 -59 -108 -109l-70 58q56 47 102.5 106t70.5 115l92 -18q-15 -40 -29 -64h248v-72
q69 75 103 154l92 -18q-15 -40 -29 -64h248v-88h-149q11 -28 31 -82l-94 -27q-18 49 -42 109h-52q-46 -59 -108 -109zM284 -79l-39 86q150 25 260 63q-118 70 -188 166q-57 -205 -209 -315l-69 74q199 141 215 451h-175v83h713v-83q-14 -56 -35 -110h150v-81
q-62 -109 -181 -184q96 -34 225 -64l-44 -86q-168 40 -291 93q-134 -57 -332 -93z" />
    <glyph glyph-name="uni7B08.jp04" unicode="&#x7b08;" unicode="&#xe0104;" 
d="M339 336h311q22 53 36 110h-335q-3 -57 -12 -110zM616 115q116 58 181 140h-378q70 -81 197 -140zM527 539l-70 58q38 32 56 51h-135q11 -28 31 -82l-94 -27q-18 49 -42 109h-52q-46 -59 -108 -109l-70 58q56 47 102.5 106t70.5 115l92 -18q-15 -40 -29 -64h248v-72
q69 75 103 154l92 -18q-15 -40 -29 -64h248v-88h-149q11 -28 31 -82l-94 -27q-18 49 -42 109h-52q-46 -59 -108 -109zM284 -79l-39 86q150 25 260 63q-118 70 -188 166q-57 -205 -209 -315l-69 74q199 141 215 451h-175v83h713v-83q-14 -56 -35 -110h150v-81
q-62 -109 -181 -184q96 -34 225 -64l-44 -86q-168 40 -291 93q-134 -57 -332 -93z" />
    <glyph glyph-name="uni7B08.jp04" unicode="&#x7b08;" unicode="&#xe0102;" 
d="M339 336h311q22 53 36 110h-335q-3 -57 -12 -110zM616 115q116 58 181 140h-378q70 -81 197 -140zM527 539l-70 58q38 32 56 51h-135q11 -28 31 -82l-94 -27q-18 49 -42 109h-52q-46 -59 -108 -109l-70 58q56 47 102.5 106t70.5 115l92 -18q-15 -40 -29 -64h248v-72
q69 75 103 154l92 -18q-15 -40 -29 -64h248v-88h-149q11 -28 31 -82l-94 -27q-18 49 -42 109h-52q-46 -59 -108 -109zM284 -79l-39 86q150 25 260 63q-118 70 -188 166q-57 -205 -209 -315l-69 74q199 141 215 451h-175v83h713v-83q-14 -56 -35 -110h150v-81
q-62 -109 -181 -184q96 -34 225 -64l-44 -86q-168 40 -291 93q-134 -57 -332 -93z" />
    <glyph glyph-name="uni7C82.jp04" unicode="&#x7c82;" unicode="&#xe0101;" 
d="M446 429h108v-167h62q69 60 115 123l86 -45q-27 -37 -68 -78h177v-86h-289q125 -83 321 -152l-39 -87q-232 89 -365 198v-211h-108v211q-133 -109 -365 -198l-39 87q196 69 321 152h-289v86h186q-32 33 -79 75l75 45q-97 -23 -174 -37l-24 86q241 41 382 95.5t232 137.5
h-316q-100 -92 -221 -154l-66 72q194 99 299 239l104 -20q-24 -36 -38 -54h372v-83q-53 -56 -116 -100q87 -81 260 -155l-27 -86q-196 75 -312 191q-137 -77 -346 -130q67 -59 121 -122h60v167z" />
    <glyph glyph-name="uni7C82.jp04" unicode="&#x7c82;" unicode="&#xe0101;" 
d="M446 429h108v-167h62q69 60 115 123l86 -45q-27 -37 -68 -78h177v-86h-289q125 -83 321 -152l-39 -87q-232 89 -365 198v-211h-108v211q-133 -109 -365 -198l-39 87q196 69 321 152h-289v86h186q-32 33 -79 75l75 45q-97 -23 -174 -37l-24 86q241 41 382 95.5t232 137.5
h-316q-100 -92 -221 -154l-66 72q194 99 299 239l104 -20q-24 -36 -38 -54h372v-83q-53 -56 -116 -100q87 -81 260 -155l-27 -86q-196 75 -312 191q-137 -77 -346 -130q67 -59 121 -122h60v167z" />
    <glyph glyph-name="uni85A9.jp04" unicode="&#x85a9;" unicode="&#xe0103;" 
d="M184 350q66 80 110 169h-110v-169zM706 473q68 27 101 44h-268q88 -20 167 -44zM832 362q-91 34 -120 43q-77 -27 -150 -43h270zM615 242h57v44h-194v-51q0 -45 -3 -86q34 54 54 128l91 -15q-1 -3 -2.5 -10t-2.5 -10zM565 127h107v42h-85q-17 -33 -22 -42zM725 757h211
v-83h-211v-25h-103v25h-244v-42h-103v42h-211v83h211v64h103v-64h244v64h103v-64zM948 12v-81h-487v81h211v44h-138v25l-64 19q-14 -106 -61 -188l-85 46q37 64 49 147q-30 -71 -130 -71h-32l-15 88v3q52 0 70 13t18 50q0 35 -21.5 65.5t-78.5 69.5v-406h-103v688h316v-86
q-35 -82 -100 -171q71 -64 84 -133q1 23 1 76v71h83l-32 40q90 14 168 36q-58 15 -144 32l32 47h-70v76h203v39h103v-39h204v-76h-69l30 -29q-33 -22 -86 -46q84 -29 109 -38l-27 -42h53v-76h-165v-44h155v-73h-155v-42h135v-71h-135v-44h174z" />
    <glyph glyph-name="uni85A9.jp04" unicode="&#x85a9;" unicode="&#xe0101;" 
d="M184 350q66 80 110 169h-110v-169zM706 473q68 27 101 44h-268q88 -20 167 -44zM832 362q-91 34 -120 43q-77 -27 -150 -43h270zM615 242h57v44h-194v-51q0 -45 -3 -86q34 54 54 128l91 -15q-1 -3 -2.5 -10t-2.5 -10zM565 127h107v42h-85q-17 -33 -22 -42zM725 757h211
v-83h-211v-25h-103v25h-244v-42h-103v42h-211v83h211v64h103v-64h244v64h103v-64zM948 12v-81h-487v81h211v44h-138v25l-64 19q-14 -106 -61 -188l-85 46q37 64 49 147q-30 -71 -130 -71h-32l-15 88v3q52 0 70 13t18 50q0 35 -21.5 65.5t-78.5 69.5v-406h-103v688h316v-86
q-35 -82 -100 -171q71 -64 84 -133q1 23 1 76v71h83l-32 40q90 14 168 36q-58 15 -144 32l32 47h-70v76h203v39h103v-39h204v-76h-69l30 -29q-33 -22 -86 -46q84 -29 109 -38l-27 -42h53v-76h-165v-44h155v-73h-155v-42h135v-71h-135v-44h174z" />
    <glyph glyph-name="uni85A9.jp04" unicode="&#x85a9;" unicode="&#xe0103;" 
d="M184 350q66 80 110 169h-110v-169zM706 473q68 27 101 44h-268q88 -20 167 -44zM832 362q-91 34 -120 43q-77 -27 -150 -43h270zM615 242h57v44h-194v-51q0 -45 -3 -86q34 54 54 128l91 -15q-1 -3 -2.5 -10t-2.5 -10zM565 127h107v42h-85q-17 -33 -22 -42zM725 757h211
v-83h-211v-25h-103v25h-244v-42h-103v42h-211v83h211v64h103v-64h244v64h103v-64zM948 12v-81h-487v81h211v44h-138v25l-64 19q-14 -106 -61 -188l-85 46q37 64 49 147q-30 -71 -130 -71h-32l-15 88v3q52 0 70 13t18 50q0 35 -21.5 65.5t-78.5 69.5v-406h-103v688h316v-86
q-35 -82 -100 -171q71 -64 84 -133q1 23 1 76v71h83l-32 40q90 14 168 36q-58 15 -144 32l32 47h-70v76h203v39h103v-39h204v-76h-69l30 -29q-33 -22 -86 -46q84 -29 109 -38l-27 -42h53v-76h-165v-44h155v-73h-155v-42h135v-71h-135v-44h174z" />
    <glyph glyph-name="uni85A9.jp04" unicode="&#x85a9;" unicode="&#xe0101;" 
d="M184 350q66 80 110 169h-110v-169zM706 473q68 27 101 44h-268q88 -20 167 -44zM832 362q-91 34 -120 43q-77 -27 -150 -43h270zM615 242h57v44h-194v-51q0 -45 -3 -86q34 54 54 128l91 -15q-1 -3 -2.5 -10t-2.5 -10zM565 127h107v42h-85q-17 -33 -22 -42zM725 757h211
v-83h-211v-25h-103v25h-244v-42h-103v42h-211v83h211v64h103v-64h244v64h103v-64zM948 12v-81h-487v81h211v44h-138v25l-64 19q-14 -106 -61 -188l-85 46q37 64 49 147q-30 -71 -130 -71h-32l-15 88v3q52 0 70 13t18 50q0 35 -21.5 65.5t-78.5 69.5v-406h-103v688h316v-86
q-35 -82 -100 -171q71 -64 84 -133q1 23 1 76v71h83l-32 40q90 14 168 36q-58 15 -144 32l32 47h-70v76h203v39h103v-39h204v-76h-69l30 -29q-33 -22 -86 -46q84 -29 109 -38l-27 -42h53v-76h-165v-44h155v-73h-155v-42h135v-71h-135v-44h174z" />
    <glyph glyph-name="uni8AFA.jp04" unicode="&#x8afa;" unicode="&#xe0103;" 
d="M169 37h103v88h-103v-88zM698 617q60 27 108 57h-284q96 -28 176 -57zM830 490q-49 22 -127 53q-79 -32 -163 -53h290zM76 686v86h282v-86h-282zM54 544v88h321v-88h-321zM84 404v83h271v-83h-271zM84 264v84h271v-84h-271zM892 367q-123 -71 -333 -115l-32 76
q167 34 276 83h-303v-31q0 -168 -12.5 -272t-43.5 -189l-84 62v-28h-191v-39h-93v294h284v-209q25 75 34.5 164.5t9.5 257.5v69h75l-36 46q67 14 159 44q-85 28 -147 45l36 49h-96v80h225v72h105v-72h211v-80h-86l38 -31q-37 -29 -98 -61q49 -19 119 -51l-29 -41h66v-79h-79
zM547 86l-32 80q220 42 370 130l39 -71q-151 -93 -377 -139zM912 149l44 -68q-165 -112 -429 -162l-32 81q254 48 417 149z" />
    <glyph glyph-name="uni8AFA.jp04" unicode="&#x8afa;" unicode="&#xe0101;" 
d="M169 37h103v88h-103v-88zM698 617q60 27 108 57h-284q96 -28 176 -57zM830 490q-49 22 -127 53q-79 -32 -163 -53h290zM76 686v86h282v-86h-282zM54 544v88h321v-88h-321zM84 404v83h271v-83h-271zM84 264v84h271v-84h-271zM892 367q-123 -71 -333 -115l-32 76
q167 34 276 83h-303v-31q0 -168 -12.5 -272t-43.5 -189l-84 62v-28h-191v-39h-93v294h284v-209q25 75 34.5 164.5t9.5 257.5v69h75l-36 46q67 14 159 44q-85 28 -147 45l36 49h-96v80h225v72h105v-72h211v-80h-86l38 -31q-37 -29 -98 -61q49 -19 119 -51l-29 -41h66v-79h-79
zM547 86l-32 80q220 42 370 130l39 -71q-151 -93 -377 -139zM912 149l44 -68q-165 -112 -429 -162l-32 81q254 48 417 149z" />
    <glyph glyph-name="uni8AFA.jp04" unicode="&#x8afa;" unicode="&#xe0103;" 
d="M169 37h103v88h-103v-88zM698 617q60 27 108 57h-284q96 -28 176 -57zM830 490q-49 22 -127 53q-79 -32 -163 -53h290zM76 686v86h282v-86h-282zM54 544v88h321v-88h-321zM84 404v83h271v-83h-271zM84 264v84h271v-84h-271zM892 367q-123 -71 -333 -115l-32 76
q167 34 276 83h-303v-31q0 -168 -12.5 -272t-43.5 -189l-84 62v-28h-191v-39h-93v294h284v-209q25 75 34.5 164.5t9.5 257.5v69h75l-36 46q67 14 159 44q-85 28 -147 45l36 49h-96v80h225v72h105v-72h211v-80h-86l38 -31q-37 -29 -98 -61q49 -19 119 -51l-29 -41h66v-79h-79
zM547 86l-32 80q220 42 370 130l39 -71q-151 -93 -377 -139zM912 149l44 -68q-165 -112 -429 -162l-32 81q254 48 417 149z" />
    <glyph glyph-name="uni8AFA.jp04" unicode="&#x8afa;" unicode="&#xe0101;" 
d="M169 37h103v88h-103v-88zM698 617q60 27 108 57h-284q96 -28 176 -57zM830 490q-49 22 -127 53q-79 -32 -163 -53h290zM76 686v86h282v-86h-282zM54 544v88h321v-88h-321zM84 404v83h271v-83h-271zM84 264v84h271v-84h-271zM892 367q-123 -71 -333 -115l-32 76
q167 34 276 83h-303v-31q0 -168 -12.5 -272t-43.5 -189l-84 62v-28h-191v-39h-93v294h284v-209q25 75 34.5 164.5t9.5 257.5v69h75l-36 46q67 14 159 44q-85 28 -147 45l36 49h-96v80h225v72h105v-72h211v-80h-86l38 -31q-37 -29 -98 -61q49 -19 119 -51l-29 -41h66v-79h-79
zM547 86l-32 80q220 42 370 130l39 -71q-151 -93 -377 -139zM912 149l44 -68q-165 -112 -429 -162l-32 81q254 48 417 149z" />
    <glyph glyph-name="uni9306.jp04" unicode="&#x9306;" unicode="&#xe0103;" 
d="M169 607h206q-58 47 -112 116q-42 -61 -94 -116zM395 429v71h230v46h-169v76h169v47h-183q14 -10 21 -14l-34 -86q-4 3 -11.5 8l-10.5 7v-60h-103v-95h91zM622 188v116h-102v-116h102zM718 188h103v116h-103v-116zM69 287l75 21q24 -79 47 -187l-75 -20q-24 106 -47 186z
M317 154q23 78 41 161l66 -14v3v39h-120v-249q80 24 120 38v135q-15 -64 -35 -132zM733 500h220v-79h-524v-37h492v-337q0 -79 -20 -97.5t-107 -18.5q-38 0 -115 5l-3 88q83 -5 103 -5q27 0 32 4t5 24v63h-292v-181h-100v113q-183 -62 -364 -101l-12 88q74 15 158 38v276
h-145v86h145v95h-86v36q-36 -33 -65 -54l-21 100q91 71 178 188h94q53 -63 103 -102v58h216v61h108v-61h208v-81h-208v-47h186v-76h-186v-46z" />
    <glyph glyph-name="uni9306.jp04" unicode="&#x9306;" unicode="&#xe0101;" 
d="M169 607h206q-58 47 -112 116q-42 -61 -94 -116zM395 429v71h230v46h-169v76h169v47h-183q14 -10 21 -14l-34 -86q-4 3 -11.5 8l-10.5 7v-60h-103v-95h91zM622 188v116h-102v-116h102zM718 188h103v116h-103v-116zM69 287l75 21q24 -79 47 -187l-75 -20q-24 106 -47 186z
M317 154q23 78 41 161l66 -14v3v39h-120v-249q80 24 120 38v135q-15 -64 -35 -132zM733 500h220v-79h-524v-37h492v-337q0 -79 -20 -97.5t-107 -18.5q-38 0 -115 5l-3 88q83 -5 103 -5q27 0 32 4t5 24v63h-292v-181h-100v113q-183 -62 -364 -101l-12 88q74 15 158 38v276
h-145v86h145v95h-86v36q-36 -33 -65 -54l-21 100q91 71 178 188h94q53 -63 103 -102v58h216v61h108v-61h208v-81h-208v-47h186v-76h-186v-46z" />
    <glyph glyph-name="uni9306.jp04" unicode="&#x9306;" unicode="&#xe0103;" 
d="M169 607h206q-58 47 -112 116q-42 -61 -94 -116zM395 429v71h230v46h-169v76h169v47h-183q14 -10 21 -14l-34 -86q-4 3 -11.5 8l-10.5 7v-60h-103v-95h91zM622 188v116h-102v-116h102zM718 188h103v116h-103v-116zM69 287l75 21q24 -79 47 -187l-75 -20q-24 106 -47 186z
M317 154q23 78 41 161l66 -14v3v39h-120v-249q80 24 120 38v135q-15 -64 -35 -132zM733 500h220v-79h-524v-37h492v-337q0 -79 -20 -97.5t-107 -18.5q-38 0 -115 5l-3 88q83 -5 103 -5q27 0 32 4t5 24v63h-292v-181h-100v113q-183 -62 -364 -101l-12 88q74 15 158 38v276
h-145v86h145v95h-86v36q-36 -33 -65 -54l-21 100q91 71 178 188h94q53 -63 103 -102v58h216v61h108v-61h208v-81h-208v-47h186v-76h-186v-46z" />
    <glyph glyph-name="uni9306.jp04" unicode="&#x9306;" unicode="&#xe0101;" 
d="M169 607h206q-58 47 -112 116q-42 -61 -94 -116zM395 429v71h230v46h-169v76h169v47h-183q14 -10 21 -14l-34 -86q-4 3 -11.5 8l-10.5 7v-60h-103v-95h91zM622 188v116h-102v-116h102zM718 188h103v116h-103v-116zM69 287l75 21q24 -79 47 -187l-75 -20q-24 106 -47 186z
M317 154q23 78 41 161l66 -14v3v39h-120v-249q80 24 120 38v135q-15 -64 -35 -132zM733 500h220v-79h-524v-37h492v-337q0 -79 -20 -97.5t-107 -18.5q-38 0 -115 5l-3 88q83 -5 103 -5q27 0 32 4t5 24v63h-292v-181h-100v113q-183 -62 -364 -101l-12 88q74 15 158 38v276
h-145v86h145v95h-86v36q-36 -33 -65 -54l-21 100q91 71 178 188h94q53 -63 103 -102v58h216v61h108v-61h208v-81h-208v-47h186v-76h-186v-46z" />
    <glyph glyph-name="uni9699.jp04" unicode="&#x9699;" unicode="&#xe0101;" 
d="M480 409h319v56h-319v-56zM480 336v-59h319v59h-319zM255 29q120 62 194 152l68 -59q-85 -104 -208 -169zM716 110l58 71q111 -76 196 -162l-58 -71q-91 89 -196 162zM275 267q0 48 -18 86.5t-69 99.5q68 113 111 243h-122v-772h-98v852h313v-80q-6 -20 -14 -42
q63 54 107 120l76 -49q-66 -107 -175 -181h94h111v252h103v-252h203q-82 94 -181 171l68 61q99 -77 184 -176l-66 -57v-347h-208v-159q0 -73 -17 -90.5t-89 -17.5q-48 0 -122 5l-5 88q53 -5 93 -5q28 0 32.5 5.5t4.5 36.5v137h-211v348l-34 33q-32 -73 -58 -119
q80 -103 80 -213q0 -73 -34 -106.5t-104 -33.5h-19l-17 83h19q35 0 48.5 16.5t13.5 62.5z" />
    <glyph glyph-name="uni9699.jp04" unicode="&#x9699;" unicode="&#xe0101;" 
d="M480 409h319v56h-319v-56zM480 336v-59h319v59h-319zM255 29q120 62 194 152l68 -59q-85 -104 -208 -169zM716 110l58 71q111 -76 196 -162l-58 -71q-91 89 -196 162zM275 267q0 48 -18 86.5t-69 99.5q68 113 111 243h-122v-772h-98v852h313v-80q-6 -20 -14 -42
q63 54 107 120l76 -49q-66 -107 -175 -181h94h111v252h103v-252h203q-82 94 -181 171l68 61q99 -77 184 -176l-66 -57v-347h-208v-159q0 -73 -17 -90.5t-89 -17.5q-48 0 -122 5l-5 88q53 -5 93 -5q28 0 32.5 5.5t4.5 36.5v137h-211v348l-34 33q-32 -73 -58 -119
q80 -103 80 -213q0 -73 -34 -106.5t-104 -33.5h-19l-17 83h19q35 0 48.5 16.5t13.5 62.5z" />
    <glyph glyph-name="uni9910.jp04" unicode="&#x9910;" unicode="&#xe0103;" 
d="M307 551q50 27 80 61h-164q53 -36 84 -61zM701 613q85 42 128 97h-207q31 -54 79 -97zM427 407h146q-41 20 -73 37q-32 -17 -73 -37zM373 381q-61 -28 -116 -50h485q-58 24 -115 50v-28h-254v28zM284 188v-26h427v26h-427zM284 242h427v27h-427v-27zM490 51
q-35 25 -60 52h-146v-82q104 12 206 30zM685 43q58 33 96 60h-226q55 -35 130 -60zM101 541l-64 59q89 55 135 128l61 -28v126h103v-42h149v-74h-149v-29h157v-69q-73 -149 -395 -213l-46 79q97 15 170 38q-36 28 -76 53q-18 -13 -45 -28zM517 710v79h419v-79
q-53 -91 -162 -152q81 -49 189 -78l-29 -78q-143 38 -249 115q-53 -20 -103 -34q154 -78 380 -133l-22 -88q-50 15 -124 41v-174q32 24 47 37l63 -49q-64 -55 -140 -101q69 -15 155 -21l-32 -78q-245 18 -404 124v-66q-227 -43 -431 -56l-8 81q57 3 113 9v292
q-55 -20 -119 -39l-22 88q231 55 402 145h68l-20 56q68 9 125 27q-46 46 -79 100l68 32h-85z" />
    <glyph glyph-name="uni9910.jp04" unicode="&#x9910;" unicode="&#xe0101;" 
d="M307 551q50 27 80 61h-164q53 -36 84 -61zM701 613q85 42 128 97h-207q31 -54 79 -97zM427 407h146q-41 20 -73 37q-32 -17 -73 -37zM373 381q-61 -28 -116 -50h485q-58 24 -115 50v-28h-254v28zM284 188v-26h427v26h-427zM284 242h427v27h-427v-27zM490 51
q-35 25 -60 52h-146v-82q104 12 206 30zM685 43q58 33 96 60h-226q55 -35 130 -60zM101 541l-64 59q89 55 135 128l61 -28v126h103v-42h149v-74h-149v-29h157v-69q-73 -149 -395 -213l-46 79q97 15 170 38q-36 28 -76 53q-18 -13 -45 -28zM517 710v79h419v-79
q-53 -91 -162 -152q81 -49 189 -78l-29 -78q-143 38 -249 115q-53 -20 -103 -34q154 -78 380 -133l-22 -88q-50 15 -124 41v-174q32 24 47 37l63 -49q-64 -55 -140 -101q69 -15 155 -21l-32 -78q-245 18 -404 124v-66q-227 -43 -431 -56l-8 81q57 3 113 9v292
q-55 -20 -119 -39l-22 88q231 55 402 145h68l-20 56q68 9 125 27q-46 46 -79 100l68 32h-85z" />
    <glyph glyph-name="uni9910.jp04" unicode="&#x9910;" unicode="&#xe0103;" 
d="M307 551q50 27 80 61h-164q53 -36 84 -61zM701 613q85 42 128 97h-207q31 -54 79 -97zM427 407h146q-41 20 -73 37q-32 -17 -73 -37zM373 381q-61 -28 -116 -50h485q-58 24 -115 50v-28h-254v28zM284 188v-26h427v26h-427zM284 242h427v27h-427v-27zM490 51
q-35 25 -60 52h-146v-82q104 12 206 30zM685 43q58 33 96 60h-226q55 -35 130 -60zM101 541l-64 59q89 55 135 128l61 -28v126h103v-42h149v-74h-149v-29h157v-69q-73 -149 -395 -213l-46 79q97 15 170 38q-36 28 -76 53q-18 -13 -45 -28zM517 710v79h419v-79
q-53 -91 -162 -152q81 -49 189 -78l-29 -78q-143 38 -249 115q-53 -20 -103 -34q154 -78 380 -133l-22 -88q-50 15 -124 41v-174q32 24 47 37l63 -49q-64 -55 -140 -101q69 -15 155 -21l-32 -78q-245 18 -404 124v-66q-227 -43 -431 -56l-8 81q57 3 113 9v292
q-55 -20 -119 -39l-22 88q231 55 402 145h68l-20 56q68 9 125 27q-46 46 -79 100l68 32h-85z" />
    <glyph glyph-name="uni9910.jp04" unicode="&#x9910;" unicode="&#xe0101;" 
d="M307 551q50 27 80 61h-164q53 -36 84 -61zM701 613q85 42 128 97h-207q31 -54 79 -97zM427 407h146q-41 20 -73 37q-32 -17 -73 -37zM373 381q-61 -28 -116 -50h485q-58 24 -115 50v-28h-254v28zM284 188v-26h427v26h-427zM284 242h427v27h-427v-27zM490 51
q-35 25 -60 52h-146v-82q104 12 206 30zM685 43q58 33 96 60h-226q55 -35 130 -60zM101 541l-64 59q89 55 135 128l61 -28v126h103v-42h149v-74h-149v-29h157v-69q-73 -149 -395 -213l-46 79q97 15 170 38q-36 28 -76 53q-18 -13 -45 -28zM517 710v79h419v-79
q-53 -91 -162 -152q81 -49 189 -78l-29 -78q-143 38 -249 115q-53 -20 -103 -34q154 -78 380 -133l-22 -88q-50 15 -124 41v-174q32 24 47 37l63 -49q-64 -55 -140 -101q69 -15 155 -21l-32 -78q-245 18 -404 124v-66q-227 -43 -431 -56l-8 81q57 3 113 9v292
q-55 -20 -119 -39l-22 88q231 55 402 145h68l-20 56q68 9 125 27q-46 46 -79 100l68 32h-85z" />
    <glyph glyph-name="uni9957.jp04" unicode="&#x9957;" unicode="&#xe0105;" 
d="M643 299q-82 30 -143 58q-61 -28 -143 -58h92v32h102v-32h92zM284 164v-27h427v27h-427zM284 213h427v27h-427v-27zM474 43q-24 15 -45 35h-145v-62q132 17 190 27zM672 36q45 21 83 42h-191q43 -23 108 -42zM338 585v97q-63 -60 -129 -110l73 6q14 20 19 30zM434 654
v-27h117v27h-117zM434 698h117v27h-117v-27zM958 725q-34 -60 -78 -111q86 -45 86 -122q0 -48 -31 -69t-107 -21h-32l-19 71h29q62 0 62 34q0 42 -101 90v-222h-95v416h286v-66zM855 725h-88v-116q52 55 88 116zM434 505v-25h213v-51h-213v-25q1 0 3.5 1t3.5 2h118
q175 -68 403 -118l-22 -81q-72 19 -124 34v-128q32 20 47 30l63 -46q-77 -53 -145 -87q69 -13 160 -19l-32 -75q-244 15 -404 107v-51q-210 -38 -431 -54l-8 76q13 1 35.5 2.5t41.5 3t36 3.5v236q-65 -19 -119 -32l-22 81q216 47 384 110h-84v132q-39 -59 -105 -109.5
t-147 -81.5l-49 59q107 40 187 113l-185 -25l-12 71l62 5q26 19 60 45q-40 30 -115 80l47 58q11 -7 35 -23q45 41 85 88l71 -30q-54 -59 -99 -98q7 -5 20 -14.5t16 -11.5q36 31 83 78l46 -22v63h101q3 7 12 44l100 -8q-7 -27 -10 -36h101v-196h-208v-24h213v-51h-213z" />
    <glyph glyph-name="uni9957.jp04" unicode="&#x9957;" unicode="&#xe0101;" 
d="M643 299q-82 30 -143 58q-61 -28 -143 -58h92v32h102v-32h92zM284 164v-27h427v27h-427zM284 213h427v27h-427v-27zM474 43q-24 15 -45 35h-145v-62q132 17 190 27zM672 36q45 21 83 42h-191q43 -23 108 -42zM338 585v97q-63 -60 -129 -110l73 6q14 20 19 30zM434 654
v-27h117v27h-117zM434 698h117v27h-117v-27zM958 725q-34 -60 -78 -111q86 -45 86 -122q0 -48 -31 -69t-107 -21h-32l-19 71h29q62 0 62 34q0 42 -101 90v-222h-95v416h286v-66zM855 725h-88v-116q52 55 88 116zM434 505v-25h213v-51h-213v-25q1 0 3.5 1t3.5 2h118
q175 -68 403 -118l-22 -81q-72 19 -124 34v-128q32 20 47 30l63 -46q-77 -53 -145 -87q69 -13 160 -19l-32 -75q-244 15 -404 107v-51q-210 -38 -431 -54l-8 76q13 1 35.5 2.5t41.5 3t36 3.5v236q-65 -19 -119 -32l-22 81q216 47 384 110h-84v132q-39 -59 -105 -109.5
t-147 -81.5l-49 59q107 40 187 113l-185 -25l-12 71l62 5q26 19 60 45q-40 30 -115 80l47 58q11 -7 35 -23q45 41 85 88l71 -30q-54 -59 -99 -98q7 -5 20 -14.5t16 -11.5q36 31 83 78l46 -22v63h101q3 7 12 44l100 -8q-7 -27 -10 -36h101v-196h-208v-24h213v-51h-213z" />
    <glyph glyph-name="uni9957.jp04" unicode="&#x9957;" unicode="&#xe0105;" 
d="M643 299q-82 30 -143 58q-61 -28 -143 -58h92v32h102v-32h92zM284 164v-27h427v27h-427zM284 213h427v27h-427v-27zM474 43q-24 15 -45 35h-145v-62q132 17 190 27zM672 36q45 21 83 42h-191q43 -23 108 -42zM338 585v97q-63 -60 -129 -110l73 6q14 20 19 30zM434 654
v-27h117v27h-117zM434 698h117v27h-117v-27zM958 725q-34 -60 -78 -111q86 -45 86 -122q0 -48 -31 -69t-107 -21h-32l-19 71h29q62 0 62 34q0 42 -101 90v-222h-95v416h286v-66zM855 725h-88v-116q52 55 88 116zM434 505v-25h213v-51h-213v-25q1 0 3.5 1t3.5 2h118
q175 -68 403 -118l-22 -81q-72 19 -124 34v-128q32 20 47 30l63 -46q-77 -53 -145 -87q69 -13 160 -19l-32 -75q-244 15 -404 107v-51q-210 -38 -431 -54l-8 76q13 1 35.5 2.5t41.5 3t36 3.5v236q-65 -19 -119 -32l-22 81q216 47 384 110h-84v132q-39 -59 -105 -109.5
t-147 -81.5l-49 59q107 40 187 113l-185 -25l-12 71l62 5q26 19 60 45q-40 30 -115 80l47 58q11 -7 35 -23q45 41 85 88l71 -30q-54 -59 -99 -98q7 -5 20 -14.5t16 -11.5q36 31 83 78l46 -22v63h101q3 7 12 44l100 -8q-7 -27 -10 -36h101v-196h-208v-24h213v-51h-213z" />
    <glyph glyph-name="uni9957.jp04" unicode="&#x9957;" unicode="&#xe0101;" 
d="M643 299q-82 30 -143 58q-61 -28 -143 -58h92v32h102v-32h92zM284 164v-27h427v27h-427zM284 213h427v27h-427v-27zM474 43q-24 15 -45 35h-145v-62q132 17 190 27zM672 36q45 21 83 42h-191q43 -23 108 -42zM338 585v97q-63 -60 -129 -110l73 6q14 20 19 30zM434 654
v-27h117v27h-117zM434 698h117v27h-117v-27zM958 725q-34 -60 -78 -111q86 -45 86 -122q0 -48 -31 -69t-107 -21h-32l-19 71h29q62 0 62 34q0 42 -101 90v-222h-95v416h286v-66zM855 725h-88v-116q52 55 88 116zM434 505v-25h213v-51h-213v-25q1 0 3.5 1t3.5 2h118
q175 -68 403 -118l-22 -81q-72 19 -124 34v-128q32 20 47 30l63 -46q-77 -53 -145 -87q69 -13 160 -19l-32 -75q-244 15 -404 107v-51q-210 -38 -431 -54l-8 76q13 1 35.5 2.5t41.5 3t36 3.5v236q-65 -19 -119 -32l-22 81q216 47 384 110h-84v132q-39 -59 -105 -109.5
t-147 -81.5l-49 59q107 40 187 113l-185 -25l-12 71l62 5q26 19 60 45q-40 30 -115 80l47 58q11 -7 35 -23q45 41 85 88l71 -30q-54 -59 -99 -98q7 -5 20 -14.5t16 -11.5q36 31 83 78l46 -22v63h101q3 7 12 44l100 -8q-7 -27 -10 -36h101v-196h-208v-24h213v-51h-213z" />
    <glyph glyph-name="uni9BD6.jp04" unicode="&#x9bd6;" unicode="&#xe0103;" 
d="M230 605q24 40 43 78h-65q-10 -26 -32 -78h54zM289 436h52v86h-52v-86zM289 360v-91h52v91h-52zM211 522h-52v-86h52v86zM159 269h52v91h-52v-91zM159 188h-88v305l-46 29q87 142 130 313l93 -12q-4 -18 -14 -56h134v-84q-20 -45 -39 -78h93v-417h-263zM463 304v80h473
v-337q0 -79 -20 -97.5t-105 -18.5q-37 0 -115 5l-2 88q83 -5 102 -5q27 0 32 4t5 24v63h-272v-181h-98v375zM652 188v116h-96v-116h96zM743 188h95v116h-95v-116zM27 -69q38 116 52 233l76 -12q-9 -122 -47 -240zM179 -74q-3 98 -17 223l71 10q15 -106 20 -223zM287 -47
q-9 93 -30 201l69 10q19 -96 29 -201zM390 -22q-13 89 -39 181l63 12q25 -89 39 -181zM757 500h206v-79h-519v79h205v46h-166v76h166v47h-196v81h196v61h108v-61h194v-81h-194v-47h177v-76h-177v-46z" />
    <glyph glyph-name="uni9BD6.jp04" unicode="&#x9bd6;" unicode="&#xe0101;" 
d="M230 605q24 40 43 78h-65q-10 -26 -32 -78h54zM289 436h52v86h-52v-86zM289 360v-91h52v91h-52zM211 522h-52v-86h52v86zM159 269h52v91h-52v-91zM159 188h-88v305l-46 29q87 142 130 313l93 -12q-4 -18 -14 -56h134v-84q-20 -45 -39 -78h93v-417h-263zM463 304v80h473
v-337q0 -79 -20 -97.5t-105 -18.5q-37 0 -115 5l-2 88q83 -5 102 -5q27 0 32 4t5 24v63h-272v-181h-98v375zM652 188v116h-96v-116h96zM743 188h95v116h-95v-116zM27 -69q38 116 52 233l76 -12q-9 -122 -47 -240zM179 -74q-3 98 -17 223l71 10q15 -106 20 -223zM287 -47
q-9 93 -30 201l69 10q19 -96 29 -201zM390 -22q-13 89 -39 181l63 12q25 -89 39 -181zM757 500h206v-79h-519v79h205v46h-166v76h166v47h-196v81h196v61h108v-61h194v-81h-194v-47h177v-76h-177v-46z" />
    <glyph glyph-name="uni9BD6.jp04" unicode="&#x9bd6;" unicode="&#xe0103;" 
d="M230 605q24 40 43 78h-65q-10 -26 -32 -78h54zM289 436h52v86h-52v-86zM289 360v-91h52v91h-52zM211 522h-52v-86h52v86zM159 269h52v91h-52v-91zM159 188h-88v305l-46 29q87 142 130 313l93 -12q-4 -18 -14 -56h134v-84q-20 -45 -39 -78h93v-417h-263zM463 304v80h473
v-337q0 -79 -20 -97.5t-105 -18.5q-37 0 -115 5l-2 88q83 -5 102 -5q27 0 32 4t5 24v63h-272v-181h-98v375zM652 188v116h-96v-116h96zM743 188h95v116h-95v-116zM27 -69q38 116 52 233l76 -12q-9 -122 -47 -240zM179 -74q-3 98 -17 223l71 10q15 -106 20 -223zM287 -47
q-9 93 -30 201l69 10q19 -96 29 -201zM390 -22q-13 89 -39 181l63 12q25 -89 39 -181zM757 500h206v-79h-519v79h205v46h-166v76h166v47h-196v81h196v61h108v-61h194v-81h-194v-47h177v-76h-177v-46z" />
    <glyph glyph-name="uni9BD6.jp04" unicode="&#x9bd6;" unicode="&#xe0101;" 
d="M230 605q24 40 43 78h-65q-10 -26 -32 -78h54zM289 436h52v86h-52v-86zM289 360v-91h52v91h-52zM211 522h-52v-86h52v86zM159 269h52v91h-52v-91zM159 188h-88v305l-46 29q87 142 130 313l93 -12q-4 -18 -14 -56h134v-84q-20 -45 -39 -78h93v-417h-263zM463 304v80h473
v-337q0 -79 -20 -97.5t-105 -18.5q-37 0 -115 5l-2 88q83 -5 102 -5q27 0 32 4t5 24v63h-272v-181h-98v375zM652 188v116h-96v-116h96zM743 188h95v116h-95v-116zM27 -69q38 116 52 233l76 -12q-9 -122 -47 -240zM179 -74q-3 98 -17 223l71 10q15 -106 20 -223zM287 -47
q-9 93 -30 201l69 10q19 -96 29 -201zM390 -22q-13 89 -39 181l63 12q25 -89 39 -181zM757 500h206v-79h-519v79h205v46h-166v76h166v47h-196v81h196v61h108v-61h194v-81h-194v-47h177v-76h-177v-46z" />
    <glyph glyph-name="uni9D60.jp04" unicode="&#x9d60;" unicode="&#xe0103;" 
d="M571 544v-54h240v54h-240zM571 612h240v54h-240v-54zM164 -20v-49h-98v360h348v-134l79 -17q-19 -109 -52 -221l-78 29q1 6 4 16.5t5 15.5h-208zM164 61h157v145h-157v-145zM527 -56q-7 91 -22 193l76 15q15 -88 24 -194zM814 15q14 0 20.5 9.5t10.5 44t5 107.5h-58
q21 -72 34 -130l-71 -19q-14 63 -35 132l63 17h-315v571h131q9 35 19 88l105 -7q-6 -36 -17 -81h208v-328h-343v-42h392v-81h-392v-41h377q0 -137 -10.5 -209t-29.5 -96t-55 -24q-56 0 -157 8l-3 52l-48 -11q-9 63 -30 169l74 18q11 -50 27 -142q60 -5 98 -5zM226 382h-189
v86h189v144h-60q-12 -50 -34 -120l-93 22q43 133 64 280l93 -13q-7 -51 -13 -83h43v103h98v-103h107v-86h-107v-144h120v-86h-120v-64h-98v64z" />
    <glyph glyph-name="uni9D60.jp04" unicode="&#x9d60;" unicode="&#xe0101;" 
d="M571 544v-54h240v54h-240zM571 612h240v54h-240v-54zM164 -20v-49h-98v360h348v-134l79 -17q-19 -109 -52 -221l-78 29q1 6 4 16.5t5 15.5h-208zM164 61h157v145h-157v-145zM527 -56q-7 91 -22 193l76 15q15 -88 24 -194zM814 15q14 0 20.5 9.5t10.5 44t5 107.5h-58
q21 -72 34 -130l-71 -19q-14 63 -35 132l63 17h-315v571h131q9 35 19 88l105 -7q-6 -36 -17 -81h208v-328h-343v-42h392v-81h-392v-41h377q0 -137 -10.5 -209t-29.5 -96t-55 -24q-56 0 -157 8l-3 52l-48 -11q-9 63 -30 169l74 18q11 -50 27 -142q60 -5 98 -5zM226 382h-189
v86h189v144h-60q-12 -50 -34 -120l-93 22q43 133 64 280l93 -13q-7 -51 -13 -83h43v103h98v-103h107v-86h-107v-144h120v-86h-120v-64h-98v64z" />
    <glyph glyph-name="uni9D60.jp04" unicode="&#x9d60;" unicode="&#xe0103;" 
d="M571 544v-54h240v54h-240zM571 612h240v54h-240v-54zM164 -20v-49h-98v360h348v-134l79 -17q-19 -109 -52 -221l-78 29q1 6 4 16.5t5 15.5h-208zM164 61h157v145h-157v-145zM527 -56q-7 91 -22 193l76 15q15 -88 24 -194zM814 15q14 0 20.5 9.5t10.5 44t5 107.5h-58
q21 -72 34 -130l-71 -19q-14 63 -35 132l63 17h-315v571h131q9 35 19 88l105 -7q-6 -36 -17 -81h208v-328h-343v-42h392v-81h-392v-41h377q0 -137 -10.5 -209t-29.5 -96t-55 -24q-56 0 -157 8l-3 52l-48 -11q-9 63 -30 169l74 18q11 -50 27 -142q60 -5 98 -5zM226 382h-189
v86h189v144h-60q-12 -50 -34 -120l-93 22q43 133 64 280l93 -13q-7 -51 -13 -83h43v103h98v-103h107v-86h-107v-144h120v-86h-120v-64h-98v64z" />
    <glyph glyph-name="uni9D60.jp04" unicode="&#x9d60;" unicode="&#xe0101;" 
d="M571 544v-54h240v54h-240zM571 612h240v54h-240v-54zM164 -20v-49h-98v360h348v-134l79 -17q-19 -109 -52 -221l-78 29q1 6 4 16.5t5 15.5h-208zM164 61h157v145h-157v-145zM527 -56q-7 91 -22 193l76 15q15 -88 24 -194zM814 15q14 0 20.5 9.5t10.5 44t5 107.5h-58
q21 -72 34 -130l-71 -19q-14 63 -35 132l63 17h-315v571h131q9 35 19 88l105 -7q-6 -36 -17 -81h208v-328h-343v-42h392v-81h-392v-41h377q0 -137 -10.5 -209t-29.5 -96t-55 -24q-56 0 -157 8l-3 52l-48 -11q-9 63 -30 169l74 18q11 -50 27 -142q60 -5 98 -5zM226 382h-189
v86h189v144h-60q-12 -50 -34 -120l-93 22q43 133 64 280l93 -13q-7 -51 -13 -83h43v103h98v-103h107v-86h-107v-144h120v-86h-120v-64h-98v64z" />
    <glyph glyph-name="glyph7577" unicode="&#x6756;" unicode="&#xe0102;" 
d="M402 561v93h277v147h105v-147h177v-93h-178q-7 -250 -85 -384q107 -104 265 -153l-37 -90q-163 46 -287 164q-88 -94 -264 -164l-47 88q171 74 241 153q-70 89 -111 192q-17 -36 -40 -66q3 -7 9 -20.5t9 -20.5l-78 -54q-49 122 -74 179v-466h-98v373q-41 -107 -98 -189
l-63 78q117 184 161 358h-129v88h129v174h98v-174h98v-91h-75q7 -15 20 -41.5t24 -49.5t20 -43q31 47 48 90h103q36 -133 104 -230q47 103 52 299h-276z" />
    <glyph glyph-name="glyph7577" unicode="&#x6756;" unicode="&#xe0100;" 
d="M402 561v93h277v147h105v-147h177v-93h-178q-7 -250 -85 -384q107 -104 265 -153l-37 -90q-163 46 -287 164q-88 -94 -264 -164l-47 88q171 74 241 153q-70 89 -111 192q-17 -36 -40 -66q3 -7 9 -20.5t9 -20.5l-78 -54q-49 122 -74 179v-466h-98v373q-41 -107 -98 -189
l-63 78q117 184 161 358h-129v88h129v174h98v-174h98v-91h-75q7 -15 20 -41.5t24 -49.5t20 -43q31 47 48 90h103q36 -133 104 -230q47 103 52 299h-276z" />
    <glyph glyph-name="glyph7577" unicode="&#x6756;" unicode="&#xe0102;" 
d="M402 561v93h277v147h105v-147h177v-93h-178q-7 -250 -85 -384q107 -104 265 -153l-37 -90q-163 46 -287 164q-88 -94 -264 -164l-47 88q171 74 241 153q-70 89 -111 192q-17 -36 -40 -66q3 -7 9 -20.5t9 -20.5l-78 -54q-49 122 -74 179v-466h-98v373q-41 -107 -98 -189
l-63 78q117 184 161 358h-129v88h129v174h98v-174h98v-91h-75q7 -15 20 -41.5t24 -49.5t20 -43q31 47 48 90h103q36 -133 104 -230q47 103 52 299h-276z" />
    <glyph glyph-name="glyph7577" unicode="&#x6756;" unicode="&#xe0100;" 
d="M402 561v93h277v147h105v-147h177v-93h-178q-7 -250 -85 -384q107 -104 265 -153l-37 -90q-163 46 -287 164q-88 -94 -264 -164l-47 88q171 74 241 153q-70 89 -111 192q-17 -36 -40 -66q3 -7 9 -20.5t9 -20.5l-78 -54q-49 122 -74 179v-466h-98v373q-41 -107 -98 -189
l-63 78q117 184 161 358h-129v88h129v174h98v-174h98v-91h-75q7 -15 20 -41.5t24 -49.5t20 -43q31 47 48 90h103q36 -133 104 -230q47 103 52 299h-276z" />
    <glyph glyph-name="uni54E8.jp04" unicode="&#x54e8;" unicode="&#xe0103;" 
d="M507 282v-89h324v89h-324zM507 360h324v81h-324v-81zM257 105v556h-90v-556h90zM725 735l84 49q92 -101 164 -230l-39 -31v-457q0 -54 -2 -76.5t-16.5 -38.5t-35 -18t-69.5 -2q-20 0 -120 5l-2 88q79 -5 107 -5q26 0 30.5 7t4.5 45v44h-324v-186h-103v577l-53 50v-539
h-184v-59h-98v794h282v-186q90 92 147 215l88 -36q-53 -124 -141 -221h165v279h101v-279h169q-69 117 -155 211z" />
    <glyph glyph-name="uni54E8.jp04" unicode="&#x54e8;" unicode="&#xe0101;" 
d="M507 282v-89h324v89h-324zM507 360h324v81h-324v-81zM257 105v556h-90v-556h90zM725 735l84 49q92 -101 164 -230l-39 -31v-457q0 -54 -2 -76.5t-16.5 -38.5t-35 -18t-69.5 -2q-20 0 -120 5l-2 88q79 -5 107 -5q26 0 30.5 7t4.5 45v44h-324v-186h-103v577l-53 50v-539
h-184v-59h-98v794h282v-186q90 92 147 215l88 -36q-53 -124 -141 -221h165v279h101v-279h169q-69 117 -155 211z" />
    <glyph glyph-name="uni54E8.jp04" unicode="&#x54e8;" unicode="&#xe0103;" 
d="M507 282v-89h324v89h-324zM507 360h324v81h-324v-81zM257 105v556h-90v-556h90zM725 735l84 49q92 -101 164 -230l-39 -31v-457q0 -54 -2 -76.5t-16.5 -38.5t-35 -18t-69.5 -2q-20 0 -120 5l-2 88q79 -5 107 -5q26 0 30.5 7t4.5 45v44h-324v-186h-103v577l-53 50v-539
h-184v-59h-98v794h282v-186q90 92 147 215l88 -36q-53 -124 -141 -221h165v279h101v-279h169q-69 117 -155 211z" />
    <glyph glyph-name="uni54E8.jp04" unicode="&#x54e8;" unicode="&#xe0101;" 
d="M507 282v-89h324v89h-324zM507 360h324v81h-324v-81zM257 105v556h-90v-556h90zM725 735l84 49q92 -101 164 -230l-39 -31v-457q0 -54 -2 -76.5t-16.5 -38.5t-35 -18t-69.5 -2q-20 0 -120 5l-2 88q79 -5 107 -5q26 0 30.5 7t4.5 45v44h-324v-186h-103v577l-53 50v-539
h-184v-59h-98v794h282v-186q90 92 147 215l88 -36q-53 -124 -141 -221h165v279h101v-279h169q-69 117 -155 211z" />
    <glyph glyph-name="uni564C.jp04" unicode="&#x564c;" unicode="&#xe0103;" 
d="M526 404q-30 87 -68 150l59 29h-64v-179h73zM605 404v179h-75q42 -73 68 -154l-65 -25h72zM759 583h-70v-179h70l-65 30q43 68 65 149zM766 583l67 -27q-23 -85 -67 -152h75v179h-75zM476 27h338v59h-338v-59zM476 -47v-39h-98v375h538v-375h-102v39h-338zM228 105v556
h-61v-556h61zM809 799q70 -100 174 -169l-49 -74v-223h-481h-93v223l-39 59v-598h-154v-59h-98v794h252v-116q96 66 162 160l83 -49q-31 -48 -74 -91h309q-28 28 -54 62h-173v81h235zM814 157v58h-338v-58h338z" />
    <glyph glyph-name="uni564C.jp04" unicode="&#x564c;" unicode="&#xe0101;" 
d="M526 404q-30 87 -68 150l59 29h-64v-179h73zM605 404v179h-75q42 -73 68 -154l-65 -25h72zM759 583h-70v-179h70l-65 30q43 68 65 149zM766 583l67 -27q-23 -85 -67 -152h75v179h-75zM476 27h338v59h-338v-59zM476 -47v-39h-98v375h538v-375h-102v39h-338zM228 105v556
h-61v-556h61zM809 799q70 -100 174 -169l-49 -74v-223h-481h-93v223l-39 59v-598h-154v-59h-98v794h252v-116q96 66 162 160l83 -49q-31 -48 -74 -91h309q-28 28 -54 62h-173v81h235zM814 157v58h-338v-58h338z" />
    <glyph glyph-name="uni564C.jp04" unicode="&#x564c;" unicode="&#xe0103;" 
d="M526 404q-30 87 -68 150l59 29h-64v-179h73zM605 404v179h-75q42 -73 68 -154l-65 -25h72zM759 583h-70v-179h70l-65 30q43 68 65 149zM766 583l67 -27q-23 -85 -67 -152h75v179h-75zM476 27h338v59h-338v-59zM476 -47v-39h-98v375h538v-375h-102v39h-338zM228 105v556
h-61v-556h61zM809 799q70 -100 174 -169l-49 -74v-223h-481h-93v223l-39 59v-598h-154v-59h-98v794h252v-116q96 66 162 160l83 -49q-31 -48 -74 -91h309q-28 28 -54 62h-173v81h235zM814 157v58h-338v-58h338z" />
    <glyph glyph-name="uni564C.jp04" unicode="&#x564c;" unicode="&#xe0101;" 
d="M526 404q-30 87 -68 150l59 29h-64v-179h73zM605 404v179h-75q42 -73 68 -154l-65 -25h72zM759 583h-70v-179h70l-65 30q43 68 65 149zM766 583l67 -27q-23 -85 -67 -152h75v179h-75zM476 27h338v59h-338v-59zM476 -47v-39h-98v375h538v-375h-102v39h-338zM228 105v556
h-61v-556h61zM809 799q70 -100 174 -169l-49 -74v-223h-481h-93v223l-39 59v-598h-154v-59h-98v794h252v-116q96 66 162 160l83 -49q-31 -48 -74 -91h309q-28 28 -54 62h-173v81h235zM814 157v58h-338v-58h338z" />
    <glyph glyph-name="uni63C3.jp04" unicode="&#x63c3;" unicode="&#xe0103;" 
d="M311 383v166h-76v-196q36 13 76 30zM412 182v-253h-101v359q-18 -8 -76 -29v-193q0 -96 -16.5 -119t-88.5 -23q-18 0 -81 5l-4 86q60 -5 70 -5q13 0 15 6.5t2 44.5v164q-62 -17 -84 -22l-7 93q60 14 91 23v230h-90v88h90v164h103v-164h52v76h160q-21 49 -42 93l102 22
q30 -57 52 -115h116q33 72 48 114l102 -18q-17 -47 -39 -96h167v-86h-632v-49h294v-512q0 -52 -1.5 -75t-11 -39t-24 -18.5t-46.5 -2.5q-21 0 -89 5l-1 91q39 -5 55 -5q17 0 20 6.5t3 44.5v68l-30 -38q-52 56 -78 79zM412 418l29 38q41 -33 79 -74v110h-108v-74zM412 370
v-141l29 38q41 -33 79 -74v136l-30 -38q-52 56 -78 79zM669 110v453h96v-453h-96zM793 24q21 0 25.5 7t4.5 45v512h101v-517q0 -96 -17 -119t-86 -23q-30 0 -120 5l-5 95q64 -5 97 -5z" />
    <glyph glyph-name="uni63C3.jp04" unicode="&#x63c3;" unicode="&#xe0101;" 
d="M311 383v166h-76v-196q36 13 76 30zM412 182v-253h-101v359q-18 -8 -76 -29v-193q0 -96 -16.5 -119t-88.5 -23q-18 0 -81 5l-4 86q60 -5 70 -5q13 0 15 6.5t2 44.5v164q-62 -17 -84 -22l-7 93q60 14 91 23v230h-90v88h90v164h103v-164h52v76h160q-21 49 -42 93l102 22
q30 -57 52 -115h116q33 72 48 114l102 -18q-17 -47 -39 -96h167v-86h-632v-49h294v-512q0 -52 -1.5 -75t-11 -39t-24 -18.5t-46.5 -2.5q-21 0 -89 5l-1 91q39 -5 55 -5q17 0 20 6.5t3 44.5v68l-30 -38q-52 56 -78 79zM412 418l29 38q41 -33 79 -74v110h-108v-74zM412 370
v-141l29 38q41 -33 79 -74v136l-30 -38q-52 56 -78 79zM669 110v453h96v-453h-96zM793 24q21 0 25.5 7t4.5 45v512h101v-517q0 -96 -17 -119t-86 -23q-30 0 -120 5l-5 95q64 -5 97 -5z" />
    <glyph glyph-name="uni63C3.jp04" unicode="&#x63c3;" unicode="&#xe0103;" 
d="M311 383v166h-76v-196q36 13 76 30zM412 182v-253h-101v359q-18 -8 -76 -29v-193q0 -96 -16.5 -119t-88.5 -23q-18 0 -81 5l-4 86q60 -5 70 -5q13 0 15 6.5t2 44.5v164q-62 -17 -84 -22l-7 93q60 14 91 23v230h-90v88h90v164h103v-164h52v76h160q-21 49 -42 93l102 22
q30 -57 52 -115h116q33 72 48 114l102 -18q-17 -47 -39 -96h167v-86h-632v-49h294v-512q0 -52 -1.5 -75t-11 -39t-24 -18.5t-46.5 -2.5q-21 0 -89 5l-1 91q39 -5 55 -5q17 0 20 6.5t3 44.5v68l-30 -38q-52 56 -78 79zM412 418l29 38q41 -33 79 -74v110h-108v-74zM412 370
v-141l29 38q41 -33 79 -74v136l-30 -38q-52 56 -78 79zM669 110v453h96v-453h-96zM793 24q21 0 25.5 7t4.5 45v512h101v-517q0 -96 -17 -119t-86 -23q-30 0 -120 5l-5 95q64 -5 97 -5z" />
    <glyph glyph-name="uni63C3.jp04" unicode="&#x63c3;" unicode="&#xe0101;" 
d="M311 383v166h-76v-196q36 13 76 30zM412 182v-253h-101v359q-18 -8 -76 -29v-193q0 -96 -16.5 -119t-88.5 -23q-18 0 -81 5l-4 86q60 -5 70 -5q13 0 15 6.5t2 44.5v164q-62 -17 -84 -22l-7 93q60 14 91 23v230h-90v88h90v164h103v-164h52v76h160q-21 49 -42 93l102 22
q30 -57 52 -115h116q33 72 48 114l102 -18q-17 -47 -39 -96h167v-86h-632v-49h294v-512q0 -52 -1.5 -75t-11 -39t-24 -18.5t-46.5 -2.5q-21 0 -89 5l-1 91q39 -5 55 -5q17 0 20 6.5t3 44.5v68l-30 -38q-52 56 -78 79zM412 418l29 38q41 -33 79 -74v110h-108v-74zM412 370
v-141l29 38q41 -33 79 -74v136l-30 -38q-52 56 -78 79zM669 110v453h96v-453h-96zM793 24q21 0 25.5 7t4.5 45v512h101v-517q0 -96 -17 -119t-86 -23q-30 0 -120 5l-5 95q64 -5 97 -5z" />
    <glyph glyph-name="uni647A.jp04" unicode="&#x647a;" unicode="&#xe0103;" 
d="M441 115v-71h368v71h-368zM441 191h368v69h-368v-69zM297 644v-88h-59v-207q22 8 68 26v-91q-35 -16 -68 -29v-189q0 -96 -17 -119t-89 -23q-18 0 -81 5l-4 86q60 -5 71 -5q13 0 15 6.5t2 44.5v159q-47 -14 -88 -24l-8 93q42 9 96 26v241h-93v88h93v157h103v-157h59z
M912 343v-419h-103v39h-368v-39h-103v419h212q9 25 14 44h-62v100q-84 -68 -178 -115l-27 81q113 57 205 138v62q-67 -59 -166 -109l-32 78q74 36 130 76h-140v83h309v-364l54 -7l-15 43q116 58 206 138v63q-77 -66 -191 -122l-32 78q82 38 153 88h-138v83h308v-394h-100
v100q-82 -66 -179 -115q-1 -5 -4 -14.5t-5 -14.5h252z" />
    <glyph glyph-name="uni647A.jp04" unicode="&#x647a;" unicode="&#xe0101;" 
d="M441 115v-71h368v71h-368zM441 191h368v69h-368v-69zM297 644v-88h-59v-207q22 8 68 26v-91q-35 -16 -68 -29v-189q0 -96 -17 -119t-89 -23q-18 0 -81 5l-4 86q60 -5 71 -5q13 0 15 6.5t2 44.5v159q-47 -14 -88 -24l-8 93q42 9 96 26v241h-93v88h93v157h103v-157h59z
M912 343v-419h-103v39h-368v-39h-103v419h212q9 25 14 44h-62v100q-84 -68 -178 -115l-27 81q113 57 205 138v62q-67 -59 -166 -109l-32 78q74 36 130 76h-140v83h309v-364l54 -7l-15 43q116 58 206 138v63q-77 -66 -191 -122l-32 78q82 38 153 88h-138v83h308v-394h-100
v100q-82 -66 -179 -115q-1 -5 -4 -14.5t-5 -14.5h252z" />
    <glyph glyph-name="uni647A.jp04" unicode="&#x647a;" unicode="&#xe0103;" 
d="M441 115v-71h368v71h-368zM441 191h368v69h-368v-69zM297 644v-88h-59v-207q22 8 68 26v-91q-35 -16 -68 -29v-189q0 -96 -17 -119t-89 -23q-18 0 -81 5l-4 86q60 -5 71 -5q13 0 15 6.5t2 44.5v159q-47 -14 -88 -24l-8 93q42 9 96 26v241h-93v88h93v157h103v-157h59z
M912 343v-419h-103v39h-368v-39h-103v419h212q9 25 14 44h-62v100q-84 -68 -178 -115l-27 81q113 57 205 138v62q-67 -59 -166 -109l-32 78q74 36 130 76h-140v83h309v-364l54 -7l-15 43q116 58 206 138v63q-77 -66 -191 -122l-32 78q82 38 153 88h-138v83h308v-394h-100
v100q-82 -66 -179 -115q-1 -5 -4 -14.5t-5 -14.5h252z" />
    <glyph glyph-name="uni647A.jp04" unicode="&#x647a;" unicode="&#xe0101;" 
d="M441 115v-71h368v71h-368zM441 191h368v69h-368v-69zM297 644v-88h-59v-207q22 8 68 26v-91q-35 -16 -68 -29v-189q0 -96 -17 -119t-89 -23q-18 0 -81 5l-4 86q60 -5 71 -5q13 0 15 6.5t2 44.5v159q-47 -14 -88 -24l-8 93q42 9 96 26v241h-93v88h93v157h103v-157h59z
M912 343v-419h-103v39h-368v-39h-103v419h212q9 25 14 44h-62v100q-84 -68 -178 -115l-27 81q113 57 205 138v62q-67 -59 -166 -109l-32 78q74 36 130 76h-140v83h309v-364l54 -7l-15 43q116 58 206 138v63q-77 -66 -191 -122l-32 78q82 38 153 88h-138v83h308v-394h-100
v100q-82 -66 -179 -115q-1 -5 -4 -14.5t-5 -14.5h252z" />
    <glyph glyph-name="uni64B0.jp04" unicode="&#x64b0;" unicode="&#xe0103;" 
d="M414 698v-51h88v51h-88zM740 698v-51h88v51h-88zM534 286v-83h172v83h-172zM297 394v-95q-26 -12 -62 -26v-207q0 -95 -17.5 -118.5t-85.5 -23.5q-17 0 -80 5l-5 86q45 -5 63 -5q16 0 19 6.5t3 44.5v177q-48 -15 -83 -23l-10 94q64 15 93 24v216h-90v88h90v164h103v-164
h54v-88h-54v-180q42 16 62 25zM809 203h144v-83h-217q124 -63 212 -132l-58 -76q-100 81 -243 154l36 54h-146l37 -47q-92 -93 -250 -156l-49 80q123 49 214 123h-209v83h151v83h-110v79h110v66q-83 0 -100 11t-17 60v274h100h186v-200h-186v-44q0 -18 5.5 -21.5t37.5 -3.5
q41 0 48.5 6.5t9.5 44.5l100 -17q-7 -65 -20 -84.5t-61 -23.5v-68h172v67q-45 3 -55.5 15.5t-10.5 54.5v274h100h186v-200h-186v-44q0 -18 5.5 -21.5t37.5 -3.5q41 0 48.5 6.5t9.5 44.5l100 -17q-4 -34 -7 -49.5t-9.5 -30.5t-21.5 -19.5t-35.5 -7.5t-58.5 -3v-66h115v-79
h-115v-83z" />
    <glyph glyph-name="uni64B0.jp04" unicode="&#x64b0;" unicode="&#xe0101;" 
d="M414 698v-51h88v51h-88zM740 698v-51h88v51h-88zM534 286v-83h172v83h-172zM297 394v-95q-26 -12 -62 -26v-207q0 -95 -17.5 -118.5t-85.5 -23.5q-17 0 -80 5l-5 86q45 -5 63 -5q16 0 19 6.5t3 44.5v177q-48 -15 -83 -23l-10 94q64 15 93 24v216h-90v88h90v164h103v-164
h54v-88h-54v-180q42 16 62 25zM809 203h144v-83h-217q124 -63 212 -132l-58 -76q-100 81 -243 154l36 54h-146l37 -47q-92 -93 -250 -156l-49 80q123 49 214 123h-209v83h151v83h-110v79h110v66q-83 0 -100 11t-17 60v274h100h186v-200h-186v-44q0 -18 5.5 -21.5t37.5 -3.5
q41 0 48.5 6.5t9.5 44.5l100 -17q-7 -65 -20 -84.5t-61 -23.5v-68h172v67q-45 3 -55.5 15.5t-10.5 54.5v274h100h186v-200h-186v-44q0 -18 5.5 -21.5t37.5 -3.5q41 0 48.5 6.5t9.5 44.5l100 -17q-4 -34 -7 -49.5t-9.5 -30.5t-21.5 -19.5t-35.5 -7.5t-58.5 -3v-66h115v-79
h-115v-83z" />
    <glyph glyph-name="uni64B0.jp04" unicode="&#x64b0;" unicode="&#xe0103;" 
d="M414 698v-51h88v51h-88zM740 698v-51h88v51h-88zM534 286v-83h172v83h-172zM297 394v-95q-26 -12 -62 -26v-207q0 -95 -17.5 -118.5t-85.5 -23.5q-17 0 -80 5l-5 86q45 -5 63 -5q16 0 19 6.5t3 44.5v177q-48 -15 -83 -23l-10 94q64 15 93 24v216h-90v88h90v164h103v-164
h54v-88h-54v-180q42 16 62 25zM809 203h144v-83h-217q124 -63 212 -132l-58 -76q-100 81 -243 154l36 54h-146l37 -47q-92 -93 -250 -156l-49 80q123 49 214 123h-209v83h151v83h-110v79h110v66q-83 0 -100 11t-17 60v274h100h186v-200h-186v-44q0 -18 5.5 -21.5t37.5 -3.5
q41 0 48.5 6.5t9.5 44.5l100 -17q-7 -65 -20 -84.5t-61 -23.5v-68h172v67q-45 3 -55.5 15.5t-10.5 54.5v274h100h186v-200h-186v-44q0 -18 5.5 -21.5t37.5 -3.5q41 0 48.5 6.5t9.5 44.5l100 -17q-4 -34 -7 -49.5t-9.5 -30.5t-21.5 -19.5t-35.5 -7.5t-58.5 -3v-66h115v-79
h-115v-83z" />
    <glyph glyph-name="uni64B0.jp04" unicode="&#x64b0;" unicode="&#xe0101;" 
d="M414 698v-51h88v51h-88zM740 698v-51h88v51h-88zM534 286v-83h172v83h-172zM297 394v-95q-26 -12 -62 -26v-207q0 -95 -17.5 -118.5t-85.5 -23.5q-17 0 -80 5l-5 86q45 -5 63 -5q16 0 19 6.5t3 44.5v177q-48 -15 -83 -23l-10 94q64 15 93 24v216h-90v88h90v164h103v-164
h54v-88h-54v-180q42 16 62 25zM809 203h144v-83h-217q124 -63 212 -132l-58 -76q-100 81 -243 154l36 54h-146l37 -47q-92 -93 -250 -156l-49 80q123 49 214 123h-209v83h151v83h-110v79h110v66q-83 0 -100 11t-17 60v274h100h186v-200h-186v-44q0 -18 5.5 -21.5t37.5 -3.5
q41 0 48.5 6.5t9.5 44.5l100 -17q-7 -65 -20 -84.5t-61 -23.5v-68h172v67q-45 3 -55.5 15.5t-10.5 54.5v274h100h186v-200h-186v-44q0 -18 5.5 -21.5t37.5 -3.5q41 0 48.5 6.5t9.5 44.5l100 -17q-4 -34 -7 -49.5t-9.5 -30.5t-21.5 -19.5t-35.5 -7.5t-58.5 -3v-66h115v-79
h-115v-83z" />
    <glyph glyph-name="uni696F.jp04" unicode="&#x696f;" unicode="&#xe0101;" 
d="M740 673v-80h221v-86h-221v-61h186v-527h-103v44h-227v-44h-103v527h103h44v61h-167v-93q0 -305 -132 -483l-74 81q54 76 80 182t26 266v277q312 0 543 64l18 -86q-93 -28 -194 -42zM640 662q-86 -8 -167 -8v-61h167v69zM596 306h227v59h-227v-59zM596 176h227v59h-227
v-59zM596 105v-59h227v59h-227zM47 639h105v162h98v-162h96v-88h-85q59 -134 96 -226l-63 -71q-8 22 -44 117v-452h-98v364q-30 -92 -71 -162l-56 97q88 159 122 333h-100v88z" />
    <glyph glyph-name="uni696F.jp04" unicode="&#x696f;" unicode="&#xe0101;" 
d="M740 673v-80h221v-86h-221v-61h186v-527h-103v44h-227v-44h-103v527h103h44v61h-167v-93q0 -305 -132 -483l-74 81q54 76 80 182t26 266v277q312 0 543 64l18 -86q-93 -28 -194 -42zM640 662q-86 -8 -167 -8v-61h167v69zM596 306h227v59h-227v-59zM596 176h227v59h-227
v-59zM596 105v-59h227v59h-227zM47 639h105v162h98v-162h96v-88h-85q59 -134 96 -226l-63 -71q-8 22 -44 117v-452h-98v364q-30 -92 -71 -162l-56 97q88 159 122 333h-100v88z" />
    <glyph glyph-name="uni6A3D.jp04" unicode="&#x6a3d;" unicode="&#xe0103;" 
d="M355 566l-34 55v-65h-64q6 -14 26.5 -61.5t40 -93t31.5 -75.5v240zM821 639v-29h-64v-37h157q-50 31 -93 66zM771 683q-14 13 -36 37h-200q-15 -20 -31 -37h267zM453 436q56 26 71 71h-71v-71zM453 267h373v34h-373v-34zM498 610h-45v26q-40 -35 -85 -63h130v37zM593 610
v-37h69v37h-69zM826 456v51h-79v-22q0 -22 6 -25.5t39 -3.5h34zM613 507q-14 -91 -113 -135l-47 47v-54h373v27h-96q-49 0 -63.5 11.5t-14.5 49.5v54h-39zM534 -66q-71 63 -149 112l41 42h-93v78h427v35h-307h-98v72l-53 -39q-2 6 -10.5 28.5t-18.5 49.5t-20 52v-445h-98
v357q-28 -84 -69 -155l-61 97q90 156 129 338h-107v88h108v157h98v-157h53q96 55 170 140l58 -54v73h250q71 -85 189 -156l-47 -81v-365h-61v-35h93v-78h-93v-51q0 -77 -17.5 -95t-90.5 -18q-30 0 -142 5l-2 81q88 -5 110 -5q28 0 32.5 5t4.5 36v42h-277q61 -40 115 -88z
" />
    <glyph glyph-name="uni6A3D.jp04" unicode="&#x6a3d;" unicode="&#xe0101;" 
d="M355 566l-34 55v-65h-64q6 -14 26.5 -61.5t40 -93t31.5 -75.5v240zM821 639v-29h-64v-37h157q-50 31 -93 66zM771 683q-14 13 -36 37h-200q-15 -20 -31 -37h267zM453 436q56 26 71 71h-71v-71zM453 267h373v34h-373v-34zM498 610h-45v26q-40 -35 -85 -63h130v37zM593 610
v-37h69v37h-69zM826 456v51h-79v-22q0 -22 6 -25.5t39 -3.5h34zM613 507q-14 -91 -113 -135l-47 47v-54h373v27h-96q-49 0 -63.5 11.5t-14.5 49.5v54h-39zM534 -66q-71 63 -149 112l41 42h-93v78h427v35h-307h-98v72l-53 -39q-2 6 -10.5 28.5t-18.5 49.5t-20 52v-445h-98
v357q-28 -84 -69 -155l-61 97q90 156 129 338h-107v88h108v157h98v-157h53q96 55 170 140l58 -54v73h250q71 -85 189 -156l-47 -81v-365h-61v-35h93v-78h-93v-51q0 -77 -17.5 -95t-90.5 -18q-30 0 -142 5l-2 81q88 -5 110 -5q28 0 32.5 5t4.5 36v42h-277q61 -40 115 -88z
" />
    <glyph glyph-name="uni6A3D.jp04" unicode="&#x6a3d;" unicode="&#xe0103;" 
d="M355 566l-34 55v-65h-64q6 -14 26.5 -61.5t40 -93t31.5 -75.5v240zM821 639v-29h-64v-37h157q-50 31 -93 66zM771 683q-14 13 -36 37h-200q-15 -20 -31 -37h267zM453 436q56 26 71 71h-71v-71zM453 267h373v34h-373v-34zM498 610h-45v26q-40 -35 -85 -63h130v37zM593 610
v-37h69v37h-69zM826 456v51h-79v-22q0 -22 6 -25.5t39 -3.5h34zM613 507q-14 -91 -113 -135l-47 47v-54h373v27h-96q-49 0 -63.5 11.5t-14.5 49.5v54h-39zM534 -66q-71 63 -149 112l41 42h-93v78h427v35h-307h-98v72l-53 -39q-2 6 -10.5 28.5t-18.5 49.5t-20 52v-445h-98
v357q-28 -84 -69 -155l-61 97q90 156 129 338h-107v88h108v157h98v-157h53q96 55 170 140l58 -54v73h250q71 -85 189 -156l-47 -81v-365h-61v-35h93v-78h-93v-51q0 -77 -17.5 -95t-90.5 -18q-30 0 -142 5l-2 81q88 -5 110 -5q28 0 32.5 5t4.5 36v42h-277q61 -40 115 -88z
" />
    <glyph glyph-name="uni6A3D.jp04" unicode="&#x6a3d;" unicode="&#xe0101;" 
d="M355 566l-34 55v-65h-64q6 -14 26.5 -61.5t40 -93t31.5 -75.5v240zM821 639v-29h-64v-37h157q-50 31 -93 66zM771 683q-14 13 -36 37h-200q-15 -20 -31 -37h267zM453 436q56 26 71 71h-71v-71zM453 267h373v34h-373v-34zM498 610h-45v26q-40 -35 -85 -63h130v37zM593 610
v-37h69v37h-69zM826 456v51h-79v-22q0 -22 6 -25.5t39 -3.5h34zM613 507q-14 -91 -113 -135l-47 47v-54h373v27h-96q-49 0 -63.5 11.5t-14.5 49.5v54h-39zM534 -66q-71 63 -149 112l41 42h-93v78h427v35h-307h-98v72l-53 -39q-2 6 -10.5 28.5t-18.5 49.5t-20 52v-445h-98
v357q-28 -84 -69 -155l-61 97q90 156 129 338h-107v88h108v157h98v-157h53q96 55 170 140l58 -54v73h250q71 -85 189 -156l-47 -81v-365h-61v-35h93v-78h-93v-51q0 -77 -17.5 -95t-90.5 -18q-30 0 -142 5l-2 81q88 -5 110 -5q28 0 32.5 5t4.5 36v42h-277q61 -40 115 -88z
" />
    <glyph glyph-name="uni6B4E.jp04" unicode="&#x6b4e;" unicode="&#xe0103;" 
d="M243 470h-81v-66h81v66zM341 470v-66h81v66h-81zM226 674v-40h132v40h-132zM54 120v76h186v19v15h-171v74h171v32h-78h-91v203h169v29h-110v106h-76v83h76v54h96v-54h132v54h95v-54h76v-83h-76v-106h-110v-29h162v-36q70 144 100 310l96 -10q-10 -58 -22 -105h282v-91
q-20 -143 -69 -269l-93 37q43 107 63 232h-209q-40 -124 -94 -215l-54 36v-92h-162v-32h164v-74h-164v-15q0 -12 -1 -19h180v-76h-151q41 -53 118 -86q82 61 127.5 163t45.5 232v127h100v-127q0 -136 54 -241t154 -164l-34 -95q-69 37 -126.5 106t-93.5 156
q-34 -87 -87.5 -156.5t-116.5 -105.5l-32 84l-34 -61q-85 37 -147 123q-72 -111 -206 -156l-46 85q133 46 171 116h-164z" />
    <glyph glyph-name="uni6B4E.jp04" unicode="&#x6b4e;" unicode="&#xe0101;" 
d="M243 470h-81v-66h81v66zM341 470v-66h81v66h-81zM226 674v-40h132v40h-132zM54 120v76h186v19v15h-171v74h171v32h-78h-91v203h169v29h-110v106h-76v83h76v54h96v-54h132v54h95v-54h76v-83h-76v-106h-110v-29h162v-36q70 144 100 310l96 -10q-10 -58 -22 -105h282v-91
q-20 -143 -69 -269l-93 37q43 107 63 232h-209q-40 -124 -94 -215l-54 36v-92h-162v-32h164v-74h-164v-15q0 -12 -1 -19h180v-76h-151q41 -53 118 -86q82 61 127.5 163t45.5 232v127h100v-127q0 -136 54 -241t154 -164l-34 -95q-69 37 -126.5 106t-93.5 156
q-34 -87 -87.5 -156.5t-116.5 -105.5l-32 84l-34 -61q-85 37 -147 123q-72 -111 -206 -156l-46 85q133 46 171 116h-164z" />
    <glyph glyph-name="uni6B4E.jp04" unicode="&#x6b4e;" unicode="&#xe0103;" 
d="M243 470h-81v-66h81v66zM341 470v-66h81v66h-81zM226 674v-40h132v40h-132zM54 120v76h186v19v15h-171v74h171v32h-78h-91v203h169v29h-110v106h-76v83h76v54h96v-54h132v54h95v-54h76v-83h-76v-106h-110v-29h162v-36q70 144 100 310l96 -10q-10 -58 -22 -105h282v-91
q-20 -143 -69 -269l-93 37q43 107 63 232h-209q-40 -124 -94 -215l-54 36v-92h-162v-32h164v-74h-164v-15q0 -12 -1 -19h180v-76h-151q41 -53 118 -86q82 61 127.5 163t45.5 232v127h100v-127q0 -136 54 -241t154 -164l-34 -95q-69 37 -126.5 106t-93.5 156
q-34 -87 -87.5 -156.5t-116.5 -105.5l-32 84l-34 -61q-85 37 -147 123q-72 -111 -206 -156l-46 85q133 46 171 116h-164z" />
    <glyph glyph-name="uni6B4E.jp04" unicode="&#x6b4e;" unicode="&#xe0101;" 
d="M243 470h-81v-66h81v66zM341 470v-66h81v66h-81zM226 674v-40h132v40h-132zM54 120v76h186v19v15h-171v74h171v32h-78h-91v203h169v29h-110v106h-76v83h76v54h96v-54h132v54h95v-54h76v-83h-76v-106h-110v-29h162v-36q70 144 100 310l96 -10q-10 -58 -22 -105h282v-91
q-20 -143 -69 -269l-93 37q43 107 63 232h-209q-40 -124 -94 -215l-54 36v-92h-162v-32h164v-74h-164v-15q0 -12 -1 -19h180v-76h-151q41 -53 118 -86q82 61 127.5 163t45.5 232v127h100v-127q0 -136 54 -241t154 -164l-34 -95q-69 37 -126.5 106t-93.5 156
q-34 -87 -87.5 -156.5t-116.5 -105.5l-32 84l-34 -61q-85 37 -147 123q-72 -111 -206 -156l-46 85q133 46 171 116h-164z" />
    <glyph glyph-name="uni707C.jp04" unicode="&#x707c;" unicode="&#xe0103;" 
d="M179 791h96v-235q0 -54 -3 -105q36 101 60 222l82 -17q-34 -181 -93 -313l-56 23q-1 -14 -5 -35q100 -147 181 -302l-73 -63q-58 120 -131 240q-44 -178 -133 -275l-66 74q141 165 141 551v235zM42 335q32 140 32 326l83 -7q0 -191 -35 -344zM801 -66q-89 0 -208 7l-5 93
q109 -7 167 -7q22 0 32.5 12t21 70t16 173t11.5 328h-262q-57 -131 -133 -221l-68 69q118 143 169 363l100 -10q-16 -66 -32 -110h329q-3 -142 -5.5 -243t-7 -185t-9 -136.5t-13.5 -92.5t-17 -60t-22.5 -32.5t-28 -15t-35.5 -2.5zM451 284v91h323v-91h-323z" />
    <glyph glyph-name="uni707C.jp04" unicode="&#x707c;" unicode="&#xe0101;" 
d="M179 791h96v-235q0 -54 -3 -105q36 101 60 222l82 -17q-34 -181 -93 -313l-56 23q-1 -14 -5 -35q100 -147 181 -302l-73 -63q-58 120 -131 240q-44 -178 -133 -275l-66 74q141 165 141 551v235zM42 335q32 140 32 326l83 -7q0 -191 -35 -344zM801 -66q-89 0 -208 7l-5 93
q109 -7 167 -7q22 0 32.5 12t21 70t16 173t11.5 328h-262q-57 -131 -133 -221l-68 69q118 143 169 363l100 -10q-16 -66 -32 -110h329q-3 -142 -5.5 -243t-7 -185t-9 -136.5t-13.5 -92.5t-17 -60t-22.5 -32.5t-28 -15t-35.5 -2.5zM451 284v91h323v-91h-323z" />
    <glyph glyph-name="uni707C.jp04" unicode="&#x707c;" unicode="&#xe0103;" 
d="M179 791h96v-235q0 -54 -3 -105q36 101 60 222l82 -17q-34 -181 -93 -313l-56 23q-1 -14 -5 -35q100 -147 181 -302l-73 -63q-58 120 -131 240q-44 -178 -133 -275l-66 74q141 165 141 551v235zM42 335q32 140 32 326l83 -7q0 -191 -35 -344zM801 -66q-89 0 -208 7l-5 93
q109 -7 167 -7q22 0 32.5 12t21 70t16 173t11.5 328h-262q-57 -131 -133 -221l-68 69q118 143 169 363l100 -10q-16 -66 -32 -110h329q-3 -142 -5.5 -243t-7 -185t-9 -136.5t-13.5 -92.5t-17 -60t-22.5 -32.5t-28 -15t-35.5 -2.5zM451 284v91h323v-91h-323z" />
    <glyph glyph-name="uni707C.jp04" unicode="&#x707c;" unicode="&#xe0101;" 
d="M179 791h96v-235q0 -54 -3 -105q36 101 60 222l82 -17q-34 -181 -93 -313l-56 23q-1 -14 -5 -35q100 -147 181 -302l-73 -63q-58 120 -131 240q-44 -178 -133 -275l-66 74q141 165 141 551v235zM42 335q32 140 32 326l83 -7q0 -191 -35 -344zM801 -66q-89 0 -208 7l-5 93
q109 -7 167 -7q22 0 32.5 12t21 70t16 173t11.5 328h-262q-57 -131 -133 -221l-68 69q118 143 169 363l100 -10q-16 -66 -32 -110h329q-3 -142 -5.5 -243t-7 -185t-9 -136.5t-13.5 -92.5t-17 -60t-22.5 -32.5t-28 -15t-35.5 -2.5zM451 284v91h323v-91h-323z" />
    <glyph glyph-name="uni714E.jp04" unicode="&#x714e;" unicode="&#xe0103;" 
d="M59 642v86h241q-23 45 -44 78l94 22q33 -53 56 -100h194q29 52 50 100l97 -19q-21 -46 -40 -81h234v-86h-882zM60 -31q77 88 135 178l81 -42q-61 -103 -135 -187zM363 -79q-12 90 -34 193l97 12q25 -99 37 -194zM603 -79q-33 96 -75 188l94 24q48 -106 79 -191zM859 -79
q-54 82 -135 183l81 51q66 -82 135 -187zM400 279v253h-192v-368h-102v441h394v-304q0 -36 -0.5 -55t-5.5 -36.5t-10.5 -24t-20 -12.5t-30.5 -6.5t-46 -0.5q-16 0 -98 5l-2 76q72 -5 81 -5q24 0 28 5t4 32zM221 436l27 71q72 -18 139 -39l-27 -71q-67 21 -139 39zM221 321
l27 71q72 -18 139 -39l-27 -71q-61 20 -139 39zM581 291v304h100v-304h-100zM796 610h103v-304q0 -96 -20.5 -119t-104.5 -23q-48 0 -132 5l-5 86q76 -5 118 -5q29 0 35 6.5t6 39.5v314z" />
    <glyph glyph-name="uni714E.jp04" unicode="&#x714e;" unicode="&#xe0101;" 
d="M59 642v86h241q-23 45 -44 78l94 22q33 -53 56 -100h194q29 52 50 100l97 -19q-21 -46 -40 -81h234v-86h-882zM60 -31q77 88 135 178l81 -42q-61 -103 -135 -187zM363 -79q-12 90 -34 193l97 12q25 -99 37 -194zM603 -79q-33 96 -75 188l94 24q48 -106 79 -191zM859 -79
q-54 82 -135 183l81 51q66 -82 135 -187zM400 279v253h-192v-368h-102v441h394v-304q0 -36 -0.5 -55t-5.5 -36.5t-10.5 -24t-20 -12.5t-30.5 -6.5t-46 -0.5q-16 0 -98 5l-2 76q72 -5 81 -5q24 0 28 5t4 32zM221 436l27 71q72 -18 139 -39l-27 -71q-67 21 -139 39zM221 321
l27 71q72 -18 139 -39l-27 -71q-61 20 -139 39zM581 291v304h100v-304h-100zM796 610h103v-304q0 -96 -20.5 -119t-104.5 -23q-48 0 -132 5l-5 86q76 -5 118 -5q29 0 35 6.5t6 39.5v314z" />
    <glyph glyph-name="uni714E.jp04" unicode="&#x714e;" unicode="&#xe0103;" 
d="M59 642v86h241q-23 45 -44 78l94 22q33 -53 56 -100h194q29 52 50 100l97 -19q-21 -46 -40 -81h234v-86h-882zM60 -31q77 88 135 178l81 -42q-61 -103 -135 -187zM363 -79q-12 90 -34 193l97 12q25 -99 37 -194zM603 -79q-33 96 -75 188l94 24q48 -106 79 -191zM859 -79
q-54 82 -135 183l81 51q66 -82 135 -187zM400 279v253h-192v-368h-102v441h394v-304q0 -36 -0.5 -55t-5.5 -36.5t-10.5 -24t-20 -12.5t-30.5 -6.5t-46 -0.5q-16 0 -98 5l-2 76q72 -5 81 -5q24 0 28 5t4 32zM221 436l27 71q72 -18 139 -39l-27 -71q-67 21 -139 39zM221 321
l27 71q72 -18 139 -39l-27 -71q-61 20 -139 39zM581 291v304h100v-304h-100zM796 610h103v-304q0 -96 -20.5 -119t-104.5 -23q-48 0 -132 5l-5 86q76 -5 118 -5q29 0 35 6.5t6 39.5v314z" />
    <glyph glyph-name="uni714E.jp04" unicode="&#x714e;" unicode="&#xe0101;" 
d="M59 642v86h241q-23 45 -44 78l94 22q33 -53 56 -100h194q29 52 50 100l97 -19q-21 -46 -40 -81h234v-86h-882zM60 -31q77 88 135 178l81 -42q-61 -103 -135 -187zM363 -79q-12 90 -34 193l97 12q25 -99 37 -194zM603 -79q-33 96 -75 188l94 24q48 -106 79 -191zM859 -79
q-54 82 -135 183l81 51q66 -82 135 -187zM400 279v253h-192v-368h-102v441h394v-304q0 -36 -0.5 -55t-5.5 -36.5t-10.5 -24t-20 -12.5t-30.5 -6.5t-46 -0.5q-16 0 -98 5l-2 76q72 -5 81 -5q24 0 28 5t4 32zM221 436l27 71q72 -18 139 -39l-27 -71q-67 21 -139 39zM221 321
l27 71q72 -18 139 -39l-27 -71q-61 20 -139 39zM581 291v304h100v-304h-100zM796 610h103v-304q0 -96 -20.5 -119t-104.5 -23q-48 0 -132 5l-5 86q76 -5 118 -5q29 0 35 6.5t6 39.5v314z" />
    <glyph glyph-name="uni717D.jp04" unicode="&#x717d;" unicode="&#xe0104;" 
d="M351 590q-27 -118 -77 -232l-25 12q0 -6 -9 -71q51 -79 82 -135q29 108 29 262v164zM453 487h358v69h-358v-69zM545 286h-106q-2 -26 -8 -66q64 31 114 66zM37 335q27 148 27 326l78 -7q0 -196 -29 -344zM434 -5l-25 78q93 44 167 106v45q-59 -47 -127 -80l-20 65
q-24 -145 -91 -270l-81 56q3 6 12 26t14 31q-33 64 -69 122q-41 -149 -117 -243l-64 74q67 89 99 218t32 333v235h93v-235v-22q22 75 38 154l56 -14v85q339 0 565 40l25 -81q-197 -38 -488 -40v-44h461v-225h-468q0 -14 -2 -42h228v-370q0 -41 -16 -54.5t-65 -13.5t-81 2
l-10 84q38 -3 59 -3q13 0 15 3t2 19v54q-63 -53 -142 -93zM706 2l-25 79q84 39 155 96v47q-57 -45 -128 -80l-22 74q64 29 118 68h-113v81h240v-370q0 -41 -16 -54.5t-65 -13.5q-48 0 -80 2l-10 84q38 -3 58 -3q13 0 15.5 3t2.5 19v52q-61 -49 -130 -84z" />
    <glyph glyph-name="uni717D.jp04" unicode="&#x717d;" unicode="&#xe0102;" 
d="M351 590q-27 -118 -77 -232l-25 12q0 -6 -9 -71q51 -79 82 -135q29 108 29 262v164zM453 487h358v69h-358v-69zM545 286h-106q-2 -26 -8 -66q64 31 114 66zM37 335q27 148 27 326l78 -7q0 -196 -29 -344zM434 -5l-25 78q93 44 167 106v45q-59 -47 -127 -80l-20 65
q-24 -145 -91 -270l-81 56q3 6 12 26t14 31q-33 64 -69 122q-41 -149 -117 -243l-64 74q67 89 99 218t32 333v235h93v-235v-22q22 75 38 154l56 -14v85q339 0 565 40l25 -81q-197 -38 -488 -40v-44h461v-225h-468q0 -14 -2 -42h228v-370q0 -41 -16 -54.5t-65 -13.5t-81 2
l-10 84q38 -3 59 -3q13 0 15 3t2 19v54q-63 -53 -142 -93zM706 2l-25 79q84 39 155 96v47q-57 -45 -128 -80l-22 74q64 29 118 68h-113v81h240v-370q0 -41 -16 -54.5t-65 -13.5q-48 0 -80 2l-10 84q38 -3 58 -3q13 0 15.5 3t2.5 19v52q-61 -49 -130 -84z" />
    <glyph glyph-name="uni717D.jp04" unicode="&#x717d;" unicode="&#xe0104;" 
d="M351 590q-27 -118 -77 -232l-25 12q0 -6 -9 -71q51 -79 82 -135q29 108 29 262v164zM453 487h358v69h-358v-69zM545 286h-106q-2 -26 -8 -66q64 31 114 66zM37 335q27 148 27 326l78 -7q0 -196 -29 -344zM434 -5l-25 78q93 44 167 106v45q-59 -47 -127 -80l-20 65
q-24 -145 -91 -270l-81 56q3 6 12 26t14 31q-33 64 -69 122q-41 -149 -117 -243l-64 74q67 89 99 218t32 333v235h93v-235v-22q22 75 38 154l56 -14v85q339 0 565 40l25 -81q-197 -38 -488 -40v-44h461v-225h-468q0 -14 -2 -42h228v-370q0 -41 -16 -54.5t-65 -13.5t-81 2
l-10 84q38 -3 59 -3q13 0 15 3t2 19v54q-63 -53 -142 -93zM706 2l-25 79q84 39 155 96v47q-57 -45 -128 -80l-22 74q64 29 118 68h-113v81h240v-370q0 -41 -16 -54.5t-65 -13.5q-48 0 -80 2l-10 84q38 -3 58 -3q13 0 15.5 3t2.5 19v52q-61 -49 -130 -84z" />
    <glyph glyph-name="uni717D.jp04" unicode="&#x717d;" unicode="&#xe0102;" 
d="M351 590q-27 -118 -77 -232l-25 12q0 -6 -9 -71q51 -79 82 -135q29 108 29 262v164zM453 487h358v69h-358v-69zM545 286h-106q-2 -26 -8 -66q64 31 114 66zM37 335q27 148 27 326l78 -7q0 -196 -29 -344zM434 -5l-25 78q93 44 167 106v45q-59 -47 -127 -80l-20 65
q-24 -145 -91 -270l-81 56q3 6 12 26t14 31q-33 64 -69 122q-41 -149 -117 -243l-64 74q67 89 99 218t32 333v235h93v-235v-22q22 75 38 154l56 -14v85q339 0 565 40l25 -81q-197 -38 -488 -40v-44h461v-225h-468q0 -14 -2 -42h228v-370q0 -41 -16 -54.5t-65 -13.5t-81 2
l-10 84q38 -3 59 -3q13 0 15 3t2 19v54q-63 -53 -142 -93zM706 2l-25 79q84 39 155 96v47q-57 -45 -128 -80l-22 74q64 29 118 68h-113v81h240v-370q0 -41 -16 -54.5t-65 -13.5q-48 0 -80 2l-10 84q38 -3 58 -3q13 0 15.5 3t2.5 19v52q-61 -49 -130 -84z" />
    <glyph glyph-name="uni7A7F.jp04" unicode="&#x7a7f;" unicode="&#xe0103;" 
d="M816 615v46h-194v-100q0 -16 8 -19t56 -3q59 0 69.5 10t14.5 69zM88 125q55 101 81 213l101 -12q-5 -24 -16 -64h391v88h-503v53l-40 79q221 58 255 179h-173v-137h-103v221h365v81h108v-81h365v-221h-63q-6 -24 -15 -37t-33.5 -19.5t-50 -8t-81.5 -1.5q-76 0 -106 5
t-39 16.5t-9 42.5v139h-63q-31 -152 -230 -232h678v-79h-157v-88h196v-83h-196v-106q0 -95 -24 -117t-126 -22q-32 0 -169 5l-5 85q127 -5 160 -5q43 0 51 6.5t8 42.5v111h-6q-239 -150 -526 -231l-44 84q221 57 410 147h-254q-18 -43 -39 -81z" />
    <glyph glyph-name="uni7A7F.jp04" unicode="&#x7a7f;" unicode="&#xe0101;" 
d="M816 615v46h-194v-100q0 -16 8 -19t56 -3q59 0 69.5 10t14.5 69zM88 125q55 101 81 213l101 -12q-5 -24 -16 -64h391v88h-503v53l-40 79q221 58 255 179h-173v-137h-103v221h365v81h108v-81h365v-221h-63q-6 -24 -15 -37t-33.5 -19.5t-50 -8t-81.5 -1.5q-76 0 -106 5
t-39 16.5t-9 42.5v139h-63q-31 -152 -230 -232h678v-79h-157v-88h196v-83h-196v-106q0 -95 -24 -117t-126 -22q-32 0 -169 5l-5 85q127 -5 160 -5q43 0 51 6.5t8 42.5v111h-6q-239 -150 -526 -231l-44 84q221 57 410 147h-254q-18 -43 -39 -81z" />
    <glyph glyph-name="uni7A7F.jp04" unicode="&#x7a7f;" unicode="&#xe0103;" 
d="M816 615v46h-194v-100q0 -16 8 -19t56 -3q59 0 69.5 10t14.5 69zM88 125q55 101 81 213l101 -12q-5 -24 -16 -64h391v88h-503v53l-40 79q221 58 255 179h-173v-137h-103v221h365v81h108v-81h365v-221h-63q-6 -24 -15 -37t-33.5 -19.5t-50 -8t-81.5 -1.5q-76 0 -106 5
t-39 16.5t-9 42.5v139h-63q-31 -152 -230 -232h678v-79h-157v-88h196v-83h-196v-106q0 -95 -24 -117t-126 -22q-32 0 -169 5l-5 85q127 -5 160 -5q43 0 51 6.5t8 42.5v111h-6q-239 -150 -526 -231l-44 84q221 57 410 147h-254q-18 -43 -39 -81z" />
    <glyph glyph-name="uni7A7F.jp04" unicode="&#x7a7f;" unicode="&#xe0101;" 
d="M816 615v46h-194v-100q0 -16 8 -19t56 -3q59 0 69.5 10t14.5 69zM88 125q55 101 81 213l101 -12q-5 -24 -16 -64h391v88h-503v53l-40 79q221 58 255 179h-173v-137h-103v221h365v81h108v-81h365v-221h-63q-6 -24 -15 -37t-33.5 -19.5t-50 -8t-81.5 -1.5q-76 0 -106 5
t-39 16.5t-9 42.5v139h-63q-31 -152 -230 -232h678v-79h-157v-88h196v-83h-196v-106q0 -95 -24 -117t-126 -22q-32 0 -169 5l-5 85q127 -5 160 -5q43 0 51 6.5t8 42.5v111h-6q-239 -150 -526 -231l-44 84q221 57 410 147h-254q-18 -43 -39 -81z" />
    <glyph glyph-name="uni7BAD.jp04" unicode="&#x7bad;" unicode="&#xe0103;" 
d="M616 517q30 55 49 97l44 -8l-24 60h-72q-44 -51 -98 -92l-69 67q17 12 31 25h-90q16 -40 32 -84l-55 -16q1 -2 26 -49h226zM59 431v86h225q-11 21 -43 76l61 14q-4 10 -12 29.5t-12 29.5h-68q-44 -60 -106 -111l-70 66q108 93 153 201l97 -20q-10 -26 -21 -50h242v-59
q66 65 94 130l96 -22q-9 -24 -23 -49h271v-86h-149q16 -40 32 -84l-81 -23q-14 -28 -22 -42h218v-86h-882zM400 46v267h-192v-389h-102v463h394v-326q0 -36 -0.5 -55t-5.5 -36.5t-10.5 -24t-20 -12.5t-30.5 -6.5t-46 -0.5q-16 0 -98 5l-2 84q72 -5 81 -5q24 0 28 4.5t4 31.5
zM221 218l27 73q72 -18 139 -39l-27 -73q-67 21 -139 39zM221 95l27 74q72 -18 139 -39l-27 -74q-61 20 -139 39zM581 54v323h100v-323h-100zM796 392h103v-326q0 -96 -20.5 -119t-104.5 -23q-48 0 -132 5l-5 88q76 -5 118 -5q29 0 35 7t6 40v333z" />
    <glyph glyph-name="uni7BAD.jp04" unicode="&#x7bad;" unicode="&#xe0101;" 
d="M616 517q30 55 49 97l44 -8l-24 60h-72q-44 -51 -98 -92l-69 67q17 12 31 25h-90q16 -40 32 -84l-55 -16q1 -2 26 -49h226zM59 431v86h225q-11 21 -43 76l61 14q-4 10 -12 29.5t-12 29.5h-68q-44 -60 -106 -111l-70 66q108 93 153 201l97 -20q-10 -26 -21 -50h242v-59
q66 65 94 130l96 -22q-9 -24 -23 -49h271v-86h-149q16 -40 32 -84l-81 -23q-14 -28 -22 -42h218v-86h-882zM400 46v267h-192v-389h-102v463h394v-326q0 -36 -0.5 -55t-5.5 -36.5t-10.5 -24t-20 -12.5t-30.5 -6.5t-46 -0.5q-16 0 -98 5l-2 84q72 -5 81 -5q24 0 28 4.5t4 31.5
zM221 218l27 73q72 -18 139 -39l-27 -73q-67 21 -139 39zM221 95l27 74q72 -18 139 -39l-27 -74q-61 20 -139 39zM581 54v323h100v-323h-100zM796 392h103v-326q0 -96 -20.5 -119t-104.5 -23q-48 0 -132 5l-5 88q76 -5 118 -5q29 0 35 7t6 40v333z" />
    <glyph glyph-name="uni7BAD.jp04" unicode="&#x7bad;" unicode="&#xe0103;" 
d="M616 517q30 55 49 97l44 -8l-24 60h-72q-44 -51 -98 -92l-69 67q17 12 31 25h-90q16 -40 32 -84l-55 -16q1 -2 26 -49h226zM59 431v86h225q-11 21 -43 76l61 14q-4 10 -12 29.5t-12 29.5h-68q-44 -60 -106 -111l-70 66q108 93 153 201l97 -20q-10 -26 -21 -50h242v-59
q66 65 94 130l96 -22q-9 -24 -23 -49h271v-86h-149q16 -40 32 -84l-81 -23q-14 -28 -22 -42h218v-86h-882zM400 46v267h-192v-389h-102v463h394v-326q0 -36 -0.5 -55t-5.5 -36.5t-10.5 -24t-20 -12.5t-30.5 -6.5t-46 -0.5q-16 0 -98 5l-2 84q72 -5 81 -5q24 0 28 4.5t4 31.5
zM221 218l27 73q72 -18 139 -39l-27 -73q-67 21 -139 39zM221 95l27 74q72 -18 139 -39l-27 -74q-61 20 -139 39zM581 54v323h100v-323h-100zM796 392h103v-326q0 -96 -20.5 -119t-104.5 -23q-48 0 -132 5l-5 88q76 -5 118 -5q29 0 35 7t6 40v333z" />
    <glyph glyph-name="uni7BAD.jp04" unicode="&#x7bad;" unicode="&#xe0101;" 
d="M616 517q30 55 49 97l44 -8l-24 60h-72q-44 -51 -98 -92l-69 67q17 12 31 25h-90q16 -40 32 -84l-55 -16q1 -2 26 -49h226zM59 431v86h225q-11 21 -43 76l61 14q-4 10 -12 29.5t-12 29.5h-68q-44 -60 -106 -111l-70 66q108 93 153 201l97 -20q-10 -26 -21 -50h242v-59
q66 65 94 130l96 -22q-9 -24 -23 -49h271v-86h-149q16 -40 32 -84l-81 -23q-14 -28 -22 -42h218v-86h-882zM400 46v267h-192v-389h-102v463h394v-326q0 -36 -0.5 -55t-5.5 -36.5t-10.5 -24t-20 -12.5t-30.5 -6.5t-46 -0.5q-16 0 -98 5l-2 84q72 -5 81 -5q24 0 28 4.5t4 31.5
zM221 218l27 73q72 -18 139 -39l-27 -73q-67 21 -139 39zM221 95l27 74q72 -18 139 -39l-27 -74q-61 20 -139 39zM581 54v323h100v-323h-100zM796 392h103v-326q0 -96 -20.5 -119t-104.5 -23q-48 0 -132 5l-5 88q76 -5 118 -5q29 0 35 7t6 40v333z" />
    <glyph glyph-name="uni817F.jp04" unicode="&#x817f;" unicode="&#xe0103;" 
d="M637 539v-76h181v76h-181zM637 612h181v76h-181v-76zM798 302q38 36 71 80h-107q14 -41 36 -80zM159 458v-81v-73h67v154h-67zM159 544h67v147h-67v-147zM458 598q-67 73 -134 130l58 68q79 -67 138 -130zM458 384q-67 73 -134 130l58 69q79 -67 138 -130zM331 345h147
v-213q12 -31 29 -51l-9 68q25 4 41 7v616h380v-384l34 -33q-53 -74 -106 -122q47 -55 114 -91l-42 -83q-85 40 -151 125.5t-97 197.5h-34v-202q48 14 101 35l9 -83q-105 -46 -224 -66q29 -23 81 -32.5t148 -9.5h209l-3 -88h-228q-125 0 -191.5 18.5t-101.5 65.5
q-39 -51 -94 -101l-35 63q-4 -36 -18 -46t-48 -10q-19 0 -91 5l-6 91q39 -5 59 -5q16 0 19 6.5t3 44.5v150h-70q-10 -197 -53 -301l-73 72q24 69 34 161.5t10 275.5v353h237v-720v-37q37 34 67 70v165h-47v88z" />
    <glyph glyph-name="uni817F.jp04" unicode="&#x817f;" unicode="&#xe0101;" 
d="M637 539v-76h181v76h-181zM637 612h181v76h-181v-76zM798 302q38 36 71 80h-107q14 -41 36 -80zM159 458v-81v-73h67v154h-67zM159 544h67v147h-67v-147zM458 598q-67 73 -134 130l58 68q79 -67 138 -130zM458 384q-67 73 -134 130l58 69q79 -67 138 -130zM331 345h147
v-213q12 -31 29 -51l-9 68q25 4 41 7v616h380v-384l34 -33q-53 -74 -106 -122q47 -55 114 -91l-42 -83q-85 40 -151 125.5t-97 197.5h-34v-202q48 14 101 35l9 -83q-105 -46 -224 -66q29 -23 81 -32.5t148 -9.5h209l-3 -88h-228q-125 0 -191.5 18.5t-101.5 65.5
q-39 -51 -94 -101l-35 63q-4 -36 -18 -46t-48 -10q-19 0 -91 5l-6 91q39 -5 59 -5q16 0 19 6.5t3 44.5v150h-70q-10 -197 -53 -301l-73 72q24 69 34 161.5t10 275.5v353h237v-720v-37q37 34 67 70v165h-47v88z" />
    <glyph glyph-name="uni817F.jp04" unicode="&#x817f;" unicode="&#xe0103;" 
d="M637 539v-76h181v76h-181zM637 612h181v76h-181v-76zM798 302q38 36 71 80h-107q14 -41 36 -80zM159 458v-81v-73h67v154h-67zM159 544h67v147h-67v-147zM458 598q-67 73 -134 130l58 68q79 -67 138 -130zM458 384q-67 73 -134 130l58 69q79 -67 138 -130zM331 345h147
v-213q12 -31 29 -51l-9 68q25 4 41 7v616h380v-384l34 -33q-53 -74 -106 -122q47 -55 114 -91l-42 -83q-85 40 -151 125.5t-97 197.5h-34v-202q48 14 101 35l9 -83q-105 -46 -224 -66q29 -23 81 -32.5t148 -9.5h209l-3 -88h-228q-125 0 -191.5 18.5t-101.5 65.5
q-39 -51 -94 -101l-35 63q-4 -36 -18 -46t-48 -10q-19 0 -91 5l-6 91q39 -5 59 -5q16 0 19 6.5t3 44.5v150h-70q-10 -197 -53 -301l-73 72q24 69 34 161.5t10 275.5v353h237v-720v-37q37 34 67 70v165h-47v88z" />
    <glyph glyph-name="uni817F.jp04" unicode="&#x817f;" unicode="&#xe0101;" 
d="M637 539v-76h181v76h-181zM637 612h181v76h-181v-76zM798 302q38 36 71 80h-107q14 -41 36 -80zM159 458v-81v-73h67v154h-67zM159 544h67v147h-67v-147zM458 598q-67 73 -134 130l58 68q79 -67 138 -130zM458 384q-67 73 -134 130l58 69q79 -67 138 -130zM331 345h147
v-213q12 -31 29 -51l-9 68q25 4 41 7v616h380v-384l34 -33q-53 -74 -106 -122q47 -55 114 -91l-42 -83q-85 40 -151 125.5t-97 197.5h-34v-202q48 14 101 35l9 -83q-105 -46 -224 -66q29 -23 81 -32.5t148 -9.5h209l-3 -88h-228q-125 0 -191.5 18.5t-101.5 65.5
q-39 -51 -94 -101l-35 63q-4 -36 -18 -46t-48 -10q-19 0 -91 5l-6 91q39 -5 59 -5q16 0 19 6.5t3 44.5v150h-70q-10 -197 -53 -301l-73 72q24 69 34 161.5t10 275.5v353h237v-720v-37q37 34 67 70v165h-47v88z" />
    <glyph glyph-name="uni85AF.jp04" unicode="&#x85af;" unicode="&#xe0103;" 
d="M380 659h240v32h-240v-32zM218 534h123v59h-123v-59zM561 534v59h-122v-59h122zM659 534h123v59h-123v-59zM778 431q25 15 50 34h-313v-34h263zM575 328q49 20 77 34h-137v-34h60zM306 113h454v41h-454v-41zM306 54v-44h454v44h-454zM743 220l32 35h-169q-46 -19 -91 -35
h228zM936 769v-78h-208v-32h159v-194h-38l63 -44q-59 -46 -148 -93h187v-73h-114q63 -44 111 -86l-54 -64q-20 18 -29 25v-221h-105v30h-454v-30h-105v209q-84 -20 -127 -28l-30 86q171 32 324 79h-319v73h355v34h-274v69h274v34h-186h-105v194h159v32h-208v78h208v57h108
v-57h240v57h108v-57h208z" />
    <glyph glyph-name="uni85AF.jp04" unicode="&#x85af;" unicode="&#xe0101;" 
d="M380 659h240v32h-240v-32zM218 534h123v59h-123v-59zM561 534v59h-122v-59h122zM659 534h123v59h-123v-59zM778 431q25 15 50 34h-313v-34h263zM575 328q49 20 77 34h-137v-34h60zM306 113h454v41h-454v-41zM306 54v-44h454v44h-454zM743 220l32 35h-169q-46 -19 -91 -35
h228zM936 769v-78h-208v-32h159v-194h-38l63 -44q-59 -46 -148 -93h187v-73h-114q63 -44 111 -86l-54 -64q-20 18 -29 25v-221h-105v30h-454v-30h-105v209q-84 -20 -127 -28l-30 86q171 32 324 79h-319v73h355v34h-274v69h274v34h-186h-105v194h159v32h-208v78h208v57h108
v-57h240v57h108v-57h208z" />
    <glyph glyph-name="uni85AF.jp04" unicode="&#x85af;" unicode="&#xe0103;" 
d="M380 659h240v32h-240v-32zM218 534h123v59h-123v-59zM561 534v59h-122v-59h122zM659 534h123v59h-123v-59zM778 431q25 15 50 34h-313v-34h263zM575 328q49 20 77 34h-137v-34h60zM306 113h454v41h-454v-41zM306 54v-44h454v44h-454zM743 220l32 35h-169q-46 -19 -91 -35
h228zM936 769v-78h-208v-32h159v-194h-38l63 -44q-59 -46 -148 -93h187v-73h-114q63 -44 111 -86l-54 -64q-20 18 -29 25v-221h-105v30h-454v-30h-105v209q-84 -20 -127 -28l-30 86q171 32 324 79h-319v73h355v34h-274v69h274v34h-186h-105v194h159v32h-208v78h208v57h108
v-57h240v57h108v-57h208z" />
    <glyph glyph-name="uni85AF.jp04" unicode="&#x85af;" unicode="&#xe0101;" 
d="M380 659h240v32h-240v-32zM218 534h123v59h-123v-59zM561 534v59h-122v-59h122zM659 534h123v59h-123v-59zM778 431q25 15 50 34h-313v-34h263zM575 328q49 20 77 34h-137v-34h60zM306 113h454v41h-454v-41zM306 54v-44h454v44h-454zM743 220l32 35h-169q-46 -19 -91 -35
h228zM936 769v-78h-208v-32h159v-194h-38l63 -44q-59 -46 -148 -93h187v-73h-114q63 -44 111 -86l-54 -64q-20 18 -29 25v-221h-105v30h-454v-30h-105v209q-84 -20 -127 -28l-30 86q171 32 324 79h-319v73h355v34h-274v69h274v34h-186h-105v194h159v32h-208v78h208v57h108
v-57h240v57h108v-57h208z" />
    <glyph glyph-name="uni85F7.jp04" unicode="&#x85f7;" unicode="&#xe0104;" 
d="M777 500h-98v-74h20q38 32 78 74zM569 218v-59h245v59h-245zM815 291q-18 15 -36 27l26 25h-65q-22 -18 -68 -52h143zM172 10h110v76h-110v-76zM569 27h245v61h-245v-61zM79 536v74h289v-74h-289zM86 306v71h279v-71h-279zM86 196v71h279v-36q117 43 223 112h-196v73
h-340v81h345v-71h179v74h-142v76h142v56h46v37h-244v-37h-103v37h-216v85h216v67h103v-67h244v67h103v-67h216v-85h-216v-49h-46v-44h164q17 21 34 46l79 -54q-54 -75 -122 -142h129v-83h-87q47 -35 92 -79l-52 -56v-291h-102v34h-245v-34h-101v255q-29 -14 -76 -32l-29 56
h-277zM172 -91h-93v245h291v-213h-198v-32z" />
    <glyph glyph-name="uni85F7.jp04" unicode="&#x85f7;" unicode="&#xe0101;" 
d="M777 500h-98v-74h20q38 32 78 74zM569 218v-59h245v59h-245zM815 291q-18 15 -36 27l26 25h-65q-22 -18 -68 -52h143zM172 10h110v76h-110v-76zM569 27h245v61h-245v-61zM79 536v74h289v-74h-289zM86 306v71h279v-71h-279zM86 196v71h279v-36q117 43 223 112h-196v73
h-340v81h345v-71h179v74h-142v76h142v56h46v37h-244v-37h-103v37h-216v85h216v67h103v-67h244v67h103v-67h216v-85h-216v-49h-46v-44h164q17 21 34 46l79 -54q-54 -75 -122 -142h129v-83h-87q47 -35 92 -79l-52 -56v-291h-102v34h-245v-34h-101v255q-29 -14 -76 -32l-29 56
h-277zM172 -91h-93v245h291v-213h-198v-32z" />
    <glyph glyph-name="uni85F7.jp04" unicode="&#x85f7;" unicode="&#xe0104;" 
d="M777 500h-98v-74h20q38 32 78 74zM569 218v-59h245v59h-245zM815 291q-18 15 -36 27l26 25h-65q-22 -18 -68 -52h143zM172 10h110v76h-110v-76zM569 27h245v61h-245v-61zM79 536v74h289v-74h-289zM86 306v71h279v-71h-279zM86 196v71h279v-36q117 43 223 112h-196v73
h-340v81h345v-71h179v74h-142v76h142v56h46v37h-244v-37h-103v37h-216v85h216v67h103v-67h244v67h103v-67h216v-85h-216v-49h-46v-44h164q17 21 34 46l79 -54q-54 -75 -122 -142h129v-83h-87q47 -35 92 -79l-52 -56v-291h-102v34h-245v-34h-101v255q-29 -14 -76 -32l-29 56
h-277zM172 -91h-93v245h291v-213h-198v-32z" />
    <glyph glyph-name="uni85F7.jp04" unicode="&#x85f7;" unicode="&#xe0101;" 
d="M777 500h-98v-74h20q38 32 78 74zM569 218v-59h245v59h-245zM815 291q-18 15 -36 27l26 25h-65q-22 -18 -68 -52h143zM172 10h110v76h-110v-76zM569 27h245v61h-245v-61zM79 536v74h289v-74h-289zM86 306v71h279v-71h-279zM86 196v71h279v-36q117 43 223 112h-196v73
h-340v81h345v-71h179v74h-142v76h142v56h46v37h-244v-37h-103v37h-216v85h216v67h103v-67h244v67h103v-67h216v-85h-216v-49h-46v-44h164q17 21 34 46l79 -54q-54 -75 -122 -142h129v-83h-87q47 -35 92 -79l-52 -56v-291h-102v34h-245v-34h-101v255q-29 -14 -76 -32l-29 56
h-277zM172 -91h-93v245h291v-213h-198v-32z" />
    <glyph glyph-name="uni86F8.jp04" unicode="&#x86f8;" unicode="&#xe0103;" 
d="M321 593h-39v-218h39v218zM145 593v-218h39v218h-39zM549 282v-89h284v89h-284zM549 360h284v81h-284v-81zM321 241l81 23q22 -63 44 -153v399l-42 36v-257h-117v-194q56 16 73 22q-16 58 -39 124zM814 -69q-21 0 -121 5l-2 88q79 -5 108 -5q25 0 29.5 6.5t4.5 45.5v44
h-284v-186h-103v36l-46 -13q-5 24 -17 78q-180 -64 -335 -86l-10 95q72 11 141 27v223h-34v-59h-88v451h88h34v120h108v-120h34h83v-99q75 94 116 199l88 -31q-47 -126 -125 -226h147v279h100v-279h156q-62 126 -136 218l86 42q75 -96 139 -230l-39 -30v-458q0 -37 -0.5 -55
t-5.5 -36.5t-11 -24.5t-22 -12t-33 -6.5t-50 -0.5z" />
    <glyph glyph-name="uni86F8.jp04" unicode="&#x86f8;" unicode="&#xe0101;" 
d="M321 593h-39v-218h39v218zM145 593v-218h39v218h-39zM549 282v-89h284v89h-284zM549 360h284v81h-284v-81zM321 241l81 23q22 -63 44 -153v399l-42 36v-257h-117v-194q56 16 73 22q-16 58 -39 124zM814 -69q-21 0 -121 5l-2 88q79 -5 108 -5q25 0 29.5 6.5t4.5 45.5v44
h-284v-186h-103v36l-46 -13q-5 24 -17 78q-180 -64 -335 -86l-10 95q72 11 141 27v223h-34v-59h-88v451h88h34v120h108v-120h34h83v-99q75 94 116 199l88 -31q-47 -126 -125 -226h147v279h100v-279h156q-62 126 -136 218l86 42q75 -96 139 -230l-39 -30v-458q0 -37 -0.5 -55
t-5.5 -36.5t-11 -24.5t-22 -12t-33 -6.5t-50 -0.5z" />
    <glyph glyph-name="uni86F8.jp04" unicode="&#x86f8;" unicode="&#xe0103;" 
d="M321 593h-39v-218h39v218zM145 593v-218h39v218h-39zM549 282v-89h284v89h-284zM549 360h284v81h-284v-81zM321 241l81 23q22 -63 44 -153v399l-42 36v-257h-117v-194q56 16 73 22q-16 58 -39 124zM814 -69q-21 0 -121 5l-2 88q79 -5 108 -5q25 0 29.5 6.5t4.5 45.5v44
h-284v-186h-103v36l-46 -13q-5 24 -17 78q-180 -64 -335 -86l-10 95q72 11 141 27v223h-34v-59h-88v451h88h34v120h108v-120h34h83v-99q75 94 116 199l88 -31q-47 -126 -125 -226h147v279h100v-279h156q-62 126 -136 218l86 42q75 -96 139 -230l-39 -30v-458q0 -37 -0.5 -55
t-5.5 -36.5t-11 -24.5t-22 -12t-33 -6.5t-50 -0.5z" />
    <glyph glyph-name="uni86F8.jp04" unicode="&#x86f8;" unicode="&#xe0101;" 
d="M321 593h-39v-218h39v218zM145 593v-218h39v218h-39zM549 282v-89h284v89h-284zM549 360h284v81h-284v-81zM321 241l81 23q22 -63 44 -153v399l-42 36v-257h-117v-194q56 16 73 22q-16 58 -39 124zM814 -69q-21 0 -121 5l-2 88q79 -5 108 -5q25 0 29.5 6.5t4.5 45.5v44
h-284v-186h-103v36l-46 -13q-5 24 -17 78q-180 -64 -335 -86l-10 95q72 11 141 27v223h-34v-59h-88v451h88h34v120h108v-120h34h83v-99q75 94 116 199l88 -31q-47 -126 -125 -226h147v279h100v-279h156q-62 126 -136 218l86 42q75 -96 139 -230l-39 -30v-458q0 -37 -0.5 -55
t-5.5 -36.5t-11 -24.5t-22 -12t-33 -6.5t-50 -0.5z" />
    <glyph glyph-name="uni8755.jp04" unicode="&#x8755;" unicode="&#xe0103;" 
d="M369 656q-28 24 -84 82q-34 -42 -73 -82h157zM191 436h164v46h-164v-46zM191 321h164v49h-164v-49zM659 583h-71v-218h71v218zM762 583v-218h76v218h-76zM804 208l92 19q44 -139 77 -294l-93 -20q-7 37 -18 82q-194 -40 -374 -51l-10 90q95 5 181 16v229h-71v-59h-95v363
v61l-35 -58q-27 19 -56 43v-41h-220v38q-32 -30 -84 -72h355v-304h-262v-47h272v-76h-272v-49h267v-78h-267v-81h-103v627q-2 -2 -17 -13.5t-23 -17.5l-18 106q115 79 207 182h87q82 -76 184 -132h151v135h103v-135h172v-392h-172v-214q31 5 79 14q-15 57 -37 129z" />
    <glyph glyph-name="uni8755.jp04" unicode="&#x8755;" unicode="&#xe0101;" 
d="M369 656q-28 24 -84 82q-34 -42 -73 -82h157zM191 436h164v46h-164v-46zM191 321h164v49h-164v-49zM659 583h-71v-218h71v218zM762 583v-218h76v218h-76zM804 208l92 19q44 -139 77 -294l-93 -20q-7 37 -18 82q-194 -40 -374 -51l-10 90q95 5 181 16v229h-71v-59h-95v363
v61l-35 -58q-27 19 -56 43v-41h-220v38q-32 -30 -84 -72h355v-304h-262v-47h272v-76h-272v-49h267v-78h-267v-81h-103v627q-2 -2 -17 -13.5t-23 -17.5l-18 106q115 79 207 182h87q82 -76 184 -132h151v135h103v-135h172v-392h-172v-214q31 5 79 14q-15 57 -37 129z" />
    <glyph glyph-name="uni8755.jp04" unicode="&#x8755;" unicode="&#xe0103;" 
d="M369 656q-28 24 -84 82q-34 -42 -73 -82h157zM191 436h164v46h-164v-46zM191 321h164v49h-164v-49zM659 583h-71v-218h71v218zM762 583v-218h76v218h-76zM804 208l92 19q44 -139 77 -294l-93 -20q-7 37 -18 82q-194 -40 -374 -51l-10 90q95 5 181 16v229h-71v-59h-95v363
v61l-35 -58q-27 19 -56 43v-41h-220v38q-32 -30 -84 -72h355v-304h-262v-47h272v-76h-272v-49h267v-78h-267v-81h-103v627q-2 -2 -17 -13.5t-23 -17.5l-18 106q115 79 207 182h87q82 -76 184 -132h151v135h103v-135h172v-392h-172v-214q31 5 79 14q-15 57 -37 129z" />
    <glyph glyph-name="uni8755.jp04" unicode="&#x8755;" unicode="&#xe0101;" 
d="M369 656q-28 24 -84 82q-34 -42 -73 -82h157zM191 436h164v46h-164v-46zM191 321h164v49h-164v-49zM659 583h-71v-218h71v218zM762 583v-218h76v218h-76zM804 208l92 19q44 -139 77 -294l-93 -20q-7 37 -18 82q-194 -40 -374 -51l-10 90q95 5 181 16v229h-71v-59h-95v363
v61l-35 -58q-27 19 -56 43v-41h-220v38q-32 -30 -84 -72h355v-304h-262v-47h272v-76h-272v-49h267v-78h-267v-81h-103v627q-2 -2 -17 -13.5t-23 -17.5l-18 106q115 79 207 182h87q82 -76 184 -132h151v135h103v-135h172v-392h-172v-214q31 5 79 14q-15 57 -37 129z" />
    <glyph glyph-name="uni8A0A.jp04" unicode="&#x8a0a;" unicode="&#xe0104;" 
d="M169 37h115v88h-115v-88zM76 686v86h294v-86h-294zM49 544v88h333v-88h-333zM84 404v83h284v-83h-284zM84 264v84h284v-84h-284zM409 338v91h102q4 96 4 164v100h-106v88h459q0 -725 17 -725q8 0 17 152l78 -24q-5 -106 -19 -165.5t-33 -79.5t-48 -20q-40 0 -58 14.5
t-32 97t-17 227t-3 435.5h-157v-100q0 -64 -4 -164h119v-91h-126q-15 -146 -53.5 -238.5t-113.5 -171.5l-62 66v-41h-204v-39h-93v294h297v-201q60 66 90 139.5t42 191.5h-96z" />
    <glyph glyph-name="uni8A0A.jp04" unicode="&#x8a0a;" unicode="&#xe0101;" 
d="M169 37h115v88h-115v-88zM76 686v86h294v-86h-294zM49 544v88h333v-88h-333zM84 404v83h284v-83h-284zM84 264v84h284v-84h-284zM409 338v91h102q4 96 4 164v100h-106v88h459q0 -725 17 -725q8 0 17 152l78 -24q-5 -106 -19 -165.5t-33 -79.5t-48 -20q-40 0 -58 14.5
t-32 97t-17 227t-3 435.5h-157v-100q0 -64 -4 -164h119v-91h-126q-15 -146 -53.5 -238.5t-113.5 -171.5l-62 66v-41h-204v-39h-93v294h297v-201q60 66 90 139.5t42 191.5h-96z" />
    <glyph glyph-name="uni8A0A.jp04" unicode="&#x8a0a;" unicode="&#xe0104;" 
d="M169 37h115v88h-115v-88zM76 686v86h294v-86h-294zM49 544v88h333v-88h-333zM84 404v83h284v-83h-284zM84 264v84h284v-84h-284zM409 338v91h102q4 96 4 164v100h-106v88h459q0 -725 17 -725q8 0 17 152l78 -24q-5 -106 -19 -165.5t-33 -79.5t-48 -20q-40 0 -58 14.5
t-32 97t-17 227t-3 435.5h-157v-100q0 -64 -4 -164h119v-91h-126q-15 -146 -53.5 -238.5t-113.5 -171.5l-62 66v-41h-204v-39h-93v294h297v-201q60 66 90 139.5t42 191.5h-96z" />
    <glyph glyph-name="uni8A0A.jp04" unicode="&#x8a0a;" unicode="&#xe0101;" 
d="M169 37h115v88h-115v-88zM76 686v86h294v-86h-294zM49 544v88h333v-88h-333zM84 404v83h284v-83h-284zM84 264v84h284v-84h-284zM409 338v91h102q4 96 4 164v100h-106v88h459q0 -725 17 -725q8 0 17 152l78 -24q-5 -106 -19 -165.5t-33 -79.5t-48 -20q-40 0 -58 14.5
t-32 97t-17 227t-3 435.5h-157v-100q0 -64 -4 -164h119v-91h-126q-15 -146 -53.5 -238.5t-113.5 -171.5l-62 66v-41h-204v-39h-93v294h297v-201q60 66 90 139.5t42 191.5h-96z" />
    <glyph glyph-name="uni8A6E.jp04" unicode="&#x8a6e;" unicode="&#xe0103;" 
d="M169 -47v-39h-93v294h284v-255h-191zM169 37h103v88h-103v-88zM479 527h364q-102 88 -184 196q-86 -113 -180 -196zM76 686v86h282v-86h-282zM84 404v83h271v-83h-271zM84 264v84h271v-84h-271zM948 34v-88h-568v88h230v177h-193v85h193v145h-171v52q-24 -19 -47 -35
l-27 86h-311v88h321v-73q96 65 166 149h-124v86h299q106 -138 245 -238l-30 -98q-25 17 -46 34v-51h-167v-145h194v-85h-194v-177h230z" />
    <glyph glyph-name="uni8A6E.jp04" unicode="&#x8a6e;" unicode="&#xe0101;" 
d="M169 -47v-39h-93v294h284v-255h-191zM169 37h103v88h-103v-88zM479 527h364q-102 88 -184 196q-86 -113 -180 -196zM76 686v86h282v-86h-282zM84 404v83h271v-83h-271zM84 264v84h271v-84h-271zM948 34v-88h-568v88h230v177h-193v85h193v145h-171v52q-24 -19 -47 -35
l-27 86h-311v88h321v-73q96 65 166 149h-124v86h299q106 -138 245 -238l-30 -98q-25 17 -46 34v-51h-167v-145h194v-85h-194v-177h230z" />
    <glyph glyph-name="uni8A6E.jp04" unicode="&#x8a6e;" unicode="&#xe0103;" 
d="M169 -47v-39h-93v294h284v-255h-191zM169 37h103v88h-103v-88zM479 527h364q-102 88 -184 196q-86 -113 -180 -196zM76 686v86h282v-86h-282zM84 404v83h271v-83h-271zM84 264v84h271v-84h-271zM948 34v-88h-568v88h230v177h-193v85h193v145h-171v52q-24 -19 -47 -35
l-27 86h-311v88h321v-73q96 65 166 149h-124v86h299q106 -138 245 -238l-30 -98q-25 17 -46 34v-51h-167v-145h194v-85h-194v-177h230z" />
    <glyph glyph-name="uni8A6E.jp04" unicode="&#x8a6e;" unicode="&#xe0101;" 
d="M169 -47v-39h-93v294h284v-255h-191zM169 37h103v88h-103v-88zM479 527h364q-102 88 -184 196q-86 -113 -180 -196zM76 686v86h282v-86h-282zM84 404v83h271v-83h-271zM84 264v84h271v-84h-271zM948 34v-88h-568v88h230v177h-193v85h193v145h-171v52q-24 -19 -47 -35
l-27 86h-311v88h321v-73q96 65 166 149h-124v86h299q106 -138 245 -238l-30 -98q-25 17 -46 34v-51h-167v-145h194v-85h-194v-177h230z" />
    <glyph glyph-name="uni8FBF.jp04" unicode="&#x8fbf;" unicode="&#xe0103;" 
d="M811 686h101v-571h-561v571h98v-483h129v598h103v-598h130v483zM311 659l-66 -66q-89 77 -176 142l68 64q99 -75 174 -140zM311 448l-66 -66q-89 77 -176 142l68 64q99 -75 174 -140zM59 331h221v-200q25 -44 60.5 -65.5t109.5 -31.5t212 -10h277l-5 -88h-277
q-185 0 -279 22.5t-140 78.5q-58 -58 -144 -117l-48 86q78 52 133 104v132h-120v89z" />
    <glyph glyph-name="uni8FBF.jp04" unicode="&#x8fbf;" unicode="&#xe0101;" 
d="M811 686h101v-571h-561v571h98v-483h129v598h103v-598h130v483zM311 659l-66 -66q-89 77 -176 142l68 64q99 -75 174 -140zM311 448l-66 -66q-89 77 -176 142l68 64q99 -75 174 -140zM59 331h221v-200q25 -44 60.5 -65.5t109.5 -31.5t212 -10h277l-5 -88h-277
q-185 0 -279 22.5t-140 78.5q-58 -58 -144 -117l-48 86q78 52 133 104v132h-120v89z" />
    <glyph glyph-name="uni8FBF.jp04" unicode="&#x8fbf;" unicode="&#xe0103;" 
d="M811 686h101v-571h-561v571h98v-483h129v598h103v-598h130v483zM311 659l-66 -66q-89 77 -176 142l68 64q99 -75 174 -140zM311 448l-66 -66q-89 77 -176 142l68 64q99 -75 174 -140zM59 331h221v-200q25 -44 60.5 -65.5t109.5 -31.5t212 -10h277l-5 -88h-277
q-185 0 -279 22.5t-140 78.5q-58 -58 -144 -117l-48 86q78 52 133 104v132h-120v89z" />
    <glyph glyph-name="uni8FBF.jp04" unicode="&#x8fbf;" unicode="&#xe0101;" 
d="M811 686h101v-571h-561v571h98v-483h129v598h103v-598h130v483zM311 659l-66 -66q-89 77 -176 142l68 64q99 -75 174 -140zM311 448l-66 -66q-89 77 -176 142l68 64q99 -75 174 -140zM59 331h221v-200q25 -44 60.5 -65.5t109.5 -31.5t212 -10h277l-5 -88h-277
q-185 0 -279 22.5t-140 78.5q-58 -58 -144 -117l-48 86q78 52 133 104v132h-120v89z" />
    <glyph glyph-name="uni9017.jp04" unicode="&#x9017;" unicode="&#xe0103;" 
d="M458 360h-103v272h542v-272h-439zM458 443h336v106h-336v-106zM294 691v85h645v-85h-645zM309 108v88h153q-16 41 -53 122l98 27q34 -70 63 -149h110q42 74 65 149l98 -24q-22 -68 -52 -125h148v-88h-630zM309 659l-66 -66q-83 71 -177 142l69 64q99 -75 174 -140z
M309 448l-66 -66q-83 71 -177 142l69 64q99 -75 174 -140zM59 331h221v-200q25 -44 60.5 -65.5t109.5 -31.5t212 -10h277l-5 -88h-277q-185 0 -279 22.5t-140 78.5q-58 -58 -144 -117l-48 86q78 52 133 104v132h-120v89z" />
    <glyph glyph-name="uni9017.jp04" unicode="&#x9017;" unicode="&#xe0101;" 
d="M458 360h-103v272h542v-272h-439zM458 443h336v106h-336v-106zM294 691v85h645v-85h-645zM309 108v88h153q-16 41 -53 122l98 27q34 -70 63 -149h110q42 74 65 149l98 -24q-22 -68 -52 -125h148v-88h-630zM309 659l-66 -66q-83 71 -177 142l69 64q99 -75 174 -140z
M309 448l-66 -66q-83 71 -177 142l69 64q99 -75 174 -140zM59 331h221v-200q25 -44 60.5 -65.5t109.5 -31.5t212 -10h277l-5 -88h-277q-185 0 -279 22.5t-140 78.5q-58 -58 -144 -117l-48 86q78 52 133 104v132h-120v89z" />
    <glyph glyph-name="uni9017.jp04" unicode="&#x9017;" unicode="&#xe0103;" 
d="M458 360h-103v272h542v-272h-439zM458 443h336v106h-336v-106zM294 691v85h645v-85h-645zM309 108v88h153q-16 41 -53 122l98 27q34 -70 63 -149h110q42 74 65 149l98 -24q-22 -68 -52 -125h148v-88h-630zM309 659l-66 -66q-83 71 -177 142l69 64q99 -75 174 -140z
M309 448l-66 -66q-83 71 -177 142l69 64q99 -75 174 -140zM59 331h221v-200q25 -44 60.5 -65.5t109.5 -31.5t212 -10h277l-5 -88h-277q-185 0 -279 22.5t-140 78.5q-58 -58 -144 -117l-48 86q78 52 133 104v132h-120v89z" />
    <glyph glyph-name="uni9017.jp04" unicode="&#x9017;" unicode="&#xe0101;" 
d="M458 360h-103v272h542v-272h-439zM458 443h336v106h-336v-106zM294 691v85h645v-85h-645zM309 108v88h153q-16 41 -53 122l98 27q34 -70 63 -149h110q42 74 65 149l98 -24q-22 -68 -52 -125h148v-88h-630zM309 659l-66 -66q-83 71 -177 142l69 64q99 -75 174 -140z
M309 448l-66 -66q-83 71 -177 142l69 64q99 -75 174 -140zM59 331h221v-200q25 -44 60.5 -65.5t109.5 -31.5t212 -10h277l-5 -88h-277q-185 0 -279 22.5t-140 78.5q-58 -58 -144 -117l-48 86q78 52 133 104v132h-120v89z" />
    <glyph glyph-name="uni905C.jp04" unicode="&#x905c;" unicode="&#xe0103;" 
d="M837 410q-2 7 -11.5 35.5l-14.5 43.5q-25 -31 -75 -86zM515 306l-5 81l104 7q3 3 8 8.5t8 8.5q-42 64 -108 155l66 66q12 -15 24 -33q39 48 60 77q-58 -2 -91 -2l-5 83q206 0 345 39l15 -83q-59 -17 -150 -28q-52 -77 -122 -161q20 -28 29 -42q80 93 155 201l73 -49
q-43 -60 -100 -132l65 23q36 -106 72 -229l-78 -27q-3 9 -9 30.5t-10 33.5l-94 -8v-271h-98v264zM478 113q65 85 105 178l76 -29q-40 -103 -108 -194zM777 264l76 37q69 -112 108 -198l-76 -39q-46 102 -108 200zM292 666l-64 -68q-89 75 -169 134l66 67q82 -61 167 -133z
M52 331h210v-200q16 -28 36 -47l-6 73q32 -5 54 -5q16 0 19 5t3 34v186l-86 -17l-7 62l-40 -42q-89 77 -176 142l66 66q87 -66 167 -134l76 15v121h27q34 48 62 101h-180v85h282v-85q-41 -88 -91 -157v-46l86 17l7 -91l-93 -18v-227q0 -70 -12.5 -86.5t-65.5 -16.5
q-38 0 -73 3q39 -25 112 -35t216 -10h298l-4 -88h-299q-180 0 -274 21.5t-141 74.5q-56 -55 -139 -112l-47 86q69 46 123 95v141h-110v89z" />
    <glyph glyph-name="uni905C.jp04" unicode="&#x905c;" unicode="&#xe0101;" 
d="M837 410q-2 7 -11.5 35.5l-14.5 43.5q-25 -31 -75 -86zM515 306l-5 81l104 7q3 3 8 8.5t8 8.5q-42 64 -108 155l66 66q12 -15 24 -33q39 48 60 77q-58 -2 -91 -2l-5 83q206 0 345 39l15 -83q-59 -17 -150 -28q-52 -77 -122 -161q20 -28 29 -42q80 93 155 201l73 -49
q-43 -60 -100 -132l65 23q36 -106 72 -229l-78 -27q-3 9 -9 30.5t-10 33.5l-94 -8v-271h-98v264zM478 113q65 85 105 178l76 -29q-40 -103 -108 -194zM777 264l76 37q69 -112 108 -198l-76 -39q-46 102 -108 200zM292 666l-64 -68q-89 75 -169 134l66 67q82 -61 167 -133z
M52 331h210v-200q16 -28 36 -47l-6 73q32 -5 54 -5q16 0 19 5t3 34v186l-86 -17l-7 62l-40 -42q-89 77 -176 142l66 66q87 -66 167 -134l76 15v121h27q34 48 62 101h-180v85h282v-85q-41 -88 -91 -157v-46l86 17l7 -91l-93 -18v-227q0 -70 -12.5 -86.5t-65.5 -16.5
q-38 0 -73 3q39 -25 112 -35t216 -10h298l-4 -88h-299q-180 0 -274 21.5t-141 74.5q-56 -55 -139 -112l-47 86q69 46 123 95v141h-110v89z" />
    <glyph glyph-name="uni905C.jp04" unicode="&#x905c;" unicode="&#xe0103;" 
d="M837 410q-2 7 -11.5 35.5l-14.5 43.5q-25 -31 -75 -86zM515 306l-5 81l104 7q3 3 8 8.5t8 8.5q-42 64 -108 155l66 66q12 -15 24 -33q39 48 60 77q-58 -2 -91 -2l-5 83q206 0 345 39l15 -83q-59 -17 -150 -28q-52 -77 -122 -161q20 -28 29 -42q80 93 155 201l73 -49
q-43 -60 -100 -132l65 23q36 -106 72 -229l-78 -27q-3 9 -9 30.5t-10 33.5l-94 -8v-271h-98v264zM478 113q65 85 105 178l76 -29q-40 -103 -108 -194zM777 264l76 37q69 -112 108 -198l-76 -39q-46 102 -108 200zM292 666l-64 -68q-89 75 -169 134l66 67q82 -61 167 -133z
M52 331h210v-200q16 -28 36 -47l-6 73q32 -5 54 -5q16 0 19 5t3 34v186l-86 -17l-7 62l-40 -42q-89 77 -176 142l66 66q87 -66 167 -134l76 15v121h27q34 48 62 101h-180v85h282v-85q-41 -88 -91 -157v-46l86 17l7 -91l-93 -18v-227q0 -70 -12.5 -86.5t-65.5 -16.5
q-38 0 -73 3q39 -25 112 -35t216 -10h298l-4 -88h-299q-180 0 -274 21.5t-141 74.5q-56 -55 -139 -112l-47 86q69 46 123 95v141h-110v89z" />
    <glyph glyph-name="uni905C.jp04" unicode="&#x905c;" unicode="&#xe0101;" 
d="M837 410q-2 7 -11.5 35.5l-14.5 43.5q-25 -31 -75 -86zM515 306l-5 81l104 7q3 3 8 8.5t8 8.5q-42 64 -108 155l66 66q12 -15 24 -33q39 48 60 77q-58 -2 -91 -2l-5 83q206 0 345 39l15 -83q-59 -17 -150 -28q-52 -77 -122 -161q20 -28 29 -42q80 93 155 201l73 -49
q-43 -60 -100 -132l65 23q36 -106 72 -229l-78 -27q-3 9 -9 30.5t-10 33.5l-94 -8v-271h-98v264zM478 113q65 85 105 178l76 -29q-40 -103 -108 -194zM777 264l76 37q69 -112 108 -198l-76 -39q-46 102 -108 200zM292 666l-64 -68q-89 75 -169 134l66 67q82 -61 167 -133z
M52 331h210v-200q16 -28 36 -47l-6 73q32 -5 54 -5q16 0 19 5t3 34v186l-86 -17l-7 62l-40 -42q-89 77 -176 142l66 66q87 -66 167 -134l76 15v121h27q34 48 62 101h-180v85h282v-85q-41 -88 -91 -157v-46l86 17l7 -91l-93 -18v-227q0 -70 -12.5 -86.5t-65.5 -16.5
q-38 0 -73 3q39 -25 112 -35t216 -10h298l-4 -88h-299q-180 0 -274 21.5t-141 74.5q-56 -55 -139 -112l-47 86q69 46 123 95v141h-110v89z" />
    <glyph glyph-name="uni9061.jp04" unicode="&#x9061;" unicode="&#xe0103;" 
d="M750 505v-67q0 -37 -1 -54h89v121h-88zM750 583h88v113h-88v-113zM542 556h88v-316h-88v42h-40q-10 -77 -34.5 -127t-75.5 -99l-83 57q45 40 66 76t30 93h-30v-54h-83v328h90v-189h31q1 28 1 96v113h-132v85h77q-32 63 -62 111l83 31q37 -58 66 -117l-64 -25h85
q35 69 65 145l88 -25q-17 -44 -53 -120h65v-85h-122v-147q0 -43 -1 -62h33v189zM659 781h275v-593q0 -81 -11.5 -99t-62.5 -18q-26 0 -113 5l-4 88q52 -5 73 -5q16 0 19 5.5t3 36.5v105h-95q-18 -154 -96 -257l-86 51q56 68 77 146.5t21 226.5v308zM275 676l-64 -69
q-73 64 -152 125l66 67q77 -59 150 -123zM277 463l-64 -69q-82 72 -154 128l66 66q79 -61 152 -125zM52 336h210v-205q25 -44 61 -65.5t110 -31.5t212 -10h298l-4 -88h-299q-180 0 -274 21.5t-141 74.5q-56 -55 -139 -112l-47 86q69 46 123 95v146h-110v89z" />
    <glyph glyph-name="uni9061.jp04" unicode="&#x9061;" unicode="&#xe0101;" 
d="M750 505v-67q0 -37 -1 -54h89v121h-88zM750 583h88v113h-88v-113zM542 556h88v-316h-88v42h-40q-10 -77 -34.5 -127t-75.5 -99l-83 57q45 40 66 76t30 93h-30v-54h-83v328h90v-189h31q1 28 1 96v113h-132v85h77q-32 63 -62 111l83 31q37 -58 66 -117l-64 -25h85
q35 69 65 145l88 -25q-17 -44 -53 -120h65v-85h-122v-147q0 -43 -1 -62h33v189zM659 781h275v-593q0 -81 -11.5 -99t-62.5 -18q-26 0 -113 5l-4 88q52 -5 73 -5q16 0 19 5.5t3 36.5v105h-95q-18 -154 -96 -257l-86 51q56 68 77 146.5t21 226.5v308zM275 676l-64 -69
q-73 64 -152 125l66 67q77 -59 150 -123zM277 463l-64 -69q-82 72 -154 128l66 66q79 -61 152 -125zM52 336h210v-205q25 -44 61 -65.5t110 -31.5t212 -10h298l-4 -88h-299q-180 0 -274 21.5t-141 74.5q-56 -55 -139 -112l-47 86q69 46 123 95v146h-110v89z" />
    <glyph glyph-name="uni9061.jp04" unicode="&#x9061;" unicode="&#xe0103;" 
d="M750 505v-67q0 -37 -1 -54h89v121h-88zM750 583h88v113h-88v-113zM542 556h88v-316h-88v42h-40q-10 -77 -34.5 -127t-75.5 -99l-83 57q45 40 66 76t30 93h-30v-54h-83v328h90v-189h31q1 28 1 96v113h-132v85h77q-32 63 -62 111l83 31q37 -58 66 -117l-64 -25h85
q35 69 65 145l88 -25q-17 -44 -53 -120h65v-85h-122v-147q0 -43 -1 -62h33v189zM659 781h275v-593q0 -81 -11.5 -99t-62.5 -18q-26 0 -113 5l-4 88q52 -5 73 -5q16 0 19 5.5t3 36.5v105h-95q-18 -154 -96 -257l-86 51q56 68 77 146.5t21 226.5v308zM275 676l-64 -69
q-73 64 -152 125l66 67q77 -59 150 -123zM277 463l-64 -69q-82 72 -154 128l66 66q79 -61 152 -125zM52 336h210v-205q25 -44 61 -65.5t110 -31.5t212 -10h298l-4 -88h-299q-180 0 -274 21.5t-141 74.5q-56 -55 -139 -112l-47 86q69 46 123 95v146h-110v89z" />
    <glyph glyph-name="uni9061.jp04" unicode="&#x9061;" unicode="&#xe0101;" 
d="M750 505v-67q0 -37 -1 -54h89v121h-88zM750 583h88v113h-88v-113zM542 556h88v-316h-88v42h-40q-10 -77 -34.5 -127t-75.5 -99l-83 57q45 40 66 76t30 93h-30v-54h-83v328h90v-189h31q1 28 1 96v113h-132v85h77q-32 63 -62 111l83 31q37 -58 66 -117l-64 -25h85
q35 69 65 145l88 -25q-17 -44 -53 -120h65v-85h-122v-147q0 -43 -1 -62h33v189zM659 781h275v-593q0 -81 -11.5 -99t-62.5 -18q-26 0 -113 5l-4 88q52 -5 73 -5q16 0 19 5.5t3 36.5v105h-95q-18 -154 -96 -257l-86 51q56 68 77 146.5t21 226.5v308zM275 676l-64 -69
q-73 64 -152 125l66 67q77 -59 150 -123zM277 463l-64 -69q-82 72 -154 128l66 66q79 -61 152 -125zM52 336h210v-205q25 -44 61 -65.5t110 -31.5t212 -10h298l-4 -88h-299q-180 0 -274 21.5t-141 74.5q-56 -55 -139 -112l-47 86q69 46 123 95v146h-110v89z" />
    <glyph glyph-name="uni914B.jp04" unicode="&#x914b;" unicode="&#xe0103;" 
d="M216 271q66 37 94 71t33 79h-127v-150zM216 37h568v66h-568v-66zM444 573v-71h88v71h-88zM784 316v105h-154v-59q0 -34 6.5 -40t44.5 -6h103zM975 627l-27 -91q-76 32 -154 86v-49h-164v-71h257v-585h-103v41h-568v-41h-103v585h233v71h-140v49q-72 -51 -154 -86l-27 91
q149 66 247 169l69 -56q-42 -45 -92 -86h502q-30 24 -67 59h-323v83h367q96 -100 247 -169zM532 421h-93q-7 -75 -46 -124.5t-131 -103.5l-46 57v-71h568v61h-149q-60 0 -81.5 20t-21.5 78v83z" />
    <glyph glyph-name="uni914B.jp04" unicode="&#x914b;" unicode="&#xe0101;" 
d="M216 271q66 37 94 71t33 79h-127v-150zM216 37h568v66h-568v-66zM444 573v-71h88v71h-88zM784 316v105h-154v-59q0 -34 6.5 -40t44.5 -6h103zM975 627l-27 -91q-76 32 -154 86v-49h-164v-71h257v-585h-103v41h-568v-41h-103v585h233v71h-140v49q-72 -51 -154 -86l-27 91
q149 66 247 169l69 -56q-42 -45 -92 -86h502q-30 24 -67 59h-323v83h367q96 -100 247 -169zM532 421h-93q-7 -75 -46 -124.5t-131 -103.5l-46 57v-71h568v61h-149q-60 0 -81.5 20t-21.5 78v83z" />
    <glyph glyph-name="uni914B.jp04" unicode="&#x914b;" unicode="&#xe0103;" 
d="M216 271q66 37 94 71t33 79h-127v-150zM216 37h568v66h-568v-66zM444 573v-71h88v71h-88zM784 316v105h-154v-59q0 -34 6.5 -40t44.5 -6h103zM975 627l-27 -91q-76 32 -154 86v-49h-164v-71h257v-585h-103v41h-568v-41h-103v585h233v71h-140v49q-72 -51 -154 -86l-27 91
q149 66 247 169l69 -56q-42 -45 -92 -86h502q-30 24 -67 59h-323v83h367q96 -100 247 -169zM532 421h-93q-7 -75 -46 -124.5t-131 -103.5l-46 57v-71h568v61h-149q-60 0 -81.5 20t-21.5 78v83z" />
    <glyph glyph-name="uni914B.jp04" unicode="&#x914b;" unicode="&#xe0101;" 
d="M216 271q66 37 94 71t33 79h-127v-150zM216 37h568v66h-568v-66zM444 573v-71h88v71h-88zM784 316v105h-154v-59q0 -34 6.5 -40t44.5 -6h103zM975 627l-27 -91q-76 32 -154 86v-49h-164v-71h257v-585h-103v41h-568v-41h-103v585h233v71h-140v49q-72 -51 -154 -86l-27 91
q149 66 247 169l69 -56q-42 -45 -92 -86h502q-30 24 -67 59h-323v83h367q96 -100 247 -169zM532 421h-93q-7 -75 -46 -124.5t-131 -103.5l-46 57v-71h568v61h-149q-60 0 -81.5 20t-21.5 78v83z" />
    <glyph glyph-name="uni9798.jp04" unicode="&#x9798;" unicode="&#xe0103;" 
d="M353 269v103h-56v-103h56zM157 269h56v103h-56v-103zM194 639v-59h122v59h-122zM578 282v-89h255v89h-255zM578 360h255v81h-255v-81zM407 505h-101v-52h130v-265h-83h-47v-63h147v-83h-147v-123h-102v123h-162v83h162v63h-47h-86v265h133v52h-103v134h-57v84h57v73h93
v-73h122v73h91v-73h49v-84h-49v-134zM814 -69q-21 0 -121 5l-2 88q79 -5 108 -5q25 0 29.5 6.5t4.5 45.5v44h-255v-186h-102v579l-59 53q79 97 127 220l86 -31q-45 -124 -121 -226h135v279h101v-279h144q-60 124 -132 218l84 42q75 -99 134 -230l-39 -31v-457
q0 -37 -0.5 -55t-5.5 -36.5t-11 -24.5t-22 -12t-33 -6.5t-50 -0.5z" />
    <glyph glyph-name="uni9798.jp04" unicode="&#x9798;" unicode="&#xe0101;" 
d="M353 269v103h-56v-103h56zM157 269h56v103h-56v-103zM194 639v-59h122v59h-122zM578 282v-89h255v89h-255zM578 360h255v81h-255v-81zM407 505h-101v-52h130v-265h-83h-47v-63h147v-83h-147v-123h-102v123h-162v83h162v63h-47h-86v265h133v52h-103v134h-57v84h57v73h93
v-73h122v73h91v-73h49v-84h-49v-134zM814 -69q-21 0 -121 5l-2 88q79 -5 108 -5q25 0 29.5 6.5t4.5 45.5v44h-255v-186h-102v579l-59 53q79 97 127 220l86 -31q-45 -124 -121 -226h135v279h101v-279h144q-60 124 -132 218l84 42q75 -99 134 -230l-39 -31v-457
q0 -37 -0.5 -55t-5.5 -36.5t-11 -24.5t-22 -12t-33 -6.5t-50 -0.5z" />
    <glyph glyph-name="uni9798.jp04" unicode="&#x9798;" unicode="&#xe0103;" 
d="M353 269v103h-56v-103h56zM157 269h56v103h-56v-103zM194 639v-59h122v59h-122zM578 282v-89h255v89h-255zM578 360h255v81h-255v-81zM407 505h-101v-52h130v-265h-83h-47v-63h147v-83h-147v-123h-102v123h-162v83h162v63h-47h-86v265h133v52h-103v134h-57v84h57v73h93
v-73h122v73h91v-73h49v-84h-49v-134zM814 -69q-21 0 -121 5l-2 88q79 -5 108 -5q25 0 29.5 6.5t4.5 45.5v44h-255v-186h-102v579l-59 53q79 97 127 220l86 -31q-45 -124 -121 -226h135v279h101v-279h144q-60 124 -132 218l84 42q75 -99 134 -230l-39 -31v-457
q0 -37 -0.5 -55t-5.5 -36.5t-11 -24.5t-22 -12t-33 -6.5t-50 -0.5z" />
    <glyph glyph-name="uni9798.jp04" unicode="&#x9798;" unicode="&#xe0101;" 
d="M353 269v103h-56v-103h56zM157 269h56v103h-56v-103zM194 639v-59h122v59h-122zM578 282v-89h255v89h-255zM578 360h255v81h-255v-81zM407 505h-101v-52h130v-265h-83h-47v-63h147v-83h-147v-123h-102v123h-162v83h162v63h-47h-86v265h133v52h-103v134h-57v84h57v73h93
v-73h122v73h91v-73h49v-84h-49v-134zM814 -69q-21 0 -121 5l-2 88q79 -5 108 -5q25 0 29.5 6.5t4.5 45.5v44h-255v-186h-102v579l-59 53q79 97 127 220l86 -31q-45 -124 -121 -226h135v279h101v-279h144q-60 124 -132 218l84 42q75 -99 134 -230l-39 -31v-457
q0 -37 -0.5 -55t-5.5 -36.5t-11 -24.5t-22 -12t-33 -6.5t-50 -0.5z" />
    <glyph glyph-name="glyph7605" unicode="&#x633a;" unicode="&#xe0100;" 
d="M956 392h-145v-196h132v-86h-374v86h139v196h-152v90h152v165q-79 -13 -142 -17l-5 90q183 17 370 71l17 -90q-73 -20 -137 -34v-185h145v-90zM314 130l-64 54q27 44 49 99q-23 -10 -73 -30v-187q0 -97 -16 -119.5t-82 -22.5q-33 0 -82 5l-4 86q41 -5 61 -5q16 0 19 6.5
t3 44.5v157q-36 -12 -81 -22l-7 93q40 9 88 23v237h-86v88h86v164h101v-164h76v-88h-76v-204q31 11 72 29l4 -82q12 34 17 51h76q12 -59 27 -105q23 71 28 146h-148v86q75 95 132 204h-132v88h235v-88q-52 -110 -120 -204h122v-86q-15 -140 -65 -251q44 -61 118 -85t197 -24
h169l-2 -88h-167q-138 0 -223.5 27t-136.5 90q-50 -76 -118 -132l-58 91q77 57 124 131q-13 33 -24 72q-13 -43 -39 -85z" />
    <glyph glyph-name="glyph7605" unicode="&#x633a;" unicode="&#xe0100;" 
d="M956 392h-145v-196h132v-86h-374v86h139v196h-152v90h152v165q-79 -13 -142 -17l-5 90q183 17 370 71l17 -90q-73 -20 -137 -34v-185h145v-90zM314 130l-64 54q27 44 49 99q-23 -10 -73 -30v-187q0 -97 -16 -119.5t-82 -22.5q-33 0 -82 5l-4 86q41 -5 61 -5q16 0 19 6.5
t3 44.5v157q-36 -12 -81 -22l-7 93q40 9 88 23v237h-86v88h86v164h101v-164h76v-88h-76v-204q31 11 72 29l4 -82q12 34 17 51h76q12 -59 27 -105q23 71 28 146h-148v86q75 95 132 204h-132v88h235v-88q-52 -110 -120 -204h122v-86q-15 -140 -65 -251q44 -61 118 -85t197 -24
h169l-2 -88h-167q-138 0 -223.5 27t-136.5 90q-50 -76 -118 -132l-58 91q77 57 124 131q-13 33 -24 72q-13 -43 -39 -85z" />
    </font>
</defs>
</svg>
